<svg width="67" height="67" viewBox="0 0 67 67" fill="none" xmlns="http://www.w3.org/2000/svg">
<path d="M15.4516 27.5201C12.2869 29.2655 10.9387 33.199 12.7013 36.5089C12.8294 36.7495 12.9704 36.979 13.1223 37.1976V51.8918C13.1223 53.2158 14.1956 54.289 15.5195 54.289H34.2614C34.3123 54.3839 34.3645 54.4781 34.4191 54.5711C35.4441 56.3266 37.0213 57.5903 38.8183 58.2844H12.3232C10.558 58.2844 9.12695 56.8534 9.12695 55.0881V27.5201H15.4516ZM57.8703 55.0881C57.8703 56.8534 56.4393 58.2844 54.6741 58.2844H45.4203C45.5604 58.2295 45.6997 58.1712 45.8378 58.1088L46.0454 58.0117C47.773 57.1782 49.1108 55.8538 49.9495 54.289H51.4778C52.8017 54.289 53.875 53.2158 53.875 51.8918V31.5155H52.0669C53.3787 30.4697 54.3081 29.0654 54.7618 27.5201H57.8703V55.0881ZM43.6092 9.54102C46.1661 9.54102 48.239 11.7269 48.239 14.4232V15.6437H45.2982V15.0378C45.2982 13.7368 44.2982 12.6824 43.0645 12.6823C41.8307 12.6823 40.8304 13.7367 40.8304 15.0378V19.2259C40.8304 20.5268 41.8307 21.5813 43.0645 21.5813C43.0667 21.5813 43.0689 21.5809 43.0711 21.5809C43.4577 21.2277 43.896 20.9339 44.3716 20.7105C47.0565 19.4163 50.3315 20.4421 51.69 23.0031C53.047 25.5625 51.9712 28.6891 49.2831 29.9802C48.7399 30.242 48.1587 30.415 47.5612 30.4925C47.3691 30.5116 47.1892 30.5959 47.0513 30.7316C46.9133 30.8673 46.8255 31.0463 46.8023 31.2389L45.5273 45.1848C45.518 45.3065 45.54 45.4288 45.5912 45.5394C45.6425 45.6501 45.7213 45.7457 45.8199 45.8169C46.5145 46.3299 47.0865 46.9921 47.4937 47.7556C49.0275 50.6382 47.7669 54.1686 44.6864 55.5598C41.8359 56.8476 38.3633 55.7861 36.8311 53.1556C36.3379 52.3153 36.075 51.3587 36.0691 50.383C36.0678 50.2851 36.0457 50.1886 36.0047 50.0998C35.9637 50.011 35.9046 49.9318 35.8311 49.8676L21.4318 37.038C21.342 36.96 21.2314 36.9102 21.1138 36.8944C20.9962 36.8787 20.8766 36.8975 20.7697 36.949C18.7166 37.9411 16.2086 37.1446 15.1699 35.1944C14.1313 33.2442 14.9545 30.8528 17.0092 29.8623C17.8833 29.4381 18.8742 29.3227 19.8216 29.535C20.769 29.7473 21.6173 30.2748 22.2293 31.0321L41.0192 24.5915C41.072 24.5737 41.1226 24.5505 41.1706 24.5228C39.2519 23.9268 37.851 22.0567 37.851 19.8404V14.4232C37.851 11.7269 39.9239 9.54102 42.4808 9.54102H43.6092ZM42.6306 28.8498C42.4908 28.8099 42.3435 28.8043 42.201 28.8331L23.0315 32.9759C23.0917 33.5046 23.0413 34.0403 22.8836 34.5483C22.8524 34.6605 22.859 34.7799 22.902 34.8881C22.945 34.9964 23.0221 35.0878 23.1216 35.1476L39.0387 45.0041C39.1443 45.0683 39.2633 45.1067 39.3863 45.1165C39.5094 45.1263 39.6332 45.1074 39.7476 45.0607C39.9966 44.96 40.2516 44.8749 40.5112 44.8067C40.6427 44.7743 40.7632 44.7068 40.8592 44.6108C40.9552 44.5149 41.0233 44.3944 41.0563 44.2624L44.0337 30.4425C44.0659 30.2843 44.0504 30.1196 43.9888 29.9704C43.9272 29.8213 43.8222 29.694 43.688 29.6052C43.4457 29.4436 43.2172 29.2621 43.0048 29.0625C42.8987 28.9627 42.7704 28.8897 42.6306 28.8498ZM22.8641 27.8576C22.686 27.7368 22.5024 27.6243 22.314 27.5201H23.8489L22.8641 27.8576ZM17.4747 19.8404C17.4747 21.7531 18.1688 23.5526 19.3397 24.9282H9.12695V20.1338C9.12701 18.3686 10.558 16.9375 12.3232 16.9375H17.4747V19.8404ZM35.0543 19.8404C35.0543 21.1025 35.3566 22.3151 35.8986 23.3894L31.4104 24.9282H29.4315C29.5354 24.5821 29.5891 24.2296 29.5891 23.89V22.5419C29.589 20.9609 28.5845 19.9665 27.895 19.5115C27.3441 19.148 26.7008 18.911 26.0475 18.8232V16.9375H35.0543V19.8404ZM54.6741 16.9375C56.4393 16.9375 57.8703 18.3686 57.8703 20.1338V24.9282H55.0654C55.007 23.8388 54.7153 22.739 54.161 21.6933L54.1606 21.6925C52.1475 17.8977 47.514 16.3937 43.6271 17.9828V16.9375H54.6741ZM26.0296 9.54102C28.5865 9.54102 30.6594 11.7269 30.6594 14.4232V15.6437H27.7186V15.0378C27.7186 13.7368 26.7186 12.6824 25.4849 12.6823C24.2511 12.6823 23.2508 13.7367 23.2508 15.0378V19.2259C23.2508 20.5268 24.2512 21.5813 25.4849 21.5813C26.061 21.5814 26.7922 21.9659 26.7924 22.5419V23.89C26.7924 24.3331 26.4727 24.7226 26.0296 24.7226H24.9012C22.3443 24.7226 20.2714 22.5367 20.2714 19.8404V14.4232C20.2714 11.7269 22.3443 9.54102 24.9012 9.54102H26.0296Z" fill="#D51F36"/>
</svg>
