<svg width="170" height="142" viewBox="0 0 170 142" fill="none" xmlns="http://www.w3.org/2000/svg">
<path d="M108.735 120.408C108.735 119.492 108.484 118.773 107.983 118.249C107.503 117.704 106.838 117.432 105.987 117.432C105.159 117.432 104.45 117.639 103.861 118.053C103.273 118.467 102.847 119.165 102.586 120.146L98.7914 119.002C99.1403 117.541 99.9362 116.374 101.179 115.502C102.422 114.629 104.101 114.193 106.216 114.193C107.656 114.193 108.898 114.422 109.945 114.88C110.992 115.316 111.799 115.981 112.366 116.876C112.954 117.77 113.249 118.882 113.249 120.212V126.852C113.249 127.702 113.63 128.127 114.394 128.127C114.568 128.127 114.742 128.117 114.917 128.095C115.113 128.073 115.277 128.04 115.408 127.997L115.146 130.744C114.884 130.875 114.579 130.973 114.23 131.039C113.881 131.104 113.478 131.137 113.02 131.137C112.278 131.137 111.602 131.017 110.992 130.777C110.403 130.515 109.934 130.123 109.585 129.599C109.258 129.054 109.095 128.367 109.095 127.539V127.277L109.716 127.146C109.629 128.04 109.302 128.793 108.735 129.403C108.168 130.014 107.47 130.472 106.642 130.777C105.813 131.06 104.941 131.202 104.025 131.202C102.455 131.202 101.168 130.82 100.165 130.057C99.1839 129.294 98.6932 128.182 98.6932 126.721C98.6932 125.565 99.053 124.595 99.7726 123.81C100.492 123.025 101.593 122.48 103.076 122.174L109.226 120.866V123.515L105.464 124.3C104.723 124.453 104.156 124.682 103.763 124.987C103.371 125.293 103.174 125.74 103.174 126.328C103.174 126.895 103.371 127.332 103.763 127.637C104.177 127.942 104.701 128.095 105.333 128.095C105.769 128.095 106.195 128.04 106.609 127.931C107.023 127.8 107.383 127.604 107.688 127.342C108.015 127.059 108.266 126.721 108.441 126.328C108.637 125.914 108.735 125.423 108.735 124.857V120.408Z" fill="#D51F36"/>
<path d="M85.4718 131.202C84.1635 131.202 82.9968 130.875 81.972 130.221C80.9471 129.545 80.1403 128.575 79.5515 127.31C78.9845 126.023 78.701 124.497 78.701 122.731C78.701 120.921 78.9954 119.383 79.5842 118.119C80.1948 116.832 81.0234 115.862 82.0701 115.208C83.1168 114.532 84.3052 114.194 85.6354 114.194C87.0746 114.194 88.2521 114.619 89.168 115.469C90.0838 116.298 90.6835 117.388 90.967 118.74L90.509 119.264V107.39H95.0229V130.875H90.9997L90.6726 125.773L91.2286 126.067C91.076 127.114 90.7271 128.03 90.1819 128.815C89.6586 129.578 88.9935 130.167 88.1867 130.581C87.3799 130.995 86.4749 131.202 85.4718 131.202ZM86.8783 127.768C87.6197 127.768 88.2521 127.572 88.7754 127.179C89.3206 126.765 89.7458 126.176 90.0511 125.413C90.3564 124.628 90.509 123.679 90.509 122.567C90.509 121.52 90.3564 120.637 90.0511 119.918C89.7676 119.176 89.3533 118.609 88.8082 118.217C88.2848 117.824 87.6633 117.628 86.9437 117.628C85.788 117.628 84.8722 118.064 84.1962 118.936C83.542 119.787 83.2149 121.041 83.2149 122.698C83.2149 124.355 83.5311 125.62 84.1635 126.492C84.8176 127.343 85.7226 127.768 86.8783 127.768Z" fill="#D51F36"/>
<path d="M59.6188 130.875V114.52H63.642L63.9037 119.525L63.3803 119.002C63.751 117.41 64.4597 116.21 65.5064 115.404C66.5531 114.597 67.8179 114.193 69.3007 114.193C70.4128 114.193 71.3941 114.422 72.2445 114.88C73.0949 115.316 73.76 115.971 74.2397 116.843C74.7413 117.715 74.992 118.805 74.992 120.114V130.875H70.4782V121.357C70.4782 120.026 70.2165 119.089 69.6932 118.544C69.1698 117.999 68.4938 117.726 67.6652 117.726C67.0765 117.726 66.5095 117.879 65.9643 118.184C65.4192 118.467 64.9722 118.936 64.6233 119.59C64.2962 120.245 64.1326 121.095 64.1326 122.142V130.875H59.6188Z" fill="#D51F36"/>
<path d="M48.4851 131.202C46.806 131.202 45.3341 130.875 44.0694 130.221C42.8264 129.545 41.8561 128.574 41.1583 127.31C40.4605 126.023 40.1116 124.486 40.1116 122.698C40.1116 120.91 40.4605 119.383 41.1583 118.118C41.8561 116.832 42.8155 115.862 44.0367 115.207C45.2578 114.531 46.6643 114.193 48.2561 114.193C49.8698 114.193 51.2436 114.531 52.3775 115.207C53.5332 115.862 54.4163 116.766 55.0269 117.922C55.6375 119.078 55.9428 120.397 55.9428 121.88C55.9428 122.273 55.9319 122.643 55.9101 122.992C55.8883 123.319 55.8555 123.603 55.8119 123.843H43.0554V121.16H53.8167L51.6252 121.913C51.6252 120.975 51.4943 120.179 51.2327 119.525C50.971 118.871 50.5894 118.369 50.0878 118.02C49.5863 117.671 48.9757 117.497 48.2561 117.497C47.4493 117.497 46.7515 117.693 46.1628 118.086C45.5958 118.478 45.1597 119.067 44.8544 119.852C44.5709 120.615 44.4292 121.586 44.4292 122.763C44.4292 123.919 44.5927 124.878 44.9198 125.642C45.2469 126.405 45.7157 126.972 46.3263 127.342C46.9369 127.713 47.6565 127.898 48.4851 127.898C49.3791 127.898 50.1097 127.713 50.6766 127.342C51.2654 126.95 51.7124 126.416 52.0177 125.74L55.6157 127.113C55.2886 127.986 54.7652 128.727 54.0456 129.338C53.3479 129.948 52.5192 130.417 51.5598 130.744C50.6003 131.049 49.5754 131.202 48.4851 131.202Z" fill="#D51F36"/>
<path d="M34.364 129.5C34.8092 129.724 35.2339 129.985 35.6333 130.281C36.6701 131.041 37.3646 132.167 37.5695 133.422C37.8086 134.719 37.6912 136.056 37.2294 137.295C36.705 138.697 35.7624 139.761 34.4769 140.547C33.4917 141.128 32.3974 141.508 31.2593 141.665C30.4419 141.781 29.614 141.808 28.7906 141.745C27.195 141.672 25.6521 141.162 24.3359 140.273C23.3662 139.617 22.594 138.717 22.0998 137.667C21.8045 137.059 21.6154 136.406 21.5404 135.737C21.5095 135.447 21.4544 135.162 21.4463 134.872C21.4463 134.75 21.4839 134.717 21.605 134.717C22.8214 134.717 24.0387 134.717 25.2569 134.717C25.4317 134.717 25.4331 134.808 25.4371 134.928C25.4527 135.313 25.5453 135.69 25.7096 136.039C25.8739 136.388 26.1066 136.702 26.3945 136.963C26.9541 137.487 27.6535 137.844 28.4114 137.993C29.4083 138.228 30.4535 138.169 31.4166 137.824C32.4035 137.46 33.1713 136.848 33.5169 135.843C33.675 135.387 33.7278 134.901 33.6715 134.421C33.6277 133.914 33.4415 133.429 33.1337 133.019C32.7678 132.557 32.2852 132.198 31.7339 131.976C30.9971 131.679 30.2053 131.536 29.4091 131.556C28.5762 131.56 27.7466 131.455 26.9417 131.245C25.8741 130.984 24.8812 130.487 24.0387 129.792C23.2883 129.162 22.6872 128.378 22.2773 127.496C21.9795 126.851 21.7645 126.172 21.6372 125.475C21.4924 124.63 21.4473 123.772 21.5028 122.917C21.5566 121.754 21.8784 120.617 22.444 119.594C22.7111 119.116 23.0264 118.666 23.3852 118.251C24.063 117.459 24.9094 116.822 25.8647 116.385C26.6726 116.016 27.5349 115.775 28.4194 115.671C29.1709 115.575 29.931 115.563 30.6851 115.637C31.5451 115.698 32.3797 115.95 33.1256 116.375C33.2601 116.45 33.3192 116.446 33.4187 116.319C33.8786 115.738 34.3599 115.173 34.8198 114.59C34.9059 114.481 34.9341 114.521 35.0067 114.575C35.9089 115.244 36.8098 115.915 37.7175 116.578C37.8344 116.662 37.8143 116.722 37.743 116.81C37.2482 117.424 36.7587 118.041 36.2639 118.659C36.0609 118.907 36.0474 118.906 36.2491 119.151C36.9738 120.027 37.4505 121.074 37.6314 122.188C37.775 123.032 37.785 123.892 37.661 124.739C37.5617 125.47 37.3523 126.182 37.0398 126.852C36.612 127.789 35.9171 128.585 35.039 129.143C34.8217 129.275 34.5962 129.395 34.364 129.5ZM25.4411 123.605C25.4411 123.724 25.4411 123.844 25.4411 123.963C25.5608 126.198 27.0721 127.804 29.2289 127.971C30.794 128.092 32.1037 127.575 33.0059 126.288C33.9216 124.974 34.0171 123.515 33.5559 122.026C33.0947 120.536 32.0486 119.541 30.4633 119.24C28.878 118.939 27.5199 119.357 26.4603 120.572C25.7033 121.438 25.4331 122.483 25.4411 123.605Z" fill="#D51F36"/>
<path d="M20.7049 130.875H15.9947L14.2612 125.576H6.34556L4.61198 130.875H0L7.62122 109.287H13.0836L20.7049 130.875ZM7.32684 122.272H13.2799L10.3034 112.819L7.32684 122.272Z" fill="#D51F36"/>
<path d="M166.564 107.39C166.877 107.523 167.217 107.524 167.541 107.611C168.387 107.842 169.194 108.207 169.934 108.696C170.006 108.743 170.014 108.781 169.982 108.85C169.527 109.816 169.072 110.782 168.618 111.748C168.559 111.874 168.503 111.85 168.405 111.787C167.895 111.433 167.326 111.183 166.727 111.053C165.924 110.905 165.175 110.987 164.543 111.58C164.215 111.903 163.982 112.32 163.874 112.779C163.785 113.116 163.737 113.464 163.73 113.814C163.73 113.989 163.779 114.021 163.934 114.02C165.346 114.02 166.757 114.02 168.169 114.012C168.389 114.012 168.451 114.065 168.448 114.302C168.435 115.346 168.436 116.388 168.448 117.432C168.448 117.649 168.383 117.691 168.194 117.69C166.818 117.683 165.442 117.69 164.066 117.69C163.736 117.69 163.736 117.69 163.736 118.028C163.736 122.328 163.736 126.627 163.736 130.927C163.736 131.141 163.693 131.209 163.482 131.202C162.328 131.19 161.173 131.19 160.018 131.202C159.816 131.202 159.75 131.157 159.75 130.933C159.75 126.61 159.75 122.288 159.762 117.972C159.762 117.735 159.697 117.69 159.495 117.69C158.646 117.703 157.798 117.69 156.952 117.698C156.818 117.698 156.771 117.672 156.771 117.517C156.778 116.413 156.778 115.31 156.771 114.207C156.771 114.057 156.812 114.021 156.95 114.023C157.814 114.023 158.675 114.023 159.539 114.03C159.709 114.03 159.77 113.997 159.766 113.802C159.75 112.975 159.878 112.152 160.144 111.374C160.408 110.557 160.842 109.811 161.414 109.192C162.351 108.195 163.483 107.69 164.769 107.485C164.867 107.469 164.979 107.484 165.061 107.399L166.564 107.39Z" fill="#878787"/>
<path d="M126.854 107.39C128.297 107.418 129.719 107.588 131.085 108.106C132.164 108.495 133.145 109.132 133.955 109.969C134.479 110.524 134.912 111.163 135.239 111.862C135.302 112.003 135.253 112.019 135.162 112.067C134.424 112.459 133.686 112.853 132.948 113.249L132.021 113.744C131.946 113.784 131.879 113.839 131.808 113.718C131.393 113.004 130.77 112.532 130.08 112.148C129.403 111.772 128.669 111.522 127.909 111.409C127.398 111.323 126.88 111.297 126.363 111.329C125.403 111.4 124.461 111.554 123.638 112.137C122.898 112.661 122.534 113.385 122.6 114.314C122.653 115.036 123.074 115.511 123.658 115.854C124.265 116.207 124.934 116.381 125.607 116.521C126.501 116.706 127.412 116.782 128.31 116.932C129.874 117.193 131.418 117.532 132.831 118.32C134.179 119.066 135.152 120.14 135.612 121.681C135.788 122.297 135.889 122.934 135.913 123.576C135.979 124.612 135.826 125.65 135.463 126.617C134.99 127.848 134.175 128.788 133.114 129.508C132.127 130.155 131.036 130.611 129.892 130.854C129.398 130.97 128.895 131.04 128.395 131.116C128.025 131.172 127.642 131.131 127.269 131.175C126.73 131.238 126.203 131.175 125.675 131.155C125.123 131.126 124.574 131.057 124.032 130.948C123.299 130.816 122.58 130.607 121.886 130.326C121.084 130 120.338 129.541 119.677 128.966C118.823 128.235 118.221 127.316 117.703 126.323C117.598 126.12 117.528 125.896 117.434 125.683C117.383 125.562 117.401 125.498 117.531 125.432C118.015 125.186 118.489 124.922 118.966 124.663C119.575 124.331 120.179 124.001 120.792 123.665C120.901 123.604 120.972 123.579 121.032 123.732C121.593 125.187 122.648 126.095 124.024 126.649C124.829 126.967 125.681 127.138 126.543 127.154C127.518 127.183 128.482 127.123 129.414 126.798C130.037 126.606 130.596 126.239 131.031 125.738C131.417 125.288 131.636 124.71 131.648 124.107C131.659 123.522 131.544 123.001 131.183 122.538C130.925 122.215 130.603 121.952 130.24 121.767C129.47 121.367 128.639 121.109 127.785 121.002C127.086 120.908 126.392 120.781 125.692 120.69C124.881 120.587 124.078 120.414 123.294 120.173C122.374 119.893 121.476 119.533 120.673 118.951C119.795 118.332 119.12 117.448 118.74 116.419C118.58 115.963 118.474 115.489 118.423 115.007C118.36 114.449 118.35 113.886 118.392 113.326C118.428 112.837 118.537 112.356 118.713 111.9C118.917 111.357 119.195 110.846 119.537 110.383C119.998 109.776 120.564 109.263 121.207 108.873C122.516 108.05 123.954 107.649 125.465 107.488C125.926 107.43 126.389 107.397 126.854 107.39Z" fill="#878787"/>
<path d="M146.831 131.197C146.009 131.226 145.188 131.124 144.398 130.897C143.485 130.65 142.629 130.228 141.878 129.654C141.103 129.055 140.462 128.3 139.996 127.439C139.719 126.934 139.501 126.4 139.348 125.845C139.23 125.442 139.141 125.031 139.08 124.615C139.01 124.011 138.995 123.402 139.037 122.794C139.104 121.374 139.555 119.999 140.343 118.814C140.67 118.312 141.061 117.854 141.508 117.454C142.558 116.526 143.854 115.918 145.241 115.702C145.871 115.591 146.512 115.548 147.151 115.574C148.852 115.656 150.416 116.139 151.767 117.201C153.059 118.218 153.976 119.633 154.373 121.225C154.568 121.963 154.661 122.725 154.647 123.488C154.644 124.779 154.34 126.051 153.76 127.205C153.074 128.57 151.961 129.674 150.589 130.35C149.792 130.745 148.935 131.003 148.053 131.116C147.648 131.176 147.24 131.203 146.831 131.197ZM142.733 123.386C142.728 123.733 142.759 124.08 142.828 124.42C143.048 125.503 143.534 126.429 144.452 127.086C145.283 127.681 146.23 127.853 147.228 127.771C148.396 127.674 149.354 127.173 150.045 126.21C151.247 124.527 151.163 122.01 149.857 120.405C148.363 118.572 145.527 118.439 143.936 120.14C143.088 121.05 142.754 122.162 142.741 123.386H142.733Z" fill="#878787"/>
<path d="M53.5293 37.2407C53.042 37.5095 52.5797 37.8085 52.1433 38.1334C52.1124 38.1565 52.0808 38.1788 52.0501 38.2021C51.7643 38.4192 51.4906 38.6483 51.2282 38.8873C51.2092 38.9046 51.1899 38.9216 51.1711 38.939C51.1312 38.9758 51.092 39.0133 51.0527 39.0506C51.0193 39.0822 50.9856 39.1132 50.9526 39.1451C50.8418 39.2527 50.7336 39.3625 50.6274 39.4738C50.5998 39.5027 50.5724 39.5317 50.5451 39.5609C50.5186 39.5892 50.4924 39.618 50.4662 39.6466C50.4297 39.6864 50.3932 39.7261 50.3573 39.7663C50.2486 39.8882 50.1428 40.0121 50.0396 40.1378C50.0273 40.1528 50.015 40.1677 50.0028 40.1827C49.9644 40.23 49.9268 40.2779 49.8892 40.3256C49.8658 40.3553 49.8422 40.3849 49.8191 40.4148C49.7795 40.466 49.7401 40.5174 49.7014 40.5692C49.6895 40.5852 49.6779 40.6015 49.666 40.6175C49.6253 40.6726 49.5846 40.7278 49.5449 40.7835C49.523 40.8143 49.5019 40.8458 49.4803 40.8767C49.4531 40.9157 49.426 40.9546 49.3993 40.9938C49.3737 41.0314 49.3476 41.0688 49.3224 41.1067C49.2873 41.1596 49.2532 41.2132 49.219 41.2666C49.205 41.2884 49.1907 41.31 49.1768 41.3319C49.1388 41.3921 49.1015 41.4528 49.0646 41.5136C49.0533 41.5321 49.0424 41.5508 49.0312 41.5694C49.0003 41.6209 48.9695 41.6725 48.9394 41.7245C48.9126 41.7708 48.8866 41.8174 48.8604 41.864C48.8403 41.9 48.8203 41.936 48.8006 41.9722C48.7797 42.0104 48.7591 42.0488 48.7386 42.0872C48.7121 42.137 48.6855 42.1867 48.6597 42.2369C48.6464 42.2626 48.6333 42.2885 48.6203 42.3144C48.5911 42.3721 48.562 42.4298 48.5338 42.4879C48.5257 42.5048 48.5181 42.522 48.51 42.5389C48.4816 42.5983 48.4531 42.6575 48.4257 42.7172C48.3976 42.7784 48.3703 42.8399 48.3433 42.9016C48.3321 42.9273 48.3204 42.9527 48.3093 42.9785C48.2462 43.1255 48.1867 43.2741 48.1297 43.4235C48.1205 43.4475 48.1115 43.4715 48.1025 43.4956C48.0886 43.5327 48.0752 43.5699 48.0617 43.6072C48.0079 43.7554 47.9569 43.9046 47.9092 44.0549C47.8536 44.2303 47.802 44.407 47.7548 44.5849C47.6517 44.973 47.5699 45.3669 47.5078 45.7647C47.4969 45.8345 47.4854 45.9042 47.4758 45.9743C47.445 46.1995 47.4218 46.4259 47.4044 46.6533C47.4004 46.705 47.3961 46.7566 47.3928 46.8084C47.3896 46.8605 47.3872 46.9127 47.3847 46.9649C47.3827 47.005 47.3801 47.0452 47.3785 47.0853C47.376 47.1508 47.3751 47.2164 47.3738 47.282C47.3732 47.3101 47.3721 47.3382 47.3717 47.3663C47.3714 47.3879 47.3712 47.4094 47.3711 47.431V47.616C47.3712 47.6328 47.3715 47.6496 47.3717 47.6664C47.3724 47.7203 47.3737 47.7743 47.3751 47.8283C47.3761 47.8635 47.3772 47.8986 47.3785 47.9338C47.3809 47.9986 47.3839 48.0635 47.3874 48.1284C47.3889 48.1567 47.3904 48.1851 47.3921 48.2134C47.3958 48.2728 47.4005 48.3322 47.4051 48.3917C47.4088 48.4391 47.4124 48.4865 47.4166 48.5339C47.4206 48.5777 47.4251 48.6214 47.4296 48.6652C47.4343 48.7112 47.4393 48.7573 47.4445 48.8033C47.4506 48.8559 47.4568 48.9086 47.4636 48.9612C47.4694 49.0061 47.4749 49.051 47.4813 49.0959C47.488 49.1437 47.495 49.1916 47.5024 49.2395C47.5106 49.293 47.5199 49.3465 47.5289 49.4C47.5355 49.439 47.5423 49.4781 47.5493 49.5171C47.5591 49.5715 47.5693 49.6259 47.5799 49.6804C47.5891 49.7271 47.5988 49.7738 47.6085 49.8205C47.6156 49.8548 47.6228 49.889 47.6303 49.9233C47.6438 49.9852 47.6572 50.0472 47.6718 50.109C47.6818 50.1517 47.6925 50.1943 47.7031 50.2369C47.7153 50.2861 47.7276 50.3354 47.7405 50.3846C47.7541 50.4363 47.7684 50.488 47.7827 50.5397C47.7944 50.5821 47.8058 50.6246 47.8181 50.6669C47.8334 50.7198 47.8496 50.7726 47.8657 50.8255C47.8795 50.8706 47.8935 50.9158 47.9079 50.9609C47.9188 50.9951 47.93 51.0294 47.9412 51.0636C47.9618 51.1259 47.9822 51.1885 48.0038 51.2507C48.0155 51.2843 48.0278 51.3178 48.0399 51.3514C48.0608 51.4098 48.0826 51.468 48.1045 51.5263C48.1227 51.5744 48.1415 51.6224 48.1603 51.6705C48.1769 51.7129 48.1935 51.7554 48.2107 51.7977C48.2778 51.9633 48.3494 52.1281 48.425 52.2924C48.5211 52.5013 48.6233 52.7093 48.7332 52.9156C48.8403 53.1168 48.9531 53.3131 49.07 53.5055C49.0776 53.518 49.0848 53.5306 49.0925 53.5429C49.2125 53.7388 49.3377 53.9299 49.4673 54.1165V79.7408C49.4673 82.0495 51.339 83.9211 53.6477 83.9211H86.3304C86.419 84.0865 86.5101 84.2509 86.6053 84.4131C86.6901 84.5583 86.7781 84.701 86.8672 84.8424C86.9024 84.8983 86.9368 84.9545 86.9727 85.0098C87.0015 85.0541 87.0312 85.0978 87.0604 85.1418C87.0948 85.1935 87.1296 85.245 87.1645 85.2962C87.1927 85.3375 87.2211 85.3785 87.2496 85.4194C87.2882 85.4747 87.3267 85.53 87.3659 85.5847C87.3977 85.6289 87.4297 85.6729 87.4619 85.7167C87.4944 85.761 87.5275 85.8048 87.5605 85.8487C87.5993 85.9002 87.6382 85.9515 87.6776 86.0025C87.7064 86.0398 87.7355 86.077 87.7646 86.1141C87.8005 86.1595 87.8359 86.2052 87.8722 86.2501C87.9184 86.3075 87.966 86.3637 88.013 86.4202C88.0441 86.4576 88.0747 86.4954 88.1062 86.5325C88.1165 86.5446 88.1272 86.5565 88.1375 86.5686C88.2403 86.6889 88.345 86.8072 88.4512 86.9237C88.6341 87.1245 88.8213 87.3201 89.0139 87.5095C89.0602 87.5551 89.1071 87.6 89.154 87.6449C89.1831 87.6728 89.2125 87.7003 89.2418 87.7279C89.2977 87.7807 89.3538 87.8333 89.4105 87.8851C89.4381 87.9104 89.4657 87.9356 89.4935 87.9606C89.5479 88.0096 89.6025 88.0581 89.6575 88.1062C89.6842 88.1296 89.7109 88.1531 89.7378 88.1763C89.7959 88.2265 89.8545 88.2761 89.9133 88.3253C89.9386 88.3464 89.9642 88.367 89.9895 88.3879C90.0485 88.4366 90.1075 88.4851 90.1671 88.5328C90.1856 88.5477 90.2043 88.5623 90.2229 88.5771C90.2875 88.6283 90.3521 88.6794 90.4175 88.7295C90.4607 88.7626 90.5046 88.7948 90.5481 88.8275C90.8296 89.0384 91.1178 89.2391 91.4122 89.4296C91.438 89.4462 91.4633 89.4635 91.4891 89.48C91.5603 89.5254 91.6322 89.5697 91.7041 89.614C91.7213 89.6246 91.7386 89.6348 91.7558 89.6453C91.8311 89.6912 91.9064 89.7368 91.9824 89.7814C91.996 89.7893 92.0096 89.7972 92.0232 89.8052C92.538 90.1054 93.0694 90.3749 93.614 90.6142C93.6449 90.6278 93.6755 90.6423 93.7065 90.6557C93.895 90.737 94.0852 90.8144 94.2767 90.8884H48.0739C44.9956 90.8883 42.5001 88.3929 42.5001 85.3146V37.2407H53.5293ZM127.5 85.3146C127.5 88.3929 125.005 90.8883 121.927 90.8884H105.79C106.034 90.7927 106.277 90.691 106.518 90.5822L106.88 90.4128C106.993 90.3582 107.105 90.3017 107.216 90.2447C107.235 90.235 107.254 90.2253 107.273 90.2155C107.36 90.1706 107.446 90.125 107.531 90.0787C107.561 90.0628 107.59 90.0465 107.619 90.0304C107.689 89.9919 107.759 89.9528 107.828 89.9134C107.872 89.8884 107.915 89.8632 107.959 89.8378C108.034 89.794 108.109 89.7501 108.183 89.7052C108.223 89.6809 108.263 89.6563 108.303 89.6317C108.384 89.5815 108.465 89.5308 108.545 89.4793C108.578 89.4578 108.611 89.4357 108.644 89.414C108.701 89.3764 108.758 89.3385 108.815 89.3003C108.859 89.2703 108.904 89.2403 108.948 89.2098C109.006 89.17 109.063 89.1293 109.12 89.0887C109.157 89.0628 109.193 89.0374 109.23 89.0112C109.32 88.9456 109.41 88.8798 109.499 88.8125C109.515 88.8005 109.53 88.7878 109.546 88.7757C109.626 88.7146 109.706 88.6532 109.784 88.5907C109.805 88.5741 109.825 88.557 109.846 88.5403C109.909 88.4897 109.972 88.4388 110.034 88.3872C110.074 88.3543 110.113 88.3212 110.152 88.2879C110.194 88.2527 110.235 88.2173 110.276 88.1818C110.536 87.9569 110.787 87.7243 111.029 87.4844C111.057 87.4558 111.086 87.4268 111.114 87.398C111.169 87.3426 111.224 87.2874 111.278 87.2313C111.293 87.2158 111.308 87.1999 111.323 87.1843C111.573 86.9222 111.812 86.6521 112.041 86.3746C112.062 86.349 112.083 86.3235 112.104 86.2978C112.458 85.8637 112.784 85.4119 113.085 84.9451C113.098 84.9241 113.112 84.9029 113.125 84.8819C113.325 84.568 113.513 84.2478 113.688 83.9211H116.353C118.661 83.9211 120.533 82.0495 120.533 79.7408V44.2079H117.38C117.452 44.1509 117.522 44.0927 117.592 44.0344C117.64 43.9946 117.688 43.9544 117.735 43.914C117.783 43.8735 117.831 43.8333 117.877 43.7922C117.9 43.7724 117.922 43.7523 117.945 43.7324C118.008 43.6764 118.071 43.6199 118.133 43.5629C118.149 43.5477 118.166 43.5326 118.182 43.5174C118.203 43.498 118.224 43.4783 118.244 43.4588C118.352 43.3574 118.458 43.2543 118.563 43.1499C118.579 43.1331 118.596 43.1165 118.613 43.0996C118.729 42.9823 118.843 42.8632 118.955 42.7424C118.969 42.7264 118.983 42.7101 118.998 42.6941C119.093 42.5905 119.186 42.4858 119.277 42.3797C119.299 42.3547 119.32 42.33 119.342 42.3049C119.446 42.1825 119.547 42.0582 119.646 41.9327C119.659 41.9161 119.672 41.8997 119.685 41.883C119.895 41.616 120.094 41.3426 120.283 41.0625C120.292 41.0482 120.302 41.0339 120.311 41.0196C120.498 40.7397 120.674 40.4538 120.84 40.1623C120.847 40.1495 120.854 40.1364 120.861 40.1235C121.286 39.3687 121.639 38.5779 121.915 37.7612C121.92 37.747 121.924 37.7326 121.929 37.7184C121.982 37.56 122.033 37.4009 122.08 37.2407H127.5V85.3146ZM66.4554 37.8293C66.248 37.6886 66.0361 37.5549 65.8206 37.4272C65.7916 37.4099 65.7627 37.3924 65.7335 37.3754C65.6549 37.3297 65.5757 37.2848 65.4961 37.2407H68.1727L66.4554 37.8293Z" fill="#878787"/>
<path d="M57.0571 23.8483C57.0571 27.1837 58.2675 30.3217 60.3094 32.7206H42.5001V24.3599C42.5002 21.2817 44.9956 18.7861 48.0739 18.7861H57.0571V23.8483ZM87.7129 23.8483C87.7129 26.0491 88.2402 28.1638 89.1853 30.0371L81.3587 32.7206H77.9078C78.0889 32.117 78.1827 31.5024 78.1827 30.9101V28.5593C78.1825 25.8023 76.4308 24.0682 75.2284 23.2747C74.2678 22.6408 73.1459 22.2275 72.0067 22.0745V18.7861H87.7129V23.8483ZM121.927 18.7861C125.005 18.7861 127.5 21.2817 127.5 24.3599V32.7206H122.609C122.507 30.8208 121.998 28.9029 121.032 27.0794L121.031 27.0781C117.521 20.4605 109.441 17.8378 102.663 20.6089V18.7861H121.927Z" fill="#D51F36"/>
<path d="M71.9755 5.8877C76.4344 5.8877 80.049 9.69934 80.049 14.4012V16.5296H74.9209V15.4731C74.9209 13.2043 73.1769 11.3653 71.0254 11.3652C68.8739 11.3652 67.1299 13.2043 67.1299 15.4731V22.7762C67.13 25.045 68.8739 26.884 71.0254 26.884C72.0302 26.884 73.3053 27.5546 73.3053 28.5594V30.9102C73.3053 31.6828 72.7482 32.3616 71.9755 32.3616H70.0077C65.5488 32.3616 61.9342 28.5499 61.9342 23.848V14.4012C61.9342 9.69934 65.5488 5.8877 70.0077 5.8877H71.9755Z" fill="#878787"/>
<path d="M102.631 5.8877C107.09 5.8877 110.705 9.69934 110.705 14.4012V16.5296H105.577V15.4731C105.577 13.2043 103.833 11.3653 101.681 11.3652C99.5295 11.3652 97.7856 13.2043 97.7856 15.4731V22.7762C97.7856 25.045 99.5296 26.884 101.681 26.884C101.71 26.884 101.739 26.8837 101.767 26.8831C102.736 26.8609 103.961 27.5038 103.961 28.4732V30.9102C103.961 31.6828 103.404 32.3616 102.631 32.3616H100.663C96.2045 32.3616 92.5898 28.5499 92.5898 23.848V14.4012C92.5898 9.69934 96.2045 5.8877 100.663 5.8877H102.631Z" fill="#878787"/>
<path d="M116.723 29.3637C114.354 24.8977 108.643 23.1084 103.961 25.3654C102.783 25.9188 101.737 26.7194 100.893 27.7134C100.049 28.7073 99.4266 29.8715 99.0682 31.1276C99.0027 31.3605 98.8816 31.5739 98.7155 31.7492C98.5494 31.9245 98.3433 32.0564 98.1149 32.1335L65.3486 43.3647C64.2814 42.0442 62.802 41.1243 61.1498 40.7541C59.4976 40.3839 57.7695 40.5849 56.2451 41.3247C52.6621 43.052 51.2266 47.2222 53.0378 50.6231C54.8489 54.024 59.2226 55.4132 62.8029 53.6831C62.9895 53.593 63.1983 53.5597 63.4035 53.5873C63.6087 53.6148 63.8014 53.702 63.958 53.8381L89.0675 76.2105C89.1958 76.3224 89.2991 76.4604 89.3706 76.6153C89.4421 76.7702 89.4802 76.9386 89.4825 77.1093C89.4927 78.8107 89.9512 80.479 90.8114 81.9444C93.4833 86.5316 99.5392 88.3829 104.51 86.1372C109.882 83.7111 112.08 77.5545 109.405 72.5278C108.695 71.1963 107.698 70.0411 106.487 69.1465C106.315 69.0224 106.177 68.8558 106.088 68.6628C105.999 68.4699 105.96 68.257 105.976 68.0448L108.2 43.7254C108.24 43.3896 108.393 43.0776 108.634 42.8409C108.874 42.6043 109.188 42.4571 109.523 42.4237C110.565 42.2885 111.579 41.987 112.526 41.5304C117.213 39.2791 119.089 33.8269 116.723 29.3637ZM97.229 67.3855C96.7762 67.5044 96.3314 67.6522 95.8972 67.8279C95.6977 67.9094 95.4821 67.9429 95.2674 67.9258C95.0527 67.9086 94.845 67.8414 94.6608 67.7293L66.9046 50.5414C66.731 50.437 66.5962 50.2781 66.5213 50.0892C66.4463 49.9003 66.4352 49.6919 66.4897 49.496C66.7647 48.6102 66.8525 47.6764 66.7476 46.7544L100.176 39.5299C100.424 39.4797 100.681 39.4897 100.925 39.5593C101.169 39.6289 101.392 39.756 101.577 39.93C101.948 40.2782 102.346 40.5948 102.769 40.8767C103.003 41.0316 103.186 41.2534 103.293 41.5136C103.401 41.7738 103.428 42.0603 103.372 42.3363L98.1794 66.4359C98.1219 66.6661 98.003 66.8762 97.8355 67.0435C97.6681 67.2108 97.4583 67.3291 97.229 67.3855Z" fill="#D51F36"/>
</svg>
