<svg width="138" height="36" viewBox="0 0 138 36" fill="none" xmlns="http://www.w3.org/2000/svg">
<path d="M87.3683 27.1278C87.1544 27.1278 86.9896 27.0679 86.874 26.948C86.7583 26.8281 86.7005 26.6587 86.7005 26.4399V24.2231H87.0084V26.4219C87.0084 26.5598 87.0416 26.6662 87.1081 26.7411C87.1775 26.8161 87.2758 26.8535 87.403 26.8535C87.5388 26.8535 87.6516 26.8131 87.7412 26.7321L87.8496 26.9615C87.7889 27.0184 87.7152 27.0604 87.6284 27.0874C87.5446 27.1143 87.4579 27.1278 87.3683 27.1278ZM86.2929 25.01V24.7447H87.7022V25.01H86.2929Z" fill="#878787"/>
<path d="M84.8803 24.7222C85.0653 24.7222 85.2272 24.7596 85.3659 24.8346C85.5076 24.9065 85.6174 25.0174 85.6955 25.1673C85.7764 25.3172 85.8169 25.506 85.8169 25.7339V27.1053H85.509V25.7653C85.509 25.5165 85.4483 25.3292 85.3269 25.2033C85.2084 25.0744 85.0407 25.0099 84.8239 25.0099C84.662 25.0099 84.5204 25.0444 84.399 25.1134C84.2805 25.1793 84.188 25.2767 84.1215 25.4056C84.0579 25.5315 84.0261 25.6844 84.0261 25.8643V27.1053H83.7182V24.7446H84.0131V25.3921L83.9654 25.2707C84.0377 25.0999 84.1533 24.9665 84.3123 24.8705C84.4713 24.7716 84.6606 24.7222 84.8803 24.7222Z" fill="#878787"/>
<path d="M82.0683 27.1277C81.8313 27.1277 81.6231 27.0768 81.4439 26.9749C81.2647 26.8699 81.1245 26.7276 81.0233 26.5477C80.9221 26.3649 80.8716 26.1565 80.8716 25.9227C80.8716 25.6889 80.9193 25.4821 81.0146 25.3022C81.1129 25.1223 81.2459 24.9815 81.4136 24.8795C81.5841 24.7746 81.7749 24.7222 81.9859 24.7222C82.1998 24.7222 82.3892 24.7731 82.5539 24.875C82.7216 24.974 82.8531 25.1149 82.9485 25.2977C83.0439 25.4776 83.0916 25.6859 83.0916 25.9227C83.0916 25.9377 83.0902 25.9542 83.0873 25.9722C83.0873 25.9872 83.0873 26.0036 83.0873 26.0216H81.1057V25.7833H82.9225L82.8011 25.8777C82.8011 25.7069 82.765 25.5555 82.6927 25.4236C82.6233 25.2887 82.5279 25.1838 82.4065 25.1089C82.2851 25.0339 82.1449 24.9964 81.9859 24.9964C81.8298 24.9964 81.6896 25.0339 81.5653 25.1089C81.441 25.1838 81.3442 25.2887 81.2748 25.4236C81.2054 25.5585 81.1707 25.7129 81.1707 25.8867V25.9362C81.1707 26.1161 81.2083 26.2749 81.2835 26.4128C81.3615 26.5477 81.4685 26.6541 81.6043 26.7321C81.7431 26.807 81.9006 26.8445 82.077 26.8445C82.2157 26.8445 82.3444 26.819 82.4629 26.768C82.5843 26.7171 82.6884 26.6391 82.7751 26.5342L82.9485 26.7411C82.8473 26.867 82.7202 26.9629 82.5669 27.0288C82.4166 27.0948 82.2504 27.1277 82.0683 27.1277Z" fill="#878787"/>
<path d="M74.8736 27.1277C74.6366 27.1277 74.4284 27.0768 74.2492 26.9749C74.07 26.8699 73.9298 26.7276 73.8286 26.5477C73.7274 26.3649 73.6768 26.1565 73.6768 25.9227C73.6768 25.6889 73.7245 25.4821 73.8199 25.3022C73.9182 25.1223 74.0512 24.9815 74.2188 24.8795C74.3894 24.7746 74.5802 24.7222 74.7912 24.7222C75.0051 24.7222 75.1945 24.7731 75.3592 24.875C75.5269 24.974 75.6584 25.1149 75.7538 25.2977C75.8492 25.4776 75.8969 25.6859 75.8969 25.9227C75.8969 25.9377 75.8955 25.9542 75.8926 25.9722C75.8926 25.9872 75.8926 26.0036 75.8926 26.0216H73.911V25.7833H75.7278L75.6064 25.8777C75.6064 25.7069 75.5702 25.5555 75.498 25.4236C75.4286 25.2887 75.3332 25.1838 75.2118 25.1089C75.0904 25.0339 74.9502 24.9964 74.7912 24.9964C74.6351 24.9964 74.4949 25.0339 74.3706 25.1089C74.2463 25.1838 74.1495 25.2887 74.0801 25.4236C74.0107 25.5585 73.976 25.7129 73.976 25.8867V25.9362C73.976 26.1161 74.0136 26.2749 74.0888 26.4128C74.1668 26.5477 74.2738 26.6541 74.4096 26.7321C74.5484 26.807 74.7059 26.8445 74.8823 26.8445C75.021 26.8445 75.1497 26.819 75.2682 26.768C75.3896 26.7171 75.4936 26.6391 75.5804 26.5342L75.7538 26.7411C75.6526 26.867 75.5254 26.9629 75.3722 27.0288C75.2219 27.0948 75.0557 27.1277 74.8736 27.1277Z" fill="#878787"/>
<path d="M79.3473 24.7222C79.5323 24.7222 79.6928 24.7596 79.8286 24.8346C79.9674 24.9065 80.0744 25.0174 80.1495 25.1673C80.2276 25.3172 80.2666 25.506 80.2666 25.7339V27.1053H79.9587V25.7653C79.9587 25.5165 79.9009 25.3292 79.7853 25.2033C79.6725 25.0744 79.5121 25.0099 79.304 25.0099C79.1479 25.0099 79.012 25.0444 78.8964 25.1134C78.7837 25.1793 78.6955 25.2767 78.6319 25.4056C78.5712 25.5315 78.5408 25.6844 78.5408 25.8643V27.1053H78.233V25.7653C78.233 25.5165 78.1752 25.3292 78.0595 25.2033C77.9439 25.0744 77.782 25.0099 77.5739 25.0099C77.4207 25.0099 77.2863 25.0444 77.1707 25.1134C77.055 25.1793 76.9654 25.2767 76.9018 25.4056C76.8411 25.5315 76.8108 25.6844 76.8108 25.8643V27.1053H76.5029V24.7446H76.7977V25.3831L76.7501 25.2707C76.8194 25.0999 76.9307 24.9665 77.0839 24.8705C77.24 24.7716 77.4236 24.7222 77.6346 24.7222C77.8572 24.7222 78.0465 24.7806 78.2026 24.8975C78.3587 25.0114 78.4599 25.1838 78.5062 25.4146L78.3847 25.3652C78.4512 25.1733 78.5683 25.0189 78.736 24.902C78.9065 24.7821 79.1103 24.7222 79.3473 24.7222Z" fill="#878787"/>
<path d="M71.9305 28C71.7223 28 71.5229 27.9686 71.3321 27.9056C71.1413 27.8427 70.9866 27.7527 70.8681 27.6358L71.0242 27.393C71.1312 27.492 71.2627 27.5699 71.4188 27.6268C71.5778 27.6868 71.7455 27.7168 71.9218 27.7168C72.2109 27.7168 72.4233 27.6463 72.5592 27.5054C72.695 27.3676 72.763 27.1517 72.763 26.858V26.2689L72.8063 25.8643L72.776 25.4596V24.7446H73.0708V26.8175C73.0708 27.2252 72.974 27.5234 72.7803 27.7123C72.5895 27.9041 72.3062 28 71.9305 28ZM71.8741 27.0153C71.6573 27.0153 71.4622 26.9674 71.2887 26.8714C71.1153 26.7725 70.978 26.6361 70.8768 26.4623C70.7785 26.2884 70.7294 26.0891 70.7294 25.8643C70.7294 25.6394 70.7785 25.4416 70.8768 25.2707C70.978 25.0969 71.1153 24.962 71.2887 24.8661C71.4622 24.7701 71.6573 24.7222 71.8741 24.7222C72.0764 24.7222 72.2585 24.7656 72.4204 24.8526C72.5823 24.9395 72.7109 25.0684 72.8063 25.2393C72.9017 25.4101 72.9494 25.6185 72.9494 25.8643C72.9494 26.1101 72.9017 26.3184 72.8063 26.4893C72.7109 26.6601 72.5823 26.7905 72.4204 26.8804C72.2585 26.9704 72.0764 27.0153 71.8741 27.0153ZM71.9044 26.7321C72.0721 26.7321 72.221 26.6961 72.3511 26.6241C72.4811 26.5492 72.5838 26.4473 72.6589 26.3184C72.7341 26.1865 72.7716 26.0351 72.7716 25.8643C72.7716 25.6934 72.7341 25.5435 72.6589 25.4146C72.5838 25.2857 72.4811 25.1853 72.3511 25.1134C72.221 25.0384 72.0721 25.0009 71.9044 25.0009C71.7397 25.0009 71.5908 25.0384 71.4578 25.1134C71.3277 25.1853 71.2251 25.2857 71.15 25.4146C71.0777 25.5435 71.0416 25.6934 71.0416 25.8643C71.0416 26.0351 71.0777 26.1865 71.15 26.3184C71.2251 26.4473 71.3277 26.5492 71.4578 26.6241C71.5908 26.6961 71.7397 26.7321 71.9044 26.7321Z" fill="#878787"/>
<path d="M69.8281 27.1053V26.5837L69.8151 26.4982V25.6259C69.8151 25.4251 69.7602 25.2707 69.6503 25.1628C69.5434 25.0549 69.3829 25.0009 69.169 25.0009C69.0216 25.0009 68.8814 25.0264 68.7484 25.0774C68.6155 25.1283 68.5027 25.1958 68.4102 25.2797L68.2715 25.0414C68.3871 24.9395 68.5258 24.8616 68.6877 24.8076C68.8496 24.7506 69.0201 24.7222 69.1994 24.7222C69.4942 24.7222 69.7211 24.7986 69.8801 24.9515C70.042 25.1014 70.1229 25.3307 70.1229 25.6394V27.1053H69.8281ZM69.0433 27.1277C68.8727 27.1277 68.7239 27.0993 68.5967 27.0423C68.4724 26.9824 68.377 26.9014 68.3105 26.7995C68.244 26.6946 68.2108 26.5747 68.2108 26.4398C68.2108 26.3169 68.2382 26.206 68.2931 26.1071C68.351 26.0051 68.4435 25.9242 68.5706 25.8643C68.7007 25.8013 68.8742 25.7698 69.091 25.7698H69.8758V26.0081H69.0996C68.88 26.0081 68.7267 26.0486 68.64 26.1295C68.5562 26.2105 68.5143 26.3109 68.5143 26.4308C68.5143 26.5657 68.5649 26.6736 68.666 26.7545C68.7672 26.8355 68.9089 26.8759 69.091 26.8759C69.2644 26.8759 69.4133 26.8355 69.5376 26.7545C69.6648 26.6706 69.7573 26.5507 69.8151 26.3948L69.8845 26.6152C69.8267 26.771 69.7255 26.8954 69.5809 26.9884C69.4393 27.0813 69.2601 27.1277 69.0433 27.1277Z" fill="#878787"/>
<path d="M66.6334 24.7222C66.8184 24.7222 66.9803 24.7596 67.119 24.8346C67.2607 24.9065 67.3705 25.0174 67.4485 25.1673C67.5295 25.3172 67.57 25.506 67.57 25.7339V27.1053H67.2621V25.7653C67.2621 25.5165 67.2014 25.3292 67.08 25.2033C66.9615 25.0744 66.7938 25.0099 66.577 25.0099C66.4151 25.0099 66.2735 25.0444 66.1521 25.1134C66.0336 25.1793 65.9411 25.2767 65.8746 25.4056C65.811 25.5315 65.7792 25.6844 65.7792 25.8643V27.1053H65.4713V24.7446H65.7662V25.3921L65.7185 25.2707C65.7907 25.0999 65.9064 24.9665 66.0654 24.8705C66.2243 24.7716 66.4137 24.7222 66.6334 24.7222Z" fill="#878787"/>
<path d="M64.3404 27.1053V26.5837L64.3274 26.4982V25.6259C64.3274 25.4251 64.2724 25.2707 64.1626 25.1628C64.0556 25.0549 63.8952 25.0009 63.6813 25.0009C63.5339 25.0009 63.3937 25.0264 63.2607 25.0774C63.1277 25.1283 63.015 25.1958 62.9225 25.2797L62.7837 25.0414C62.8994 24.9395 63.0381 24.8616 63.2 24.8076C63.3619 24.7506 63.5324 24.7222 63.7116 24.7222C64.0065 24.7222 64.2334 24.7986 64.3924 24.9515C64.5543 25.1014 64.6352 25.3307 64.6352 25.6394V27.1053H64.3404ZM63.5555 27.1277C63.385 27.1277 63.2361 27.0993 63.1089 27.0423C62.9846 26.9824 62.8892 26.9014 62.8228 26.7995C62.7563 26.6946 62.723 26.5747 62.723 26.4398C62.723 26.3169 62.7505 26.206 62.8054 26.1071C62.8632 26.0051 62.9557 25.9242 63.0829 25.8643C63.213 25.8013 63.3864 25.7698 63.6032 25.7698H64.3881V26.0081H63.6119C63.3922 26.0081 63.239 26.0486 63.1523 26.1295C63.0685 26.2105 63.0265 26.3109 63.0265 26.4308C63.0265 26.5657 63.0771 26.6736 63.1783 26.7545C63.2795 26.8355 63.4211 26.8759 63.6032 26.8759C63.7767 26.8759 63.9256 26.8355 64.0499 26.7545C64.177 26.6706 64.2695 26.5507 64.3274 26.3948L64.3967 26.6152C64.3389 26.771 64.2377 26.8954 64.0932 26.9884C63.9516 27.0813 63.7723 27.1277 63.5555 27.1277Z" fill="#878787"/>
<path d="M61.1596 24.7222C61.3446 24.7222 61.505 24.7596 61.6409 24.8346C61.7796 24.9065 61.8866 25.0174 61.9617 25.1673C62.0398 25.3172 62.0788 25.506 62.0788 25.7339V27.1053H61.771V25.7653C61.771 25.5165 61.7131 25.3292 61.5975 25.2033C61.4848 25.0744 61.3243 25.0099 61.1162 25.0099C60.9601 25.0099 60.8242 25.0444 60.7086 25.1134C60.5959 25.1793 60.5077 25.2767 60.4441 25.4056C60.3834 25.5315 60.3531 25.6844 60.3531 25.8643V27.1053H60.0452V25.7653C60.0452 25.5165 59.9874 25.3292 59.8718 25.2033C59.7561 25.0744 59.5943 25.0099 59.3861 25.0099C59.2329 25.0099 59.0985 25.0444 58.9829 25.1134C58.8672 25.1793 58.7776 25.2767 58.714 25.4056C58.6533 25.5315 58.623 25.6844 58.623 25.8643V27.1053H58.3151V24.7446H58.61V25.3831L58.5623 25.2707C58.6317 25.0999 58.7429 24.9665 58.8962 24.8705C59.0523 24.7716 59.2358 24.7222 59.4468 24.7222C59.6694 24.7222 59.8588 24.7806 60.0149 24.8975C60.171 25.0114 60.2721 25.1838 60.3184 25.4146L60.197 25.3652C60.2635 25.1733 60.3805 25.0189 60.5482 24.902C60.7187 24.7821 60.9225 24.7222 61.1596 24.7222Z" fill="#878787"/>
<path d="M55.6746 27.1277C55.4867 27.1277 55.3089 27.1008 55.1412 27.0468C54.9736 26.9899 54.842 26.9194 54.7466 26.8355L54.8854 26.5837C54.9779 26.6556 55.0964 26.7186 55.241 26.7725C55.3855 26.8235 55.5372 26.849 55.6962 26.849C55.913 26.849 56.0691 26.8145 56.1645 26.7455C56.2599 26.6736 56.3076 26.5792 56.3076 26.4623C56.3076 26.3753 56.2802 26.3079 56.2252 26.2599C56.1732 26.209 56.1038 26.1715 56.0171 26.1475C55.9304 26.1205 55.8335 26.0981 55.7266 26.0801C55.6196 26.0621 55.5127 26.0411 55.4057 26.0171C55.3017 25.9932 55.2063 25.9587 55.1195 25.9137C55.0328 25.8658 54.962 25.8013 54.9071 25.7204C54.855 25.6394 54.829 25.5315 54.829 25.3966C54.829 25.2677 54.8637 25.1523 54.9331 25.0504C55.0025 24.9485 55.1036 24.8691 55.2366 24.8121C55.3725 24.7521 55.5372 24.7222 55.7309 24.7222C55.8784 24.7222 56.0258 24.7432 56.1732 24.7851C56.3206 24.8241 56.442 24.8765 56.5374 24.9425L56.403 25.1988C56.3018 25.1268 56.1934 25.0759 56.0778 25.0459C55.9622 25.0129 55.8466 24.9964 55.7309 24.9964C55.5257 24.9964 55.3739 25.0339 55.2756 25.1089C55.1802 25.1808 55.1325 25.2737 55.1325 25.3876C55.1325 25.4776 55.1586 25.548 55.2106 25.599C55.2655 25.6499 55.3363 25.6904 55.4231 25.7204C55.5127 25.7473 55.6095 25.7698 55.7136 25.7878C55.8205 25.8058 55.926 25.8283 56.0301 25.8553C56.1371 25.8792 56.2339 25.9137 56.3206 25.9587C56.4102 26.0006 56.4811 26.0621 56.5331 26.143C56.588 26.221 56.6155 26.3244 56.6155 26.4533C56.6155 26.5912 56.5779 26.7111 56.5027 26.813C56.4305 26.9119 56.3235 26.9899 56.1819 27.0468C56.0431 27.1008 55.874 27.1277 55.6746 27.1277Z" fill="#878787"/>
<path d="M53.5573 27.1277C53.3694 27.1277 53.1916 27.1008 53.024 27.0468C52.8563 26.9899 52.7248 26.9194 52.6294 26.8355L52.7681 26.5837C52.8607 26.6556 52.9792 26.7186 53.1237 26.7725C53.2682 26.8235 53.42 26.849 53.579 26.849C53.7958 26.849 53.9519 26.8145 54.0473 26.7455C54.1427 26.6736 54.1904 26.5792 54.1904 26.4623C54.1904 26.3753 54.1629 26.3079 54.108 26.2599C54.056 26.209 53.9866 26.1715 53.8999 26.1475C53.8131 26.1205 53.7163 26.0981 53.6093 26.0801C53.5024 26.0621 53.3954 26.0411 53.2885 26.0171C53.1844 25.9932 53.089 25.9587 53.0023 25.9137C52.9156 25.8658 52.8448 25.8013 52.7898 25.7204C52.7378 25.6394 52.7118 25.5315 52.7118 25.3966C52.7118 25.2677 52.7465 25.1523 52.8158 25.0504C52.8852 24.9485 52.9864 24.8691 53.1194 24.8121C53.2552 24.7521 53.42 24.7222 53.6137 24.7222C53.7611 24.7222 53.9085 24.7432 54.056 24.7851C54.2034 24.8241 54.3248 24.8765 54.4202 24.9425L54.2858 25.1988C54.1846 25.1268 54.0762 25.0759 53.9606 25.0459C53.8449 25.0129 53.7293 24.9964 53.6137 24.9964C53.4084 24.9964 53.2567 25.0339 53.1584 25.1089C53.063 25.1808 53.0153 25.2737 53.0153 25.3876C53.0153 25.4776 53.0413 25.548 53.0934 25.599C53.1483 25.6499 53.2191 25.6904 53.3058 25.7204C53.3954 25.7473 53.4923 25.7698 53.5963 25.7878C53.7033 25.8058 53.8088 25.8283 53.9129 25.8553C54.0198 25.8792 54.1167 25.9137 54.2034 25.9587C54.293 26.0006 54.3638 26.0621 54.4158 26.143C54.4708 26.221 54.4982 26.3244 54.4982 26.4533C54.4982 26.5912 54.4606 26.7111 54.3855 26.813C54.3132 26.9119 54.2063 26.9899 54.0646 27.0468C53.9259 27.1008 53.7568 27.1277 53.5573 27.1277Z" fill="#878787"/>
<path d="M51.2961 27.1277C51.059 27.1277 50.8509 27.0768 50.6717 26.9749C50.4924 26.8699 50.3522 26.7276 50.2511 26.5477C50.1499 26.3649 50.0993 26.1565 50.0993 25.9227C50.0993 25.6889 50.147 25.4821 50.2424 25.3022C50.3407 25.1223 50.4736 24.9815 50.6413 24.8795C50.8119 24.7746 51.0026 24.7222 51.2137 24.7222C51.4276 24.7222 51.6169 24.7731 51.7817 24.875C51.9493 24.974 52.0809 25.1149 52.1763 25.2977C52.2717 25.4776 52.3194 25.6859 52.3194 25.9227C52.3194 25.9377 52.3179 25.9542 52.315 25.9722C52.315 25.9872 52.315 26.0036 52.315 26.0216H50.3335V25.7833H52.1503L52.0288 25.8777C52.0288 25.7069 51.9927 25.5555 51.9204 25.4236C51.8511 25.2887 51.7557 25.1838 51.6343 25.1089C51.5129 25.0339 51.3727 24.9964 51.2137 24.9964C51.0576 24.9964 50.9174 25.0339 50.7931 25.1089C50.6688 25.1838 50.5719 25.2887 50.5026 25.4236C50.4332 25.5585 50.3985 25.7129 50.3985 25.8867V25.9362C50.3985 26.1161 50.4361 26.2749 50.5112 26.4128C50.5893 26.5477 50.6962 26.6541 50.8321 26.7321C50.9708 26.807 51.1284 26.8445 51.3047 26.8445C51.4435 26.8445 51.5721 26.819 51.6906 26.768C51.812 26.7171 51.9161 26.6391 52.0028 26.5342L52.1763 26.7411C52.0751 26.867 51.9479 26.9629 51.7947 27.0288C51.6444 27.0948 51.4782 27.1277 51.2961 27.1277Z" fill="#878787"/>
<path d="M48.561 24.7222C48.746 24.7222 48.9079 24.7596 49.0466 24.8346C49.1883 24.9065 49.2981 25.0174 49.3762 25.1673C49.4571 25.3172 49.4976 25.506 49.4976 25.7339V27.1053H49.1897V25.7653C49.1897 25.5165 49.129 25.3292 49.0076 25.2033C48.8891 25.0744 48.7214 25.0099 48.5046 25.0099C48.3427 25.0099 48.2011 25.0444 48.0797 25.1134C47.9612 25.1793 47.8687 25.2767 47.8022 25.4056C47.7386 25.5315 47.7068 25.6844 47.7068 25.8643V27.1053H47.3989V24.7446H47.6938V25.3921L47.6461 25.2707C47.7183 25.0999 47.834 24.9665 47.993 24.8705C48.152 24.7716 48.3413 24.7222 48.561 24.7222Z" fill="#878787"/>
<path d="M46.2344 27.1053V24.7446H46.5423V27.1053H46.2344ZM46.3905 24.2231C46.3269 24.2231 46.2734 24.2006 46.2301 24.1556C46.1867 24.1106 46.165 24.0567 46.165 23.9937C46.165 23.9308 46.1867 23.8783 46.2301 23.8364C46.2734 23.7914 46.3269 23.7689 46.3905 23.7689C46.4541 23.7689 46.5076 23.7899 46.5509 23.8319C46.5943 23.8738 46.616 23.9263 46.616 23.9892C46.616 24.0552 46.5943 24.1106 46.5509 24.1556C46.5105 24.2006 46.457 24.2231 46.3905 24.2231Z" fill="#878787"/>
<path d="M44.7286 27.1277C44.5407 27.1277 44.3629 27.1008 44.1952 27.0468C44.0276 26.9899 43.8961 26.9194 43.8007 26.8355L43.9394 26.5837C44.0319 26.6556 44.1504 26.7186 44.295 26.7725C44.4395 26.8235 44.5913 26.849 44.7503 26.849C44.9671 26.849 45.1232 26.8145 45.2185 26.7455C45.3139 26.6736 45.3616 26.5792 45.3616 26.4623C45.3616 26.3753 45.3342 26.3079 45.2792 26.2599C45.2272 26.209 45.1578 26.1715 45.0711 26.1475C44.9844 26.1205 44.8876 26.0981 44.7806 26.0801C44.6736 26.0621 44.5667 26.0411 44.4597 26.0171C44.3557 25.9932 44.2603 25.9587 44.1736 25.9137C44.0868 25.8658 44.016 25.8013 43.9611 25.7204C43.9091 25.6394 43.883 25.5315 43.883 25.3966C43.883 25.2677 43.9177 25.1523 43.9871 25.0504C44.0565 24.9485 44.1577 24.8691 44.2906 24.8121C44.4265 24.7521 44.5913 24.7222 44.7849 24.7222C44.9324 24.7222 45.0798 24.7432 45.2272 24.7851C45.3746 24.8241 45.4961 24.8765 45.5914 24.9425L45.457 25.1988C45.3559 25.1268 45.2475 25.0759 45.1318 25.0459C45.0162 25.0129 44.9006 24.9964 44.7849 24.9964C44.5797 24.9964 44.4279 25.0339 44.3297 25.1089C44.2343 25.1808 44.1866 25.2737 44.1866 25.3876C44.1866 25.4776 44.2126 25.548 44.2646 25.599C44.3195 25.6499 44.3904 25.6904 44.4771 25.7204C44.5667 25.7473 44.6635 25.7698 44.7676 25.7878C44.8746 25.8058 44.9801 25.8283 45.0841 25.8553C45.1911 25.8792 45.2879 25.9137 45.3746 25.9587C45.4643 26.0006 45.5351 26.0621 45.5871 26.143C45.642 26.221 45.6695 26.3244 45.6695 26.4533C45.6695 26.5912 45.6319 26.7111 45.5568 26.813C45.4845 26.9119 45.3775 26.9899 45.2359 27.0468C45.0971 27.1008 44.928 27.1277 44.7286 27.1277Z" fill="#878787"/>
<path d="M42.1449 27.1277C41.9512 27.1277 41.7821 27.0903 41.6375 27.0153C41.493 26.9404 41.3803 26.828 41.2993 26.6781C41.2213 26.5282 41.1823 26.3409 41.1823 26.116V24.7446H41.4901V26.0801C41.4901 26.3319 41.5494 26.5222 41.6679 26.6511C41.7893 26.777 41.9584 26.84 42.1752 26.84C42.3342 26.84 42.4715 26.807 42.5871 26.741C42.7056 26.6721 42.7953 26.5732 42.856 26.4443C42.9196 26.3154 42.9514 26.161 42.9514 25.9811V24.7446H43.2592V27.1052H42.9644V26.4578L43.0121 26.5747C42.9398 26.7485 42.8271 26.8849 42.6738 26.9838C42.5235 27.0798 42.3472 27.1277 42.1449 27.1277Z" fill="#878787"/>
<path d="M38 27.1052V23.9578H39.3095C39.6477 23.9578 39.9093 24.0282 40.0943 24.1691C40.2822 24.31 40.3762 24.5093 40.3762 24.7671C40.3762 24.938 40.3371 25.0819 40.2591 25.1988C40.1839 25.3157 40.0799 25.4041 39.9469 25.4641C39.8168 25.524 39.6737 25.554 39.5176 25.554L39.5913 25.4461C39.785 25.4461 39.9512 25.4775 40.09 25.5405C40.2316 25.6004 40.3415 25.6919 40.4195 25.8148C40.4976 25.9347 40.5366 26.0846 40.5366 26.2644C40.5366 26.5312 40.4412 26.738 40.2504 26.8849C40.0625 27.0318 39.7778 27.1052 39.3962 27.1052H38ZM38.3209 26.831H39.3919C39.6578 26.831 39.8616 26.7845 40.0033 26.6916C40.1449 26.5957 40.2157 26.4443 40.2157 26.2374C40.2157 26.0336 40.1449 25.8852 40.0033 25.7923C39.8616 25.6964 39.6578 25.6484 39.3919 25.6484H38.2862V25.3741H39.2878C39.5306 25.3741 39.7185 25.3262 39.8515 25.2302C39.9874 25.1343 40.0553 24.9919 40.0553 24.8031C40.0553 24.6112 39.9874 24.4689 39.8515 24.3759C39.7185 24.28 39.5306 24.232 39.2878 24.232H38.3209V26.831Z" fill="#878787"/>
<path d="M135.619 4C135.836 4.09382 136.072 4.0948 136.296 4.15668C136.882 4.31981 137.441 4.57899 137.954 4.92519C138.004 4.95812 138.01 4.9851 137.988 5.03401C137.672 5.7187 137.357 6.40304 137.043 7.08707C137.002 7.1769 136.963 7.15996 136.895 7.11504C136.542 6.86388 136.147 6.68741 135.732 6.59504C135.176 6.49024 134.656 6.54811 134.219 6.9683C133.991 7.1975 133.83 7.49245 133.755 7.81771C133.694 8.05681 133.66 8.30323 133.656 8.55126C133.656 8.67503 133.689 8.69798 133.797 8.69698C134.775 8.69698 135.753 8.69703 136.731 8.69104C136.884 8.69104 136.927 8.72892 136.925 8.8966C136.916 9.63619 136.916 10.3748 136.925 11.1144C136.925 11.2681 136.879 11.298 136.749 11.297C135.795 11.2921 134.842 11.297 133.889 11.297C133.659 11.297 133.659 11.297 133.659 11.5366C133.659 14.5828 133.659 17.6289 133.659 20.6751C133.659 20.8268 133.63 20.8747 133.483 20.8697C132.684 20.8611 131.884 20.8611 131.083 20.8697C130.943 20.8697 130.898 20.8378 130.898 20.6791C130.898 17.617 130.898 14.5548 130.906 11.4967C130.906 11.329 130.861 11.297 130.721 11.297C130.133 11.306 129.545 11.297 128.959 11.303C128.866 11.303 128.833 11.2841 128.833 11.1743C128.838 10.3924 128.838 9.61091 128.833 8.82974C128.833 8.72294 128.862 8.69798 128.958 8.69898C129.556 8.69898 130.153 8.69901 130.751 8.704C130.869 8.704 130.912 8.68103 130.909 8.5423C130.897 7.95666 130.986 7.37376 131.17 6.82259C131.353 6.24331 131.654 5.71516 132.05 5.27652C132.7 4.56987 133.484 4.21259 134.375 4.06686C134.443 4.05589 134.521 4.06683 134.578 4.00595L135.619 4Z" fill="#878787"/>
<path d="M107.857 4C108.854 4.01974 109.836 4.13922 110.779 4.50444C111.524 4.7789 112.202 5.22756 112.761 5.81727C113.123 6.20837 113.423 6.65907 113.648 7.15184C113.692 7.25055 113.658 7.26239 113.595 7.29595C113.085 7.57234 112.576 7.85004 112.066 8.12906L111.426 8.47754C111.374 8.50616 111.327 8.54464 111.279 8.45975C110.992 7.95633 110.562 7.62368 110.085 7.35321C109.618 7.08798 109.11 6.91156 108.586 6.832C108.233 6.77194 107.875 6.75309 107.519 6.77575C106.855 6.82609 106.205 6.93467 105.636 7.34531C105.125 7.71449 104.874 8.22482 104.919 8.87927C104.956 9.38862 105.247 9.72325 105.65 9.96509C106.07 10.2138 106.531 10.3362 106.996 10.4349C107.613 10.5652 108.243 10.6185 108.863 10.7242C109.943 10.9088 111.009 11.1476 111.985 11.7024C112.916 12.2285 113.588 12.9856 113.906 14.0714C114.027 14.5057 114.097 14.9544 114.114 15.407C114.16 16.1369 114.053 16.8685 113.803 17.55C113.476 18.4176 112.913 19.08 112.181 19.5874C111.499 20.0433 110.745 20.3647 109.956 20.536C109.614 20.6179 109.267 20.6673 108.922 20.7206C108.666 20.76 108.402 20.7314 108.144 20.762C107.772 20.8064 107.408 20.762 107.043 20.7482C106.662 20.7279 106.283 20.6791 105.909 20.6021C105.402 20.5089 104.905 20.362 104.426 20.1638C103.872 19.9341 103.357 19.6104 102.901 19.2054C102.311 18.6901 101.895 18.0425 101.538 17.3427C101.465 17.1995 101.417 17.0416 101.352 16.8916C101.316 16.8067 101.329 16.7613 101.419 16.7149C101.753 16.5412 102.08 16.3556 102.41 16.173C102.83 15.9391 103.247 15.7061 103.671 15.4692C103.746 15.4267 103.795 15.4089 103.836 15.5165C104.224 16.5421 104.953 17.1818 105.903 17.5727C106.459 17.7965 107.048 17.9167 107.642 17.928C108.316 17.9488 108.981 17.9063 109.625 17.6773C110.055 17.5422 110.442 17.2836 110.742 16.9301C111.009 16.6131 111.16 16.2057 111.168 15.7811C111.176 15.3685 111.097 15.0013 110.847 14.6755C110.669 14.4475 110.447 14.2621 110.196 14.1316C109.664 13.8503 109.09 13.668 108.5 13.5927C108.017 13.5266 107.538 13.4367 107.055 13.3726C106.494 13.3 105.94 13.1782 105.399 13.0083C104.763 12.8109 104.143 12.5572 103.589 12.1476C102.982 11.7113 102.516 11.0885 102.253 10.3629C102.143 10.0416 102.07 9.70759 102.035 9.36786C101.991 8.97468 101.984 8.57798 102.013 8.18333C102.038 7.83839 102.113 7.49958 102.235 7.17849C102.376 6.79534 102.568 6.43539 102.804 6.10945C103.122 5.68114 103.513 5.32017 103.957 5.04538C104.862 4.46496 105.855 4.18263 106.898 4.06912C107.216 4.02788 107.536 4.00479 107.857 4Z" fill="#878787"/>
<path d="M122.225 20.7776C121.642 20.8 121.06 20.7214 120.5 20.545C119.852 20.3538 119.245 20.0266 118.713 19.5818C118.163 19.1169 117.709 18.532 117.378 17.8644C117.182 17.4733 117.028 17.0588 116.919 16.629C116.836 16.3164 116.772 15.9979 116.729 15.6757C116.679 15.2072 116.669 14.7347 116.698 14.2642C116.746 13.1634 117.066 12.0972 117.624 11.1787C117.856 10.7893 118.134 10.4348 118.451 10.1245C119.195 9.40483 120.114 8.93348 121.097 8.76637C121.544 8.68005 121.998 8.64686 122.452 8.66739C123.657 8.73074 124.767 9.10489 125.725 9.92847C126.64 10.7164 127.29 11.8135 127.572 13.0476C127.711 13.6198 127.776 14.21 127.767 14.8017C127.764 15.8023 127.549 16.7888 127.137 17.6832C126.651 18.741 125.862 19.597 124.889 20.1213C124.324 20.4269 123.716 20.6276 123.091 20.7152C122.804 20.7616 122.515 20.7824 122.225 20.7776ZM119.319 14.7225C119.315 14.9916 119.338 15.2604 119.387 15.5243C119.543 16.3637 119.887 17.0814 120.538 17.5912C121.127 18.0524 121.799 18.1851 122.506 18.1217C123.334 18.0465 124.013 17.6585 124.504 16.9121C125.356 15.6075 125.296 13.6564 124.37 12.4121C123.311 10.9906 121.3 10.8877 120.172 12.2062C119.571 12.912 119.334 13.7742 119.325 14.7225H119.319Z" fill="#878787"/>
<path d="M55.7073 4C55.9106 4.08783 56.1347 4.10439 56.3342 4.21467C56.5655 4.33303 56.763 4.51119 56.9077 4.73182C57.0524 4.95244 57.1392 5.20799 57.1597 5.47355C57.2183 5.98589 57.1143 6.44943 56.7871 6.83978C56.5529 7.11409 56.2344 7.29703 55.8851 7.35798C55.6428 7.41504 55.3914 7.41746 55.148 7.36508C54.9047 7.31271 54.6752 7.20678 54.4752 7.0545C54.1776 6.82292 53.9751 6.48434 53.9079 6.10592C53.8455 5.83614 53.8455 5.55501 53.9079 5.28523C54.0554 4.6997 54.3901 4.27032 54.9821 4.09759C55.104 4.06148 55.2364 4.06538 55.3508 4H55.7073Z" fill="#D51F36"/>
<path d="M71.5108 4C71.6885 4.08783 71.889 4.09756 72.0677 4.19027C72.3069 4.30532 72.5127 4.48297 72.6648 4.70551C72.817 4.92806 72.91 5.18778 72.9348 5.45892C72.9925 5.84366 72.926 6.2373 72.7457 6.57923C72.6377 6.78141 72.4872 6.95607 72.3053 7.09033C72.1233 7.22459 71.9145 7.31506 71.6942 7.35508C71.0805 7.48877 70.5189 7.36776 70.0688 6.88958C69.8337 6.64581 69.6923 6.32229 69.6707 5.97907C69.6452 5.60726 69.6509 5.24425 69.8192 4.89879C70.0433 4.43719 70.4083 4.18148 70.8829 4.06633C70.9529 4.04974 71.0333 4.06634 71.09 4.00291L71.5108 4Z" fill="#D51F36"/>
<path d="M38 12.2813C38 9.60932 38 6.93733 38 4.26536C38 4.1141 38.0369 4.07798 38.1825 4.07895C39.477 4.08481 40.7714 4.07895 42.0659 4.07895C42.4441 4.07895 42.8223 4.04678 43.2006 4.08972C43.89 4.16223 44.5591 4.37305 45.1702 4.71037C45.5766 4.9365 45.9474 5.22508 46.2699 5.56622C46.8983 6.21629 47.3052 7.0595 47.4291 7.96886C47.534 8.75654 47.4071 9.55856 47.0651 10.271C47.0178 10.3744 47.0017 10.4154 47.1417 10.4271C48.1485 10.4981 49.1063 10.9026 49.8724 11.5806C50.734 12.3199 51.312 13.3521 51.5026 14.4917C51.7645 16.0101 51.4477 17.4017 50.5078 18.6167C49.8075 19.5414 48.803 20.1688 47.6844 20.3801C47.4766 20.4243 47.2657 20.4513 47.0537 20.4611C44.4582 20.5509 41.8617 20.4738 39.2661 20.4992C38.8983 20.4992 38.5305 20.4933 38.1626 20.4992C38.0378 20.4992 38.0057 20.466 38.0057 20.3362C38.0038 17.6545 38.0019 14.9695 38 12.2813ZM44.0024 13.4826C43.0758 13.4826 42.1491 13.4826 41.2225 13.4826C41.1137 13.4826 41.0778 13.5041 41.0787 13.6251C41.0838 14.8209 41.0838 16.0163 41.0787 17.2115C41.0787 17.3344 41.1156 17.3549 41.2234 17.3539C42.2011 17.3539 43.1779 17.3471 44.1546 17.3539C45.0151 17.3598 45.8746 17.3471 46.7351 17.3676C47.6655 17.3891 48.5099 16.5078 48.542 15.5241C48.5548 15.2603 48.5152 14.9966 48.4258 14.7491C48.3363 14.5016 48.1989 14.2756 48.0218 14.0848C47.8448 13.8941 47.6319 13.7426 47.3962 13.6397C47.1604 13.5368 46.9068 13.4847 46.6509 13.4865C45.7649 13.4787 44.8837 13.4826 44.0024 13.4826ZM41.0816 9.08527C41.0816 9.68739 41.0816 10.2905 41.0816 10.8936C41.0816 10.9853 41.092 11.0341 41.2017 11.0321C41.8361 11.0233 42.4706 11.038 43.1051 11.0165C44.1168 10.9824 44.9603 9.96065 44.8477 8.92816C44.7314 7.86347 43.9655 7.15007 42.9245 7.14227C42.3571 7.14227 41.7964 7.14227 41.2329 7.14227C41.1175 7.14227 41.0787 7.16765 41.0806 7.29451C41.0854 7.8898 41.0816 8.48705 41.0816 9.08527Z" fill="#D51F36"/>
<path d="M97.2501 18.8985C97.5632 19.0638 97.8618 19.2567 98.1427 19.4752C98.8718 20.0369 99.3602 20.8696 99.5043 21.7968C99.6724 22.7559 99.5898 23.7439 99.2651 24.6591C98.8963 25.6955 98.2335 26.482 97.3295 27.0627C96.6367 27.4921 95.8672 27.7732 95.0668 27.8893C94.4921 27.9754 93.9098 27.9954 93.3308 27.9488C92.2087 27.8944 91.1237 27.5175 90.1981 26.8607C89.5163 26.3755 88.9732 25.7102 88.6257 24.9343C88.418 24.4848 88.2851 24.0025 88.2323 23.5076C88.2106 23.2938 88.1718 23.083 88.1661 22.8683C88.1661 22.7785 88.1926 22.7542 88.2777 22.7542C89.1331 22.7542 89.9892 22.7542 90.8458 22.7542C90.9688 22.7542 90.9697 22.8215 90.9726 22.9103C90.9836 23.1943 91.0487 23.4733 91.1642 23.7314C91.2797 23.9894 91.4434 24.2214 91.6458 24.4142C92.0394 24.8012 92.5311 25.0651 93.0641 25.1753C93.7652 25.3487 94.5002 25.3053 95.1774 25.0504C95.8715 24.7811 96.4114 24.3293 96.6544 23.5866C96.7656 23.2489 96.8028 22.8899 96.7631 22.5356C96.7323 22.1607 96.6014 21.8019 96.3849 21.4992C96.1276 21.1579 95.7883 20.8921 95.4006 20.7282C94.8824 20.5087 94.3257 20.403 93.7657 20.4179C93.1801 20.4205 92.5966 20.343 92.0306 20.1876C91.2799 19.9947 90.5817 19.6276 89.9892 19.1141C89.4615 18.6482 89.0388 18.0691 88.7505 17.4171C88.5411 16.9402 88.3899 16.4383 88.3004 15.923C88.1986 15.2987 88.1668 14.6644 88.2058 14.0327C88.2437 13.1728 88.47 12.333 88.8677 11.5764C89.0556 11.2235 89.2773 10.891 89.5296 10.5839C90.0063 9.99836 90.6014 9.52769 91.2732 9.205C91.8414 8.93242 92.4477 8.75422 93.0698 8.67703C93.5982 8.60615 94.1328 8.59766 94.6631 8.65168C95.2678 8.69678 95.8547 8.88332 96.3793 9.19718C96.4738 9.25281 96.5154 9.24989 96.5854 9.1562C96.9088 8.72681 97.2473 8.30913 97.5707 7.87779C97.6312 7.79776 97.651 7.82705 97.7021 7.86706C98.3366 8.36184 98.9701 8.85758 99.6083 9.34747C99.6906 9.40993 99.6764 9.45382 99.6263 9.51921C99.2783 9.97299 98.9342 10.4287 98.5862 10.8854C98.4434 11.0689 98.4339 11.0679 98.5758 11.2494C99.0854 11.8964 99.4206 12.6706 99.5478 13.494C99.6488 14.1176 99.6558 14.7536 99.5686 15.3794C99.4988 15.9194 99.3516 16.4456 99.1318 16.9408C98.831 17.6336 98.3423 18.2216 97.7248 18.634C97.572 18.7321 97.4134 18.8204 97.2501 18.8985ZM90.9754 14.5411C90.9754 14.6289 90.9754 14.7178 90.9754 14.8056C91.0595 16.4578 92.1224 17.6444 93.639 17.7684C94.7397 17.8572 95.6606 17.4756 96.2951 16.5241C96.939 15.5531 97.0062 14.4747 96.6818 13.3739C96.3575 12.2731 95.6219 11.5374 94.507 11.3149C93.3922 11.0924 92.4372 11.4017 91.6921 12.2995C91.1598 12.9397 90.9697 13.7116 90.9754 14.5411Z" fill="#D51F36"/>
<path d="M75.1625 14.5437C75.1625 12.6203 75.1625 10.6968 75.1625 8.77335C75.1625 8.62209 75.2003 8.58503 75.345 8.58699C76.0702 8.59479 76.7955 8.59382 77.5198 8.58699C77.6408 8.58699 77.6729 8.62698 77.6833 8.74409C77.7278 9.23691 77.7836 9.72877 77.8318 10.2216C77.8403 10.3192 77.8583 10.3035 77.9263 10.2635C78.0776 10.1767 78.1779 10.0322 78.3046 9.92001C78.9665 9.32472 79.7229 8.89728 80.5852 8.71869C81.6214 8.49073 82.7016 8.62641 83.6545 9.10419C84.4432 9.5009 85.0987 10.1325 85.5362 10.9174C85.9049 11.572 86.1497 12.293 86.2576 13.0419C86.3256 13.4762 86.3591 13.9155 86.3579 14.3554C86.3579 16.3417 86.3579 18.3276 86.3579 20.3132C86.3579 20.442 86.339 20.4888 86.1971 20.4879C85.3776 20.4801 84.5582 20.4801 83.7387 20.4879C83.5959 20.4879 83.5496 20.4566 83.5496 20.3025C83.5496 18.3009 83.5609 16.3013 83.5496 14.2978C83.5496 13.6215 83.4125 12.9667 83.0267 12.3948C82.846 12.1135 82.6116 11.8732 82.3378 11.6887C82.064 11.5041 81.7566 11.3791 81.4344 11.3214C80.7592 11.1916 80.1106 11.2462 79.5064 11.5849C78.7669 11.9977 78.3197 12.6583 78.0786 13.4742C77.9799 13.837 77.9341 14.2129 77.9424 14.5896C77.9424 16.4916 77.9424 18.3956 77.9424 20.2976C77.9424 20.4479 77.9065 20.4869 77.7599 20.4859C76.9448 20.4781 76.1291 20.4781 75.3128 20.4859C75.1899 20.4859 75.1634 20.4479 75.1644 20.3288C75.165 18.4011 75.1644 16.4727 75.1625 14.5437Z" fill="#D51F36"/>
<path d="M62.2291 12.2671C62.2291 14.9391 62.2291 17.611 62.2291 20.283C62.2291 20.5074 62.2622 20.4869 62.0249 20.4879C61.2136 20.4879 60.4033 20.4879 59.592 20.4879C59.4794 20.4879 59.4492 20.4586 59.4492 20.3406C59.4492 15.2614 59.4492 10.1823 59.4492 5.1031C59.4426 5.05836 59.4535 5.01275 59.4793 4.97621C59.5052 4.93966 59.544 4.91513 59.5872 4.90792C60.4184 4.62882 61.2495 4.3497 62.0778 4.06084C62.2197 4.01204 62.232 4.05206 62.232 4.18282C62.2288 6.87561 62.2279 9.57039 62.2291 12.2671Z" fill="#D51F36"/>
<path d="M67.4579 12.2508C67.4579 14.9325 67.4579 17.6146 67.4579 20.2969C67.4579 20.4443 67.4258 20.4921 67.2783 20.4921C66.4588 20.4843 65.6393 20.4843 64.8198 20.4921C64.7044 20.4921 64.6789 20.458 64.6789 20.3438C64.6789 15.2653 64.6789 10.1868 64.6789 5.10826C64.6727 5.06313 64.684 5.01726 64.7104 4.9807C64.7368 4.94414 64.7761 4.91984 64.8198 4.91309C65.65 4.63398 66.4811 4.35586 67.3095 4.067C67.4551 4.01626 67.4626 4.06698 67.4626 4.18994C67.4582 6.87753 67.4567 9.56447 67.4579 12.2508Z" fill="#D51F36"/>
<path d="M72.707 14.5268C72.707 16.4512 72.707 18.375 72.707 20.2981C72.707 20.4455 72.6758 20.4933 72.5274 20.4885C71.701 20.4807 70.8745 20.4826 70.0491 20.4885C69.9403 20.4885 69.9034 20.468 69.9034 20.346C69.9072 16.7795 69.9072 13.2129 69.9034 9.64638C69.8968 9.60709 69.9054 9.56663 69.9273 9.53378C69.9492 9.50093 69.9827 9.47828 70.0207 9.47069C70.8622 9.19094 71.7028 8.90862 72.5425 8.62366C72.7061 8.56901 72.707 8.56898 72.707 8.74269V14.5287V14.5268Z" fill="#D51F36"/>
<path d="M56.9251 14.5269C56.9251 16.4543 56.9251 18.3827 56.9251 20.311C56.9251 20.4584 56.8826 20.4886 56.7493 20.4877C55.9329 20.4831 55.1172 20.4831 54.3022 20.4877C54.1726 20.4877 54.1234 20.4662 54.1234 20.314C54.1279 16.765 54.1279 13.2154 54.1234 9.66511C54.1166 9.61793 54.1281 9.56984 54.1553 9.53131C54.1826 9.49277 54.2234 9.4669 54.2691 9.45921C55.1049 9.18206 55.9392 8.89969 56.772 8.61213C56.8977 8.56919 56.9232 8.59065 56.9223 8.72435C56.9229 10.6598 56.9239 12.594 56.9251 14.5269Z" fill="#D51F36"/>
<path d="M24.9786 0H9.19803C6.56139 0 4.42398 2.3035 4.42398 5.14501V22.1518C4.42398 24.9934 6.56139 27.2969 9.19803 27.2969H24.9786C27.6153 27.2969 29.7527 24.9934 29.7527 22.1518V5.14501C29.7527 2.3035 27.6153 0 24.9786 0Z" fill="url(#paint0_radial_602_87)"/>
<path d="M25.4572 18.8495C25.4575 21.0881 24.6545 23.2352 23.2246 24.8192C21.7946 26.4031 19.8548 27.2943 17.8313 27.2968H9.14038C8.52043 27.2969 7.91118 27.2271 7.3384 26.9647C6.76562 26.7023 6.24517 26.3177 5.80677 25.8327C5.36838 25.3478 5.02062 24.7721 4.78336 24.1385C4.54609 23.5049 4.42398 22.8258 4.42398 22.14V5.15019C4.42413 3.80346 4.9078 2.51194 5.76861 1.55966C6.62941 0.607385 7.78163 0.000172801 8.999 0C10.0321 0 11.0698 0 12.1023 0C13.2673 0.000873446 14.4278 0.349729 15.4736 0.917452C16.5195 1.48518 17.4341 2.30998 18.1475 3.32878C18.861 4.34759 19.3544 5.5334 19.5899 6.79553C19.8255 8.05766 19.797 9.36268 19.5067 10.6108C21.1961 11.034 22.7053 12.0799 23.7866 13.577C24.8678 15.0741 25.4569 16.9333 25.4572 18.8495Z" fill="url(#paint1_linear_602_87)"/>
<path d="M17.7769 13.6235H12.8352C14.0064 13.4124 15.0624 12.7232 15.7928 11.6931C16.5233 10.663 16.8747 9.36766 16.777 8.06506C16.6793 6.76247 16.1397 5.5482 15.2657 4.66409C14.3916 3.77999 13.2473 3.29093 12.0605 3.29433H12.0523H7.29663V21.8723C7.29663 22.151 7.34648 22.427 7.44334 22.6845C7.54021 22.942 7.68218 23.1759 7.86115 23.373C8.04013 23.5701 8.2526 23.7264 8.48642 23.833C8.72025 23.9396 8.97085 23.9944 9.22392 23.9943C12.0675 23.9943 14.9119 23.9943 17.7549 23.9943C19.0067 23.9943 20.2344 23.472 21.1195 22.4972C22.0046 21.5224 22.5018 20.2002 22.5018 18.8216C22.5018 17.443 22.0046 16.1208 21.1195 15.146C20.2344 14.1712 19.0286 13.6235 17.7769 13.6235Z" fill="url(#paint2_radial_602_87)"/>
<path d="M20.6926 18.8262C20.6926 19.6782 20.3855 20.4952 19.8387 21.0979C19.292 21.7006 18.5503 22.0043 17.7768 22.005H9.12643V15.6104H17.7768C18.5473 15.6165 19.3038 15.9582 19.8464 16.5607C20.389 17.1632 20.6932 17.9776 20.6926 18.8262Z" fill="url(#paint3_radial_602_87)"/>
<path d="M12.0717 5.28308H9.12643V11.7213L12.0498 11.7116C12.8238 11.7144 13.567 11.3786 14.1161 10.7778C14.6652 10.1771 14.9751 9.36078 14.9777 8.50839C14.9803 7.656 14.6753 6.8374 14.1299 6.23266C13.5845 5.62791 12.8433 5.28658 12.0693 5.28373L12.0717 5.28308Z" fill="url(#paint4_radial_602_87)"/>
<path d="M9.70237 7.87622C9.70283 8.4073 9.634 8.93566 9.49804 9.44482C11.5259 8.23304 13.7579 7.50129 16.0532 7.29575C15.0549 5.93896 13.7972 4.84591 12.3713 4.09587C10.9454 3.34583 9.38711 2.95761 7.80935 2.95936C7.54839 2.95936 7.28981 2.96969 7.03361 2.99036C7.8384 3.45566 8.5128 4.15726 8.98337 5.01876C9.45394 5.88026 9.70264 6.86862 9.70237 7.87622Z" fill="white"/>
<path d="M28.1515 11.9587C25.9311 9.74222 23.2165 8.22684 20.2901 7.57022C19.7971 7.4594 19.2964 7.37343 18.7879 7.31231C18.5285 7.28064 18.267 7.2558 18.0033 7.23777C17.6568 7.21402 17.3077 7.20215 16.9561 7.20215H16.7553C16.3318 7.2226 15.9279 7.2437 15.5329 7.27603L15.5085 7.23447C13.2417 7.44849 11.0383 8.17559 9.03412 9.37101L9.02342 9.41256C9.00026 9.49897 8.97531 9.58473 8.94858 9.66916C8.17315 10.5285 7.55816 11.5494 7.13892 12.6733C6.71967 13.7973 6.50442 15.0021 6.50553 16.2186C6.50553 16.4293 6.51167 16.6379 6.52394 16.8446C6.56862 17.5891 6.69427 18.3249 6.89815 19.0359C6.96468 19.2668 7.03892 19.4934 7.12089 19.716C7.45424 20.6231 7.91539 21.4657 8.48706 22.212C8.82219 23.0101 9.32913 23.7042 9.96311 24.2331C10.0621 24.869 10.1732 25.5005 10.2963 26.1276C10.7948 28.6757 11.4894 31.1717 12.3723 33.588C12.64 34.3223 12.9245 35.0479 13.2259 35.7647C13.2128 35.4837 13.2021 35.2021 13.1938 34.9197C13.1938 34.9072 13.1938 34.8953 13.1938 34.8828C12.5497 32.2697 12.6303 29.5017 13.4251 26.9402C14.2199 24.3788 15.6918 22.1432 17.6487 20.5253C16.6348 21.3049 15.5283 21.9242 14.361 22.3657C14.0378 22.4884 13.7094 22.5983 13.3755 22.6955C13.3755 22.6955 12.5232 23.0029 11.884 23.0207C11.3629 23.0108 10.8599 22.806 10.4565 22.4394C10.0531 22.0728 9.77286 21.5658 9.66104 21.0004C9.54921 20.435 9.61237 19.8443 9.84029 19.3237C10.0682 18.8031 10.4476 18.3831 10.917 18.1315L10.9473 18.1164L10.9865 18.0966L11.0293 18.0755C11.7458 17.7276 12.5078 17.5091 13.2864 17.4284C13.3577 17.4284 13.4296 17.4284 13.5009 17.4284C13.6791 17.4284 13.862 17.4284 14.0414 17.4383C14.5439 17.4572 15.0389 17.5012 15.5264 17.5702C15.9683 17.6513 17.1901 17.8954 17.5798 18.0128C17.8987 18.1058 18.5735 18.2536 19.1556 18.464L19.4455 18.5629C20.6186 18.933 21.721 18.8815 22.4593 18.4238C22.6488 18.2608 22.8329 18.088 23.0117 17.9092C23.0698 17.8285 23.1213 17.7422 23.1656 17.6513C23.4145 17.1428 23.4281 16.5366 23.2469 15.9086C23.2416 15.8888 23.2469 15.8809 23.2469 15.8809C23.323 15.7641 24.0263 15.683 24.306 15.5933C25.1817 15.431 26.0112 15.044 26.7284 14.4629C27.4456 13.8818 28.0307 13.1228 28.4372 12.2463L28.1515 11.9587Z" fill="url(#paint5_linear_602_87)"/>
<path opacity="0.13" d="M22.2265 13.2938C21.1858 12.7832 20.1475 12.2522 19.0285 11.9956C17.8791 11.7318 16.6662 11.8386 15.515 12.0431C14.4494 12.2331 13.4397 12.5814 12.4323 13.0029C12.0524 13.1557 11.6812 13.3342 11.3209 13.5372C11.1552 13.6298 10.9955 13.7349 10.8428 13.8518V16.5325H22.328V13.3439L22.2265 13.2938Z" fill="white"/>
<path d="M9.85565 24.1381C9.89129 24.1697 9.92693 24.204 9.96316 24.2311C10.0622 24.8669 10.1732 25.4984 10.2964 26.1255C10.7949 28.6737 11.4894 31.1697 12.3724 33.5859C12.64 34.3203 12.9246 35.0459 13.2259 35.7627C13.2128 35.4817 13.2022 35.2 13.1938 34.9177C13.1938 34.9052 13.1938 34.8933 13.1938 34.8808C12.7498 33.0778 12.6482 31.1919 12.8956 29.343C13.1429 27.4941 13.7338 25.7225 14.6307 24.1407L9.85565 24.1381Z" fill="url(#paint6_linear_602_87)"/>
<path d="M22.4493 18.4323C22.647 18.2628 22.8389 18.0821 23.0248 17.896C23.0791 17.819 23.1276 17.7372 23.1698 17.6513C23.4174 17.1447 23.4323 16.5405 23.2523 15.9145V15.9086L23.2565 15.8736C23.3159 15.8077 23.5867 15.7489 23.8505 15.6962C23.5303 15.7212 23.1377 15.747 22.8734 15.747C20.6499 15.7514 18.4639 15.1121 16.5308 13.8921L16.3205 13.7397C15.2505 13.1048 14.0268 12.8626 12.8251 13.0477C11.6234 13.2328 10.5053 13.8357 9.63126 14.7701C8.75718 15.7044 8.17199 16.9222 7.95961 18.2487C7.74723 19.5752 7.91858 20.9423 8.44907 22.1539C8.46273 22.1731 8.47698 22.1915 8.49124 22.21C8.623 22.5236 8.78216 22.8221 8.96642 23.1012C9.24838 23.5309 9.58629 23.9117 9.96907 24.2311L9.97976 24.2971C11.0043 25.23 12.2888 25.7387 13.6137 25.7364C13.7017 25.7364 13.7919 25.7364 13.8757 25.7291C13.9351 25.5827 13.9874 25.4653 14.0028 25.4283C14.0361 25.3545 14.1139 25.1856 14.1477 25.1097C14.9944 23.3204 16.192 21.765 17.6522 20.5583L17.6558 20.5167C16.6418 21.2965 15.5351 21.9159 14.3675 22.3571C14.0452 22.4798 13.7167 22.5897 13.3821 22.6869C13.3821 22.6869 12.5303 22.9943 11.8912 23.0121C11.37 23.0024 10.8669 22.7977 10.4634 22.4311C10.0599 22.0646 9.77958 21.5576 9.66768 20.9921C9.55578 20.4267 9.61888 19.8359 9.84679 19.3152C10.0747 18.7946 10.4541 18.3745 10.9236 18.123L10.9545 18.1078L10.9937 18.088L11.0365 18.0669C11.753 17.7189 12.515 17.5004 13.2936 17.4198H13.5074C13.6888 17.4198 13.8692 17.4231 14.0485 17.4297C14.5511 17.4486 15.047 17.4926 15.5365 17.5616C15.979 17.6427 17.1901 17.8954 17.5839 18.0128L17.7027 18.0458C18.0514 18.1394 18.6418 18.2773 19.1586 18.464L19.449 18.5629C20.615 18.931 21.7109 18.8848 22.4493 18.4323Z" fill="url(#paint7_linear_602_87)"/>
<path opacity="0.53" d="M22.4493 18.4323C22.647 18.2628 22.8389 18.0821 23.0248 17.896C23.0791 17.819 23.1276 17.7372 23.1698 17.6513C23.4174 17.1447 23.4323 16.5405 23.2523 15.9145V15.9086L23.2565 15.8736C23.3159 15.8077 23.5867 15.7489 23.8505 15.6962C23.5303 15.7212 23.1377 15.747 22.8734 15.747C20.6499 15.7514 18.4639 15.1121 16.5308 13.8921L16.3205 13.7397C15.2505 13.1048 14.0268 12.8626 12.8251 13.0477C11.6234 13.2328 10.5053 13.8357 9.63126 14.7701C8.75718 15.7044 8.17199 16.9222 7.95961 18.2487C7.74723 19.5752 7.91858 20.9423 8.44907 22.1539C8.46273 22.1731 8.47698 22.1915 8.49124 22.21C8.623 22.5236 8.78216 22.8221 8.96642 23.1012C9.24838 23.5309 9.58629 23.9117 9.96907 24.2311L9.97976 24.2971C11.0043 25.23 12.2888 25.7387 13.6137 25.7364C13.7017 25.7364 13.7919 25.7364 13.8757 25.7291C13.9351 25.5827 13.9874 25.4653 14.0028 25.4283C14.0361 25.3545 14.1139 25.1856 14.1477 25.1097C14.9944 23.3204 16.192 21.765 17.6522 20.5583L17.6558 20.5167C16.6418 21.2965 15.5351 21.9159 14.3675 22.3571C14.0452 22.4798 13.7167 22.5897 13.3821 22.6869C13.3821 22.6869 12.5303 22.9943 11.8912 23.0121C11.37 23.0024 10.8669 22.7977 10.4634 22.4311C10.0599 22.0646 9.77958 21.5576 9.66768 20.9921C9.55578 20.4267 9.61888 19.8359 9.84679 19.3152C10.0747 18.7946 10.4541 18.3745 10.9236 18.123L10.9545 18.1078L10.9937 18.088L11.0365 18.0669C11.753 17.7189 12.515 17.5004 13.2936 17.4198H13.5074C13.6888 17.4198 13.8692 17.4231 14.0485 17.4297C14.5511 17.4486 15.047 17.4926 15.5365 17.5616C15.979 17.6427 17.1901 17.8954 17.5839 18.0128L17.7027 18.0458C18.0514 18.1394 18.6418 18.2773 19.1586 18.464L19.449 18.5629C20.615 18.931 21.7109 18.8848 22.4493 18.4323Z" fill="url(#paint8_radial_602_87)"/>
<path d="M29.3917 16.7806C29.6412 17.0062 30.0142 17.0854 30.0831 16.9423C30.2019 16.6962 29.9762 16.563 29.9762 16.563C27.2153 14.4011 23.8925 13.3033 20.5164 13.4376C20.5164 13.4376 20.0412 13.433 20.1345 13.7088C20.2277 13.9845 21.8689 14.1632 21.8689 14.1632C21.8689 14.1632 23.996 14.1843 25.611 14.7398C27.2261 15.2952 28.8447 16.2859 29.3917 16.7806Z" fill="#CCCCCC"/>
<path d="M29.8419 17.004C27.0807 14.842 23.7575 13.7442 20.381 13.8789C21.7847 14.1697 23.1663 14.5801 24.5133 15.1064C24.7984 15.2172 25.0808 15.3331 25.3603 15.454" fill="url(#paint9_linear_602_87)"/>
<path d="M9.19924 7.87622C9.19912 8.4074 9.12969 8.93575 8.99313 9.44482C11.021 8.23304 13.253 7.50129 15.5483 7.29575C14.5502 5.93922 13.2928 4.84632 11.8672 4.0963C10.4417 3.34627 8.88368 2.9579 7.30622 2.95935C7.17594 2.95935 7.04685 2.96199 6.91894 2.96727C6.89424 2.96748 6.87026 2.97659 6.85062 2.99324C6.83098 3.00988 6.81673 3.03316 6.81003 3.05958C6.80334 3.08599 6.80454 3.1141 6.81347 3.13968C6.8224 3.16527 6.83857 3.18694 6.85955 3.20144C7.57532 3.69539 8.16583 4.38392 8.57523 5.20192C8.98464 6.01992 9.19941 6.94036 9.19924 7.87622Z" fill="url(#paint10_linear_602_87)"/>
<path d="M17.8358 14.6255C18.2219 14.8062 18.6167 14.9665 19.0202 15.1063C20.257 15.5322 21.5446 15.7481 22.8395 15.7468C22.906 15.7468 22.9815 15.7468 23.0617 15.7422C23.6741 16.1881 23.1027 16.9183 22.7296 17.2593C21.2904 18.3714 18.8747 17.5099 17.5863 16.3358C17.5863 16.3358 16.9407 15.6591 17.3161 15.0338C17.4455 14.8394 17.6276 14.6963 17.8358 14.6255Z" fill="url(#paint11_linear_602_87)"/>
<path opacity="0.63" d="M17.9475 16.2706L18.7108 15.7489L19.123 16.9645L19.9468 16.2733L20.4036 17.3676L21.2388 16.4441L21.8921 17.26L22.4974 16.0068L22.8847 16.4026C22.8847 16.4026 22.8686 15.8683 23.0498 15.7509C23.1009 15.7179 23.2161 15.8828 23.2595 15.9521C23.5101 16.3914 23.048 16.9652 22.7302 17.2548C21.291 18.3669 18.8753 17.5054 17.5869 16.3313C17.5869 16.3313 17.0815 15.8037 17.2258 15.2456L17.7865 15.1685L17.9475 16.2706Z" fill="white"/>
<g opacity="0.63">
<path d="M19.0238 15.1071C20.0837 15.4722 21.1819 15.6828 22.2907 15.7337L21.8909 16.5595L21.2376 15.7436L20.4024 16.6671L19.9456 15.5721L19.1218 16.2634L18.7096 15.0477L17.9463 15.5695L17.8043 14.6078C18.2019 14.796 18.6084 14.9624 19.0238 15.1071Z" fill="white"/>
</g>
<path d="M20.1731 11.5344C19.9966 11.093 19.7386 10.6977 19.4157 10.3741C19.0929 10.0505 18.7125 9.80582 18.2991 9.65588" fill="url(#paint12_linear_602_87)"/>
<path opacity="0.25" d="M28.1515 11.9587C27.2656 11.0764 26.2979 10.3009 25.2647 9.64539C25.4162 9.79446 26.6861 10.9726 26.7265 11.5583C26.7669 12.1441 21.9206 11.1968 19.0695 12.4158C16.2183 13.6348 26.9908 13.9185 26.9231 14.1098C26.8869 14.2106 26.845 14.3089 26.7978 14.4039C27.4829 13.8303 28.0428 13.0926 28.436 12.2456L28.1515 11.9587Z" fill="white"/>
<path d="M19.0647 15.107C18.1865 14.8038 17.3404 14.3964 16.5408 13.892C17.5877 12.8373 18.9508 12.2536 20.3643 12.2548C20.41 12.2548 20.4558 12.2548 20.5009 12.2548C20.7924 12.265 21.0817 12.3151 21.3622 12.4038C21.7039 12.5089 22.051 12.5969 22.4034 12.6677C24.3991 13.08 26.4542 12.9654 28.4027 12.3333C27.9919 13.1876 27.41 13.9258 26.7018 14.491C25.9936 15.0562 25.178 15.4332 24.3178 15.5931C24.2086 15.6274 24.0357 15.6591 23.8599 15.696C23.5397 15.7211 23.1471 15.7468 22.8828 15.7468C21.5883 15.7483 20.3011 15.5326 19.0647 15.107Z" fill="url(#paint13_linear_602_87)"/>
<path opacity="0.51" d="M17.6979 14.1123C18.2039 14.2897 18.7198 14.4301 19.2423 14.5325C20.9492 14.8617 22.6966 14.8326 24.3939 14.4468C25.7541 14.14 27.0668 13.5787 28.2126 12.712C28.2815 12.59 28.3463 12.4653 28.4081 12.338C26.4596 12.9701 24.4045 13.0847 22.4088 12.6724C22.0568 12.5999 21.7097 12.5119 21.3676 12.4086C21.0871 12.3199 20.7978 12.2698 20.5063 12.2595C20.4612 12.2595 20.4154 12.2595 20.3697 12.2595C19.0475 12.2586 17.7663 12.7691 16.7464 13.7034C17.0321 13.8953 17.3867 14.0035 17.6979 14.1123Z" fill="url(#paint14_radial_602_87)"/>
<path opacity="0.4" d="M22.2514 15.2291C21.2079 15.1784 20.1712 15.0165 19.1556 14.7456C18.6656 14.6183 18.1809 14.4692 17.7027 14.2931C17.3327 14.1566 16.9662 14.0042 16.652 13.745C16.6009 13.7931 16.5498 13.842 16.4999 13.8921C18.4329 15.1121 20.619 15.7513 22.8424 15.7469C23.1068 15.7469 23.4994 15.7212 23.8201 15.6961C23.9983 15.6611 24.1682 15.6301 24.2775 15.5932C24.9467 15.4702 25.5905 15.2146 26.1783 14.8386C24.8899 15.1557 23.57 15.2869 22.2514 15.2291Z" fill="url(#paint15_linear_602_87)"/>
<path opacity="0.36" d="M21.2078 18.4889C20.0383 18.3827 18.9507 17.921 17.8506 17.4995C16.6508 17.0378 15.4254 16.5919 14.1507 16.4916C13.0976 16.4092 11.953 16.5279 11.0377 17.1644C10.6074 17.4638 10.2555 17.8835 10.0172 18.3814C9.83484 18.7626 9.68753 19.223 9.71485 19.6643C9.81096 19.3307 9.96714 19.0222 10.1739 18.7577C10.3807 18.4931 10.6337 18.278 10.9177 18.1255L10.9486 18.1103L10.9878 18.0905L11.0305 18.0694C11.747 17.7214 12.509 17.503 13.2877 17.4223H13.5015C13.6829 17.4223 13.8632 17.4256 14.0426 17.4322C14.5451 17.4511 15.0411 17.4951 15.5305 17.5641C15.9731 17.6453 17.1901 17.8953 17.5839 18.0127L17.7027 18.0456C18.0514 18.1393 18.6418 18.2772 19.1586 18.4638L19.4491 18.5628C20.6032 18.9269 21.6902 18.8827 22.4279 18.4447C22.024 18.511 21.6147 18.5258 21.2078 18.4889Z" fill="url(#paint16_linear_602_87)"/>
<path opacity="0.43" d="M19.5779 16.5832L19.1229 16.9645L18.9127 16.3497C18.7043 16.2593 18.5033 16.1489 18.3121 16.0199L17.9456 16.2706L17.8512 15.6308C17.7298 15.5041 17.6218 15.3625 17.5293 15.2086L17.3279 15.2363C17.3766 15.917 17.8767 16.3715 18.3899 16.663C18.9905 17.004 19.6937 17.2178 20.359 17.3266L20.3857 17.3305L20.1238 16.7026C19.9486 16.6729 19.7638 16.634 19.5779 16.5832Z" fill="white"/>
<path opacity="0.43" d="M20.9619 16.7502L20.4315 17.3372C20.9147 17.4161 21.4073 17.3842 21.879 17.2436L21.443 16.6987C21.2836 16.7254 21.123 16.7426 20.9619 16.7502Z" fill="white"/>
<g opacity="0.18">
<path d="M18.3062 15.2627L18.3591 15.2891L18.7107 15.049L18.8717 15.5239C18.9429 15.5536 19.0142 15.5819 19.0867 15.6096C19.2799 15.6822 19.4753 15.7468 19.6729 15.8035L19.9468 15.5733L20.0875 15.9097C20.3133 15.9618 20.5413 16.0034 20.77 16.0344L20.9542 16.0588L21.2387 15.7435L21.5392 16.1188C21.7222 16.134 21.9057 16.1446 22.0893 16.1492L22.2906 15.7336C21.1818 15.6827 20.0837 15.4721 19.0237 15.107C18.6083 14.9632 18.2022 14.7972 17.8055 14.609L17.8577 14.9599C17.9718 15.1063 18.15 15.1842 18.3062 15.2627Z" fill="url(#paint17_linear_602_87)"/>
<path d="M20.5658 16.458C20.4755 16.4441 20.3875 16.4283 20.2965 16.4117L20.4035 16.6689L20.5908 16.4613L20.5658 16.458Z" fill="url(#paint18_linear_602_87)"/>
<path d="M19.0581 16.0741L19.1229 16.265L19.2643 16.1461C19.1953 16.123 19.1264 16.0992 19.0581 16.0741Z" fill="url(#paint19_linear_602_87)"/>
</g>
<path opacity="0.36" d="M11.8383 16.3782C11.5906 16.2832 11.3287 16.1803 11.1303 15.9923H7.58423V17.2014C8.13545 17.9045 9.24204 17.9836 9.98511 17.6908C10.4882 17.4929 10.9355 17.1466 11.4065 16.8689L12.0646 16.4765V16.4553C11.9886 16.429 11.9132 16.4046 11.8383 16.3782Z" fill="url(#paint20_linear_602_87)"/>
<path opacity="0.15" d="M12.5113 7.88617C12.5315 7.21269 12.1852 6.65002 11.7391 6.20873C11.1998 5.68711 10.5773 5.28237 9.90372 5.01546C9.38933 4.8057 8.82445 4.64673 8.26907 4.66718C8.70912 5.34989 9.00307 6.13511 9.12855 6.96305C9.25402 7.79099 9.20771 8.63981 8.99314 9.44487C10.1088 8.77868 11.2891 8.25574 12.5113 7.88617Z" fill="url(#paint21_linear_602_87)"/>
<path d="M15.4414 22.144C14.0865 22.8182 12.6354 23.1652 11.1588 23.2905C9.70232 23.2714 8.93489 21.7555 8.76501 21.1909C8.7274 21.0647 8.69413 20.94 8.66523 20.8169C8.59951 20.6097 8.54458 20.3985 8.50069 20.1843C8.33558 19.4172 8.27551 18.6269 8.3225 17.84C8.35125 17.3541 8.40639 16.8706 8.48763 16.3921C8.06855 17.2783 7.84294 18.2615 7.82901 19.2624C7.81508 20.2633 8.01322 21.2538 8.40744 22.1539L8.44961 22.21C8.5816 22.5235 8.74074 22.8219 8.9248 23.1012L8.95865 23.1506C9.06171 23.3036 9.17195 23.4505 9.28891 23.5906L9.29247 23.5952C9.32989 23.6394 9.36791 23.6836 9.40652 23.7272L9.42196 23.743C9.457 23.7826 9.49265 23.8208 9.52947 23.8591L9.56214 23.8921C9.59362 23.9237 9.6251 23.958 9.65718 23.987C9.67678 24.0068 9.69757 24.0253 9.71658 24.0444C9.73558 24.0636 9.7635 24.0893 9.78786 24.1104C9.833 24.1513 9.87933 24.1909 9.92566 24.2298L9.93635 24.2958C10.961 25.2286 12.2454 25.7373 13.5703 25.7351C13.6582 25.7351 13.7456 25.7351 13.8329 25.7278C13.8923 25.5814 13.944 25.464 13.9594 25.427L13.9701 25.4026L13.9832 25.3749L13.9867 25.367C14.0028 25.3314 14.0212 25.2905 14.0396 25.2509L14.1049 25.1084C14.7719 23.6986 15.6583 22.431 16.7232 21.3644C16.315 21.6612 15.8864 21.9219 15.4414 22.144Z" fill="url(#paint22_linear_602_87)"/>
<path d="M13.1938 34.9138C13.1938 34.9013 13.1938 34.8894 13.1938 34.8769C12.4553 31.8758 12.6727 28.6836 13.8092 25.84C12.5469 25.5471 11.3875 24.8215 10.4056 23.898C9.35784 22.9145 8.4639 21.6685 7.90199 20.2734C7.27296 18.7114 7.07041 16.9257 7.11615 15.2272C7.13898 13.9991 7.30571 12.7795 7.61213 11.5992C7.51768 11.7813 7.42799 11.968 7.34483 12.1579C6.79026 13.4208 6.50298 14.8077 6.50494 16.2127C6.50494 16.4233 6.51108 16.632 6.52335 16.8387C6.56804 17.5832 6.69368 18.319 6.89756 19.03C6.96409 19.2608 7.03834 19.4875 7.12031 19.71C7.45365 20.6172 7.9148 21.4598 8.48647 22.2061C8.8216 23.0041 9.32854 23.6983 9.96252 24.2272C10.0615 24.8631 10.1726 25.4945 10.2957 26.1216C10.7942 28.6698 11.4888 31.1658 12.3717 33.582C12.6394 34.3164 12.9239 35.042 13.2253 35.7588C13.2122 35.4778 13.2015 35.1961 13.1932 34.9138H13.1938Z" fill="url(#paint23_linear_602_87)"/>
<path d="M11.5764 16.2092C11.8775 16.0833 12.2541 16.1433 12.2779 16.3003C12.3188 16.5753 12.0676 16.6222 12.0676 16.6222C8.82967 17.6933 5.3649 17.5571 2.20331 16.2343C2.20331 16.2343 1.75366 16.0714 1.91879 15.8425C2.08392 15.6136 3.69361 16.0259 3.69361 16.0259C3.69361 16.0259 5.71316 16.7587 7.40779 16.8049C9.10243 16.851 10.9159 16.4836 11.5764 16.2092Z" fill="#CCCCCC"/>
<path d="M11.9422 16.0801C10.598 15.2661 7.37449 16.0392 7.37449 16.0392C7.07512 16.0546 6.77437 16.0645 6.47223 16.0689C5.04441 16.0909 3.61719 15.9905 2.20327 15.7687C5.36487 17.0915 8.82963 17.2277 12.0676 16.1566L11.9422 16.0801Z" fill="url(#paint24_linear_602_87)"/>
<path d="M19.8512 11.138C19.7032 11.2941 19.5078 11.3827 19.3038 11.3864C19.0997 11.39 18.9019 11.3084 18.7495 11.1576C18.5971 11.0069 18.5013 10.7981 18.481 10.5726C18.4607 10.3471 18.5175 10.1214 18.64 9.94019C19.132 10.2135 19.5499 10.6269 19.8512 11.138Z" fill="#CCCCCC"/>
<path d="M19.7442 10.9804C19.6707 11.0424 19.5789 11.0716 19.487 11.0623C19.3951 11.053 19.3096 11.0059 19.2473 10.9303C19.1851 10.8546 19.1505 10.7558 19.1505 10.6533C19.1504 10.5508 19.1849 10.452 19.247 10.3762C19.4577 10.5256 19.6292 10.734 19.7442 10.9804Z" fill="#3B2B29"/>
<path opacity="0.43" d="M23.2684 15.8861C23.1583 15.9722 23.0441 16.0517 22.9263 16.1242C22.9176 16.2063 22.9141 16.289 22.9156 16.3716L22.7659 16.2179C22.6156 16.301 22.4609 16.374 22.3026 16.4362L21.9313 17.204C22.1372 17.1368 22.3351 17.0429 22.5212 16.9243C22.8397 16.7164 23.1233 16.4485 23.3593 16.1328C23.3512 16.0576 23.3279 15.9854 23.291 15.9217C23.285 15.9099 23.2773 15.8986 23.2684 15.8861Z" fill="white"/>
<path opacity="0.11" d="M20.2379 11.4441C20.1189 11.1562 19.9798 10.879 19.8221 10.615C19.5933 10.2369 19.3202 9.89417 19.0101 9.5959C18.7357 9.33206 18.3425 9.00952 17.9552 9.08603C17.7954 9.20344 17.8566 9.40593 18.3009 9.65592C19.2151 9.98902 19.7859 10.6697 20.1749 11.5345C20.1779 11.5453 20.1815 11.5558 20.1856 11.5661H20.1951L20.2337 11.5265C20.2337 11.4969 20.2355 11.4718 20.2379 11.4441Z" fill="white"/>
<path d="M9.70237 7.87622C9.70283 8.4073 9.634 8.93566 9.49804 9.44482C11.5259 8.23304 13.7579 7.50129 16.0532 7.29575C15.0549 5.93896 13.7972 4.84591 12.3713 4.09587C10.9454 3.34583 9.38711 2.95761 7.80935 2.95936C7.54839 2.95936 7.28981 2.96969 7.03361 2.99036C7.8384 3.45566 8.5128 4.15726 8.98337 5.01876C9.45394 5.88026 9.70264 6.86862 9.70237 7.87622Z" fill="white"/>
<path d="M20.2901 7.57022C19.7971 7.4594 19.2964 7.37343 18.7879 7.31231C18.1878 7.23904 17.5754 7.20215 16.9561 7.20215C16.4833 7.20215 16.012 7.25513 15.5409 7.29368C13.2057 7.48884 11.0019 8.24202 8.99766 9.43744C8.22222 10.2968 7.55816 11.5494 7.13892 12.6733C6.71967 13.7973 6.50442 15.0021 6.50553 16.2186C6.50553 16.4293 6.51167 16.6379 6.52394 16.8446C6.56862 17.5891 6.69427 18.3249 6.89815 19.0359C6.96468 19.2668 7.03892 19.4934 7.12089 19.716C7.68771 21.2585 8.7395 23.2123 9.96311 24.2331C10.0621 24.869 10.1732 25.5005 10.2963 26.1276C10.7948 28.6757 11.4894 31.1717 12.3723 33.588C12.64 34.3223 12.9245 35.0479 13.2259 35.7647C13.2128 35.4837 13.2021 35.1651 13.1938 34.8828C13.1938 34.8953 13.1938 34.8703 13.1938 34.8828C12.5497 32.2697 12.6303 29.5017 13.4251 26.9402C14.2199 24.3788 15.6918 22.1432 17.6487 20.5253C16.6348 21.3049 15.5283 21.9242 14.361 22.3657C14.0378 22.4884 13.7094 22.5983 13.3755 22.6955C13.3755 22.6955 12.5232 23.0029 11.884 23.0207C11.3629 23.0108 10.8599 22.806 10.4565 22.4394C10.0531 22.0728 9.77286 21.5658 9.66104 21.0004C9.54921 20.435 9.61237 19.8443 9.84029 19.3237C10.0682 18.8031 10.4476 18.3831 10.917 18.1315C11.666 17.7564 12.4654 17.5135 13.2864 17.4284C13.3577 17.4284 13.4296 17.4284 13.5009 17.4284C13.6791 17.4284 13.862 17.4284 14.0414 17.4383C14.5439 17.4572 15.0389 17.5011 15.5264 17.5702C15.9683 17.6513 17.1901 17.8954 17.5798 18.0128C17.8987 18.1058 18.5735 18.2536 19.1556 18.464L19.4455 18.5629C20.6186 18.933 21.721 18.8815 22.4593 18.4238C22.7211 18.1987 23.0062 17.9781 23.1656 17.6513C23.4145 17.1427 23.4281 16.5366 23.2469 15.9086C23.2416 15.8888 23.2469 15.8809 23.2469 15.8809C23.323 15.7641 24.0263 15.683 24.306 15.5933C25.1817 15.431 26.0112 15.044 26.7284 14.4629C27.4456 13.8818 28.0307 13.1228 28.4372 12.2463C26.1316 9.92551 23.3755 8.26251 20.2901 7.57022Z" fill="url(#paint25_linear_602_87)"/>
<path opacity="0.13" d="M22.2265 13.2938C21.1858 12.7832 20.1475 12.2522 19.0285 11.9956C17.8791 11.7318 16.6662 11.8386 15.515 12.0431C14.4494 12.2331 13.4397 12.5814 12.4323 13.0029C12.0524 13.1557 11.6812 13.3342 11.3209 13.5372C11.1552 13.6298 10.9955 13.7349 10.8428 13.8518V16.5325H22.328V13.3439L22.2265 13.2938Z" fill="white"/>
<path d="M9.85565 24.1381C9.89129 24.1697 9.92693 24.204 9.96316 24.2311C10.0622 24.8669 10.1732 25.4984 10.2964 26.1255C10.7949 28.6737 11.4894 31.1697 12.3724 33.5859C12.64 34.3203 12.9246 35.0459 13.2259 35.7627C13.2128 35.4817 13.2022 35.2 13.1938 34.9177C13.1938 34.9052 13.1938 34.8933 13.1938 34.8808C12.7498 33.0778 12.6482 31.1919 12.8956 29.343C13.1429 27.4941 13.7338 25.7225 14.6307 24.1407L9.85565 24.1381Z" fill="url(#paint26_linear_602_87)"/>
<path d="M22.4493 18.4323C22.647 18.2628 22.8389 18.0821 23.0248 17.896C23.0791 17.819 23.1276 17.7372 23.1698 17.6513C23.4174 17.1447 23.4323 16.5405 23.2523 15.9145V15.9086L23.2565 15.8736C23.3159 15.8077 23.5867 15.7489 23.8505 15.6962C23.5303 15.7212 23.1377 15.747 22.8734 15.747C20.6499 15.7514 18.4639 15.1121 16.5308 13.8921L16.3205 13.7397C15.2505 13.1048 14.0268 12.8626 12.8251 13.0477C11.6234 13.2328 10.5053 13.8357 9.63126 14.7701C8.75718 15.7044 8.17199 16.9222 7.95961 18.2487C7.74723 19.5752 7.91858 20.9423 8.44907 22.1539C8.46273 22.1731 8.47698 22.1915 8.49124 22.21C8.623 22.5236 8.78216 22.8221 8.96642 23.1012C9.24838 23.5309 9.58629 23.9117 9.96907 24.2311L9.97976 24.2971C11.0043 25.23 12.2888 25.7387 13.6137 25.7364C13.7017 25.7364 13.7919 25.7364 13.8757 25.7291C13.9351 25.5827 13.9874 25.4653 14.0028 25.4283C14.0361 25.3545 14.1139 25.1856 14.1477 25.1097C14.9944 23.3204 16.192 21.765 17.6522 20.5583L17.6558 20.5167C16.6418 21.2965 15.5351 21.9159 14.3675 22.3571C14.0452 22.4798 13.7167 22.5897 13.3821 22.6869C13.3821 22.6869 12.5303 22.9943 11.8912 23.0121C11.37 23.0024 10.8669 22.7977 10.4634 22.4311C10.0599 22.0646 9.77958 21.5576 9.66768 20.9921C9.55578 20.4267 9.61888 19.8359 9.84679 19.3152C10.0747 18.7946 10.4541 18.3745 10.9236 18.123L10.9545 18.1078L10.9937 18.088L11.0365 18.0669C11.753 17.7189 12.515 17.5004 13.2936 17.4198H13.5074C13.6888 17.4198 13.8692 17.4231 14.0485 17.4297C14.5511 17.4486 15.047 17.4926 15.5365 17.5616C15.979 17.6427 17.1901 17.8954 17.5839 18.0128L17.7027 18.0458C18.0514 18.1394 18.6418 18.2773 19.1586 18.464L19.449 18.5629C20.615 18.931 21.7109 18.8848 22.4493 18.4323Z" fill="url(#paint27_linear_602_87)"/>
<path opacity="0.53" d="M22.4493 18.4323C22.647 18.2628 22.8389 18.0821 23.0248 17.896C23.0791 17.819 23.1276 17.7372 23.1698 17.6513C23.4174 17.1447 23.4323 16.5405 23.2523 15.9145V15.9086L23.2565 15.8736C23.3159 15.8077 23.5867 15.7489 23.8505 15.6962C23.5303 15.7212 23.1377 15.747 22.8734 15.747C20.6499 15.7514 18.4639 15.1121 16.5308 13.8921L16.3205 13.7397C15.2505 13.1048 14.0268 12.8626 12.8251 13.0477C11.6234 13.2328 10.5053 13.8357 9.63126 14.7701C8.75718 15.7044 8.17199 16.9222 7.95961 18.2487C7.74723 19.5752 7.91858 20.9423 8.44907 22.1539C8.46273 22.1731 8.47698 22.1915 8.49124 22.21C8.623 22.5236 8.78216 22.8221 8.96642 23.1012C9.24838 23.5309 9.58629 23.9117 9.96907 24.2311L9.97976 24.2971C11.0043 25.23 12.2888 25.7387 13.6137 25.7364C13.7017 25.7364 13.7919 25.7364 13.8757 25.7291C13.9351 25.5827 13.9874 25.4653 14.0028 25.4283C14.0361 25.3545 14.1139 25.1856 14.1477 25.1097C14.9944 23.3204 16.192 21.765 17.6522 20.5583L17.6558 20.5167C16.6418 21.2965 15.5351 21.9159 14.3675 22.3571C14.0452 22.4798 13.7167 22.5897 13.3821 22.6869C13.3821 22.6869 12.5303 22.9943 11.8912 23.0121C11.37 23.0024 10.8669 22.7977 10.4634 22.4311C10.0599 22.0646 9.77958 21.5576 9.66768 20.9921C9.55578 20.4267 9.61888 19.8359 9.84679 19.3152C10.0747 18.7946 10.4541 18.3745 10.9236 18.123L10.9545 18.1078L10.9937 18.088L11.0365 18.0669C11.753 17.7189 12.515 17.5004 13.2936 17.4198H13.5074C13.6888 17.4198 13.8692 17.4231 14.0485 17.4297C14.5511 17.4486 15.047 17.4926 15.5365 17.5616C15.979 17.6427 17.1901 17.8954 17.5839 18.0128L17.7027 18.0458C18.0514 18.1394 18.6418 18.2773 19.1586 18.464L19.449 18.5629C20.615 18.931 21.7109 18.8848 22.4493 18.4323Z" fill="url(#paint28_radial_602_87)"/>
<path d="M29.3917 16.7806C29.6412 17.0062 30.0142 17.0854 30.0831 16.9423C30.2019 16.6962 29.9762 16.563 29.9762 16.563C27.2153 14.4011 23.8925 13.3033 20.5164 13.4376C20.5164 13.4376 20.0412 13.433 20.1345 13.7088C20.2277 13.9845 21.8689 14.1632 21.8689 14.1632C21.8689 14.1632 23.996 14.1843 25.611 14.7398C27.2261 15.2952 28.8447 16.2859 29.3917 16.7806Z" fill="#CCCCCC"/>
<path d="M29.8419 17.004C27.0807 14.842 23.7575 13.7442 20.381 13.8789C21.7847 14.1697 23.1663 14.5801 24.5133 15.1064C24.7984 15.2172 25.0808 15.3331 25.3603 15.454" fill="url(#paint29_linear_602_87)"/>
<path d="M8.99314 9.44482C11.021 8.23304 13.253 7.50129 15.5483 7.29575C14.5502 5.93922 13.2928 4.84632 11.8672 4.0963C10.4417 3.34627 8.88369 2.9579 7.30623 2.95935C7.17595 2.95935 7.04686 2.96199 6.91895 2.96727C6.86954 2.96769 6.82344 3.00675 6.81004 3.05958C6.79664 3.1124 6.8176 3.17244 6.85955 3.20144C7.57533 3.69539 8.16584 4.38392 8.57524 5.20192C9.2198 6.48977 9.37062 8.03766 8.99314 9.44482Z" fill="url(#paint30_linear_602_87)"/>
<path d="M17.8358 14.6255C18.2219 14.8062 18.6167 14.9665 19.0202 15.1063C20.257 15.5322 21.5446 15.7481 22.8395 15.7468C22.906 15.7468 22.9815 15.7468 23.0617 15.7422C23.6741 16.1881 23.1027 16.9183 22.7296 17.2593C21.2904 18.3714 18.8747 17.5099 17.5863 16.3358C17.5863 16.3358 16.9407 15.6591 17.3161 15.0338C17.4455 14.8394 17.6276 14.6963 17.8358 14.6255Z" fill="url(#paint31_linear_602_87)"/>
<path opacity="0.63" d="M17.9475 16.2706L18.7108 15.7489L19.123 16.9645L19.9468 16.2733L20.4036 17.3676L21.2388 16.4441L21.8921 17.26L22.4974 16.0068L22.8847 16.4026C22.8847 16.4026 22.8686 15.8683 23.0498 15.7509C23.1009 15.7179 23.2161 15.8828 23.2595 15.9521C23.5101 16.3914 23.048 16.9652 22.7302 17.2548C21.291 18.3669 18.8753 17.5054 17.5869 16.3313C17.5869 16.3313 17.0815 15.8037 17.2258 15.2456L17.7865 15.1685L17.9475 16.2706Z" fill="white"/>
<g opacity="0.63">
<path d="M19.0238 15.1071C20.0837 15.4722 21.1819 15.6828 22.2907 15.7337L21.8909 16.5595L21.2376 15.7436L20.4024 16.6671L19.9456 15.5721L19.1218 16.2634L18.7096 15.0477L17.9463 15.5695L17.8043 14.6078C18.2019 14.796 18.6084 14.9624 19.0238 15.1071Z" fill="white"/>
</g>
<path d="M20.1731 11.5344C19.9966 11.093 19.7386 10.6977 19.4157 10.3741C19.0929 10.0505 18.7125 9.80582 18.2991 9.65588" fill="url(#paint32_linear_602_87)"/>
<path opacity="0.25" d="M28.1515 11.9587C27.2656 11.0764 26.2979 10.3009 25.2647 9.64539C25.4162 9.79446 26.6861 10.9726 26.7265 11.5583C26.7669 12.1441 21.9206 11.1968 19.0695 12.4158C16.2183 13.6348 26.9908 13.9185 26.9231 14.1098C26.8869 14.2106 26.845 14.3089 26.7978 14.4039C27.4829 13.8303 28.0428 13.0926 28.436 12.2456L28.1515 11.9587Z" fill="white"/>
<path d="M19.0647 15.107C18.1865 14.8038 17.3404 14.3964 16.5408 13.892C17.5877 12.8373 18.9508 12.2536 20.3643 12.2548C20.41 12.2548 20.4558 12.2548 20.5009 12.2548C20.7924 12.265 21.0817 12.3151 21.3622 12.4038C21.7039 12.5089 22.051 12.5969 22.4034 12.6677C24.3991 13.08 26.4542 12.9654 28.4027 12.3333C27.9919 13.1876 27.41 13.9258 26.7018 14.491C25.9936 15.0562 25.178 15.4332 24.3178 15.5931C24.2086 15.6274 24.0357 15.6591 23.8599 15.696C23.5397 15.7211 23.1471 15.7468 22.8828 15.7468C21.5883 15.7483 20.3011 15.5326 19.0647 15.107Z" fill="url(#paint33_linear_602_87)"/>
<path opacity="0.51" d="M17.6979 14.1123C18.2039 14.2897 18.7198 14.4301 19.2423 14.5325C20.9492 14.8617 22.6966 14.8326 24.3939 14.4468C25.7541 14.14 27.0668 13.5787 28.2126 12.712C28.2815 12.59 28.3463 12.4653 28.4081 12.338C26.4596 12.9701 24.4045 13.0847 22.4088 12.6724C22.0568 12.5999 21.7097 12.5119 21.3676 12.4086C21.0871 12.3199 20.7978 12.2698 20.5063 12.2595C20.4612 12.2595 20.4154 12.2595 20.3697 12.2595C19.0475 12.2586 17.7663 12.7691 16.7464 13.7034C17.0321 13.8953 17.3867 14.0035 17.6979 14.1123Z" fill="url(#paint34_radial_602_87)"/>
<path opacity="0.4" d="M22.2514 15.2291C21.2079 15.1784 20.1712 15.0165 19.1556 14.7456C18.6656 14.6183 18.1809 14.4692 17.7027 14.2931C17.3327 14.1566 16.9662 14.0042 16.652 13.745C16.6009 13.7931 16.5498 13.842 16.4999 13.8921C18.4329 15.1121 20.619 15.7513 22.8424 15.7469C23.1068 15.7469 23.4994 15.7212 23.8201 15.6961C23.9983 15.6611 24.1682 15.6301 24.2775 15.5932C24.9467 15.4702 25.5905 15.2146 26.1783 14.8386C24.8899 15.1557 23.57 15.2869 22.2514 15.2291Z" fill="url(#paint35_linear_602_87)"/>
<path opacity="0.36" d="M21.2078 18.4889C20.0383 18.3827 18.9507 17.921 17.8506 17.4995C16.6508 17.0378 15.4254 16.5919 14.1507 16.4916C13.0976 16.4092 11.953 16.5279 11.0377 17.1644C10.6074 17.4638 10.2555 17.8835 10.0172 18.3814C9.83484 18.7626 9.68753 19.223 9.71485 19.6643C9.81096 19.3307 9.96714 19.0222 10.1739 18.7577C10.3807 18.4931 10.6337 18.278 10.9177 18.1255L10.9486 18.1103L10.9878 18.0905L11.0305 18.0694C11.747 17.7214 12.509 17.503 13.2877 17.4223H13.5015C13.6829 17.4223 13.8632 17.4256 14.0426 17.4322C14.5451 17.4511 15.0411 17.4951 15.5305 17.5641C15.9731 17.6453 17.1901 17.8953 17.5839 18.0127L17.7027 18.0456C18.0514 18.1393 18.6418 18.2772 19.1586 18.4638L19.4491 18.5628C20.6032 18.9269 21.6902 18.8827 22.4279 18.4447C22.024 18.511 21.6147 18.5258 21.2078 18.4889Z" fill="url(#paint36_linear_602_87)"/>
<path opacity="0.43" d="M19.5779 16.5832L19.1229 16.9645L18.9127 16.3497C18.7043 16.2593 18.5033 16.1489 18.3121 16.0199L17.9456 16.2706L17.8512 15.6308C17.7298 15.5041 17.6218 15.3625 17.5293 15.2086L17.3279 15.2363C17.3766 15.917 17.8767 16.3715 18.3899 16.663C18.9905 17.004 19.6937 17.2178 20.359 17.3266L20.3857 17.3305L20.1238 16.7026C19.9486 16.6729 19.7638 16.634 19.5779 16.5832Z" fill="white"/>
<path opacity="0.43" d="M20.9619 16.7502L20.4315 17.3372C20.9147 17.4161 21.4073 17.3842 21.879 17.2436L21.443 16.6987C21.2836 16.7254 21.123 16.7426 20.9619 16.7502Z" fill="white"/>
<g opacity="0.18">
<path d="M18.3062 15.2627L18.3591 15.2891L18.7107 15.049L18.8717 15.5239C18.9429 15.5536 19.0142 15.5819 19.0867 15.6096C19.2799 15.6822 19.4753 15.7468 19.6729 15.8035L19.9468 15.5733L20.0875 15.9097C20.3133 15.9618 20.5413 16.0034 20.77 16.0344L20.9542 16.0588L21.2387 15.7435L21.5392 16.1188C21.7222 16.134 21.9057 16.1446 22.0893 16.1492L22.2906 15.7336C21.1818 15.6827 20.0837 15.4721 19.0237 15.107C18.6083 14.9632 18.2022 14.7972 17.8055 14.609L17.8577 14.9599C17.9718 15.1063 18.15 15.1842 18.3062 15.2627Z" fill="url(#paint37_linear_602_87)"/>
<path d="M20.5658 16.458C20.4755 16.4441 20.3875 16.4283 20.2965 16.4117L20.4035 16.6689L20.5908 16.4613L20.5658 16.458Z" fill="url(#paint38_linear_602_87)"/>
<path d="M19.0581 16.0741L19.1229 16.265L19.2643 16.1461C19.1953 16.123 19.1264 16.0992 19.0581 16.0741Z" fill="url(#paint39_linear_602_87)"/>
</g>
<path opacity="0.36" d="M11.8383 16.3782C11.5906 16.2832 11.3287 16.1803 11.1303 15.9923H7.58423V17.2014C8.13545 17.9045 9.24204 17.9836 9.98511 17.6908C10.4882 17.4929 10.9355 17.1466 11.4065 16.8689L12.0646 16.4765V16.4553C11.9886 16.429 11.9132 16.4046 11.8383 16.3782Z" fill="url(#paint40_linear_602_87)"/>
<path opacity="0.15" d="M12.5113 7.88617C12.5315 7.21269 12.1852 6.65002 11.7391 6.20873C11.1998 5.68711 10.5773 5.28237 9.90372 5.01546C9.38933 4.8057 8.82445 4.64673 8.26907 4.66718C8.70912 5.34989 9.00307 6.13511 9.12855 6.96305C9.25402 7.79099 9.20771 8.63981 8.99314 9.44487C10.1088 8.77868 11.2891 8.25574 12.5113 7.88617Z" fill="url(#paint41_linear_602_87)"/>
<path d="M15.4414 22.144C14.0865 22.8182 12.6354 23.1652 11.1588 23.2905C9.70232 23.2714 8.93489 21.7555 8.76501 21.1909C8.7274 21.0647 8.69413 20.94 8.66523 20.8169C8.59951 20.6097 8.54458 20.3985 8.50069 20.1843C8.33558 19.4172 8.27551 18.6269 8.3225 17.84C8.35125 17.3541 8.40639 16.8706 8.48763 16.3921C8.06855 17.2783 7.84294 18.2615 7.82901 19.2624C7.81508 20.2633 8.01322 21.2538 8.40744 22.1539L8.44961 22.21C8.5816 22.5235 8.74074 22.8219 8.9248 23.1012L8.95865 23.1506C9.06171 23.3036 9.17195 23.4505 9.28891 23.5906L9.29247 23.5952C9.32989 23.6394 9.36791 23.6836 9.40652 23.7272L9.42196 23.743C9.457 23.7826 9.49265 23.8208 9.52947 23.8591L9.56214 23.8921C9.59362 23.9237 9.6251 23.958 9.65718 23.987C9.67678 24.0068 9.69757 24.0253 9.71658 24.0444C9.73558 24.0636 9.7635 24.0893 9.78786 24.1104C9.833 24.1513 9.87933 24.1909 9.92566 24.2298C10.9503 25.1626 12.2454 25.7373 13.5703 25.7351C13.6582 25.7351 13.7437 25.7423 13.831 25.7351C13.8904 25.5886 13.944 25.464 13.9594 25.427L13.9701 25.4026L13.9832 25.3749L13.9867 25.367C14.0028 25.3314 14.0212 25.2905 14.0396 25.2509L14.1049 25.1084C14.7719 23.6986 15.6583 22.431 16.7232 21.3644C16.315 21.6612 15.8864 21.9219 15.4414 22.144Z" fill="url(#paint42_linear_602_87)"/>
<path d="M13.1938 34.9138C13.1938 34.9013 13.1938 34.8894 13.1938 34.8769C12.4553 31.8758 12.6727 28.6836 13.8092 25.84C12.5469 25.5471 11.3875 24.8215 10.4056 23.898C9.35784 22.9145 8.4639 21.6685 7.90199 20.2734C7.27296 18.7114 7.07041 16.9257 7.11615 15.2272C7.13898 13.9991 7.30571 12.7795 7.61213 11.5992C7.51768 11.7813 7.42799 11.968 7.34483 12.1579C6.79026 13.4208 6.50298 14.8077 6.50494 16.2127C6.50494 16.4233 6.51108 16.632 6.52335 16.8387C6.56804 17.5832 6.69368 18.319 6.89756 19.03C6.96409 19.2608 7.03834 19.4875 7.12031 19.71C7.45365 20.6172 7.9365 21.4419 8.50817 22.1882C8.8433 22.9863 9.32854 23.6983 9.96252 24.2272C10.0615 24.8631 10.1726 25.4945 10.2957 26.1216C10.7942 28.6698 11.4888 31.1658 12.3717 33.582C12.6394 34.3164 12.9239 35.042 13.2253 35.7588C13.2122 35.4778 13.2015 35.1961 13.1932 34.9138H13.1938Z" fill="url(#paint43_linear_602_87)"/>
<path d="M11.5764 16.2092C11.8775 16.0833 12.2541 16.1433 12.2779 16.3003C12.3188 16.5753 12.0676 16.6222 12.0676 16.6222C8.82967 17.6933 5.3649 17.5571 2.20331 16.2343C2.20331 16.2343 1.75366 16.0714 1.91879 15.8425C2.08392 15.6136 3.69361 16.0259 3.69361 16.0259C3.69361 16.0259 5.71316 16.7587 7.40779 16.8049C9.10243 16.851 10.9159 16.4836 11.5764 16.2092Z" fill="#CCCCCC"/>
<path d="M11.9422 16.0801C10.598 15.2661 7.37449 16.0392 7.37449 16.0392C7.07512 16.0546 6.77437 16.0645 6.47223 16.0689C5.04441 16.0909 3.61719 15.9905 2.20327 15.7687C5.36487 17.0915 8.82963 17.2277 12.0676 16.1566L11.9422 16.0801Z" fill="url(#paint44_linear_602_87)"/>
<path d="M19.8512 11.138C19.7032 11.2941 19.5078 11.3827 19.3038 11.3864C19.0997 11.39 18.9019 11.3084 18.7495 11.1576C18.5971 11.0069 18.5013 10.7981 18.481 10.5726C18.4607 10.3471 18.5175 10.1214 18.64 9.94019C19.132 10.2135 19.5499 10.6269 19.8512 11.138Z" fill="#CCCCCC"/>
<path d="M19.7442 10.9804C19.6707 11.0424 19.5789 11.0716 19.487 11.0623C19.3951 11.053 19.3096 11.0059 19.2473 10.9303C19.1851 10.8546 19.1505 10.7558 19.1505 10.6533C19.1504 10.5508 19.1849 10.452 19.247 10.3762C19.4577 10.5256 19.6292 10.734 19.7442 10.9804Z" fill="#3B2B29"/>
<path opacity="0.43" d="M23.2684 15.8861C23.1583 15.9722 23.0441 16.0517 22.9263 16.1242C22.9176 16.2063 22.9141 16.289 22.9156 16.3716L22.7659 16.2179C22.6156 16.301 22.4609 16.374 22.3026 16.4362L21.9313 17.204C22.1372 17.1368 22.3351 17.0429 22.5212 16.9243C22.8397 16.7164 23.1233 16.4485 23.3593 16.1328C23.3512 16.0576 23.3279 15.9854 23.291 15.9217C23.285 15.9099 23.2773 15.8986 23.2684 15.8861Z" fill="white"/>
<path opacity="0.11" d="M20.2379 11.4441C20.1189 11.1562 19.9798 10.879 19.8221 10.615C19.5933 10.2369 19.3202 9.89417 19.0101 9.5959C18.7357 9.33206 18.3425 9.00952 17.9552 9.08603C17.7954 9.20344 17.8566 9.40593 18.3009 9.65592C19.2151 9.98902 19.7859 10.6697 20.1749 11.5345C20.1779 11.5453 20.1815 11.5558 20.1856 11.5661H20.1951L20.2337 11.5265C20.2337 11.4969 20.2355 11.4718 20.2379 11.4441Z" fill="white"/>
<defs>
<radialGradient id="paint0_radial_602_87" cx="0" cy="0" r="1" gradientUnits="userSpaceOnUse" gradientTransform="translate(26.033 4.246) scale(23.4244 25.2446)">
<stop offset="0.36" stop-color="#EAF0F0"/>
<stop offset="0.62" stop-color="#E4EAEA"/>
<stop offset="1" stop-color="#B5B5B5"/>
</radialGradient>
<linearGradient id="paint1_linear_602_87" x1="21.6858" y1="6.12708" x2="6.28818" y2="18.4921" gradientUnits="userSpaceOnUse">
<stop stop-color="#9E9E9E"/>
<stop offset="0.26" stop-color="#939393"/>
<stop offset="0.64" stop-color="#7A7A7A"/>
<stop offset="1" stop-color="#7A7A7A"/>
</linearGradient>
<radialGradient id="paint2_radial_602_87" cx="0" cy="0" r="1" gradientUnits="userSpaceOnUse" gradientTransform="translate(26.8081 2.58222) scale(24.9137 27.4393)">
<stop stop-color="#9E9E9E"/>
<stop offset="0.26" stop-color="#939393"/>
<stop offset="0.64" stop-color="#7A7A7A"/>
<stop offset="1" stop-color="#7A7A7A"/>
</radialGradient>
<radialGradient id="paint3_radial_602_87" cx="0" cy="0" r="1" gradientUnits="userSpaceOnUse" gradientTransform="translate(8.2484 -14.6332) scale(22.8648 25.1827)">
<stop offset="0.36" stop-color="#EAF0F0"/>
<stop offset="0.62" stop-color="#E4EAEA"/>
<stop offset="1" stop-color="#B5B5B5"/>
</radialGradient>
<radialGradient id="paint4_radial_602_87" cx="0" cy="0" r="1" gradientUnits="userSpaceOnUse" gradientTransform="translate(8.2484 -14.6332) scale(22.8648 25.1827)">
<stop offset="0.36" stop-color="#EAF0F0"/>
<stop offset="0.62" stop-color="#E4EAEA"/>
<stop offset="1" stop-color="#B5B5B5"/>
</radialGradient>
<linearGradient id="paint5_linear_602_87" x1="27.1821" y1="15.2668" x2="4.71098" y2="23.4853" gradientUnits="userSpaceOnUse">
<stop offset="0.42" stop-color="#F51F36"/>
<stop offset="0.62" stop-color="#D51F36"/>
<stop offset="0.81" stop-color="#B71D37"/>
<stop offset="1" stop-color="#A51B38"/>
</linearGradient>
<linearGradient id="paint6_linear_602_87" x1="10.5435" y1="31.1994" x2="20.5887" y2="20.9854" gradientUnits="userSpaceOnUse">
<stop offset="0.15" stop-color="#FF2715"/>
<stop offset="0.5" stop-color="#FF5428"/>
<stop offset="1" stop-color="#FF9C42"/>
</linearGradient>
<linearGradient id="paint7_linear_602_87" x1="24.0233" y1="39.867" x2="11.9953" y2="13.9418" gradientUnits="userSpaceOnUse">
<stop offset="0.19" stop-color="#EAF0F0"/>
<stop offset="0.46" stop-color="#E4EAEA"/>
<stop offset="1" stop-color="#B5B5B5"/>
</linearGradient>
<radialGradient id="paint8_radial_602_87" cx="0" cy="0" r="1" gradientUnits="userSpaceOnUse" gradientTransform="translate(11.6073 9.96664) scale(12.0353 13.3654)">
<stop stop-color="white"/>
<stop offset="1" stop-color="#494949" stop-opacity="0"/>
</radialGradient>
<linearGradient id="paint9_linear_602_87" x1="20.3816" y1="15.4355" x2="29.8425" y2="15.4355" gradientUnits="userSpaceOnUse">
<stop stop-color="#F2445E"/>
<stop offset="0.42" stop-color="#F51F36"/>
<stop offset="0.62" stop-color="#D51F36"/>
<stop offset="0.81" stop-color="#B71D37"/>
<stop offset="1" stop-color="#A51B38"/>
</linearGradient>
<linearGradient id="paint10_linear_602_87" x1="15.8756" y1="4.92241" x2="6.32232" y2="6.17789" gradientUnits="userSpaceOnUse">
<stop stop-color="#F2445E"/>
<stop offset="0.42" stop-color="#F51F36"/>
<stop offset="0.62" stop-color="#D51F36"/>
<stop offset="0.81" stop-color="#B71D37"/>
<stop offset="1" stop-color="#A51B38"/>
</linearGradient>
<linearGradient id="paint11_linear_602_87" x1="20.2272" y1="16.1788" x2="19.6929" y2="20.0548" gradientUnits="userSpaceOnUse">
<stop stop-color="#5E5E5E"/>
<stop offset="1"/>
</linearGradient>
<linearGradient id="paint12_linear_602_87" x1="19.0956" y1="10.6961" x2="21.3008" y2="9.41372" gradientUnits="userSpaceOnUse">
<stop stop-color="#813301"/>
<stop offset="0.58" stop-color="#FF2715"/>
<stop offset="0.87" stop-color="#FF5428"/>
<stop offset="1" stop-color="#FF9C42"/>
</linearGradient>
<linearGradient id="paint13_linear_602_87" x1="22.5104" y1="10.3649" x2="22.4093" y2="16.3804" gradientUnits="userSpaceOnUse">
<stop offset="0.19" stop-color="#EAF0F0"/>
<stop offset="0.46" stop-color="#E4EAEA"/>
<stop offset="1" stop-color="#B5B5B5"/>
</linearGradient>
<radialGradient id="paint14_radial_602_87" cx="0" cy="0" r="1" gradientUnits="userSpaceOnUse" gradientTransform="translate(21.9111 10.8744) scale(5.86737 6.51552)">
<stop stop-color="white"/>
<stop offset="1" stop-color="#494949" stop-opacity="0"/>
</radialGradient>
<linearGradient id="paint15_linear_602_87" x1="21.3361" y1="14.241" x2="21.5309" y2="19.0401" gradientUnits="userSpaceOnUse">
<stop stop-color="#5E5E5E"/>
<stop offset="1"/>
</linearGradient>
<linearGradient id="paint16_linear_602_87" x1="7.86994" y1="18.0615" x2="23.8511" y2="18.0615" gradientUnits="userSpaceOnUse">
<stop stop-color="#5E5E5E"/>
<stop offset="1"/>
</linearGradient>
<linearGradient id="paint17_linear_602_87" x1="17.8055" y1="15.3788" x2="22.2906" y2="15.3788" gradientUnits="userSpaceOnUse">
<stop stop-color="#5E5E5E"/>
<stop offset="1"/>
</linearGradient>
<linearGradient id="paint18_linear_602_87" x1="20.2965" y1="16.54" x2="20.5908" y2="16.54" gradientUnits="userSpaceOnUse">
<stop stop-color="#5E5E5E"/>
<stop offset="1"/>
</linearGradient>
<linearGradient id="paint19_linear_602_87" x1="19.0581" y1="16.1692" x2="19.2643" y2="16.1692" gradientUnits="userSpaceOnUse">
<stop stop-color="#5E5E5E"/>
<stop offset="1"/>
</linearGradient>
<linearGradient id="paint20_linear_602_87" x1="7.58423" y1="16.919" x2="12.0646" y2="16.919" gradientUnits="userSpaceOnUse">
<stop stop-color="#5E5E5E"/>
<stop offset="1"/>
</linearGradient>
<linearGradient id="paint21_linear_602_87" x1="10.5405" y1="6.11111" x2="8.69639" y2="7.77166" gradientUnits="userSpaceOnUse">
<stop stop-color="#5E5E5E"/>
<stop offset="1"/>
</linearGradient>
<linearGradient id="paint22_linear_602_87" x1="15.9932" y1="18.3571" x2="5.14998" y2="23.277" gradientUnits="userSpaceOnUse">
<stop stop-color="#F2445E"/>
<stop offset="0.42" stop-color="#F51F36"/>
<stop offset="0.62" stop-color="#D51F36"/>
<stop offset="0.81" stop-color="#B71D37"/>
<stop offset="1" stop-color="#A51B38"/>
</linearGradient>
<linearGradient id="paint23_linear_602_87" x1="19.7757" y1="22.7166" x2="6.56317" y2="23.8213" gradientUnits="userSpaceOnUse">
<stop stop-color="#F2445E"/>
<stop offset="0.42" stop-color="#F51F36"/>
<stop offset="0.62" stop-color="#D51F36"/>
<stop offset="0.81" stop-color="#B71D37"/>
<stop offset="1" stop-color="#A51B38"/>
</linearGradient>
<linearGradient id="paint24_linear_602_87" x1="2.20327" y1="16.2892" x2="12.0676" y2="16.2892" gradientUnits="userSpaceOnUse">
<stop stop-color="#F2445E"/>
<stop offset="0.42" stop-color="#F51F36"/>
<stop offset="0.62" stop-color="#D51F36"/>
<stop offset="0.81" stop-color="#B71D37"/>
<stop offset="1" stop-color="#A51B38"/>
</linearGradient>
<linearGradient id="paint25_linear_602_87" x1="27.1821" y1="15.2668" x2="4.71098" y2="23.4853" gradientUnits="userSpaceOnUse">
<stop offset="0.42" stop-color="#F51F36"/>
<stop offset="0.62" stop-color="#D51F36"/>
<stop offset="0.81" stop-color="#B71D37"/>
<stop offset="1" stop-color="#A51B38"/>
</linearGradient>
<linearGradient id="paint26_linear_602_87" x1="10.5435" y1="31.1994" x2="20.5887" y2="20.9854" gradientUnits="userSpaceOnUse">
<stop offset="0.15" stop-color="#FF2715"/>
<stop offset="0.5" stop-color="#FF5428"/>
<stop offset="1" stop-color="#FF9C42"/>
</linearGradient>
<linearGradient id="paint27_linear_602_87" x1="24.0233" y1="39.867" x2="11.9953" y2="13.9418" gradientUnits="userSpaceOnUse">
<stop offset="0.19" stop-color="#EAF0F0"/>
<stop offset="0.46" stop-color="#E4EAEA"/>
<stop offset="1" stop-color="#B5B5B5"/>
</linearGradient>
<radialGradient id="paint28_radial_602_87" cx="0" cy="0" r="1" gradientUnits="userSpaceOnUse" gradientTransform="translate(11.6073 9.96664) scale(12.0353 13.3654)">
<stop stop-color="white"/>
<stop offset="1" stop-color="#494949" stop-opacity="0"/>
</radialGradient>
<linearGradient id="paint29_linear_602_87" x1="20.3816" y1="15.4355" x2="29.8425" y2="15.4355" gradientUnits="userSpaceOnUse">
<stop stop-color="#F2445E"/>
<stop offset="0.42" stop-color="#F51F36"/>
<stop offset="0.62" stop-color="#D51F36"/>
<stop offset="0.81" stop-color="#B71D37"/>
<stop offset="1" stop-color="#A51B38"/>
</linearGradient>
<linearGradient id="paint30_linear_602_87" x1="15.8756" y1="4.92241" x2="6.32233" y2="6.17789" gradientUnits="userSpaceOnUse">
<stop stop-color="#F2445E"/>
<stop offset="0.42" stop-color="#F51F36"/>
<stop offset="0.62" stop-color="#D51F36"/>
<stop offset="0.81" stop-color="#B71D37"/>
<stop offset="1" stop-color="#A51B38"/>
</linearGradient>
<linearGradient id="paint31_linear_602_87" x1="20.2272" y1="16.1788" x2="19.6929" y2="20.0548" gradientUnits="userSpaceOnUse">
<stop stop-color="#5E5E5E"/>
<stop offset="1"/>
</linearGradient>
<linearGradient id="paint32_linear_602_87" x1="19.0956" y1="10.6961" x2="21.3008" y2="9.41372" gradientUnits="userSpaceOnUse">
<stop stop-color="#813301"/>
<stop offset="0.58" stop-color="#FF2715"/>
<stop offset="0.87" stop-color="#FF5428"/>
<stop offset="1" stop-color="#FF9C42"/>
</linearGradient>
<linearGradient id="paint33_linear_602_87" x1="22.5104" y1="10.3649" x2="22.4093" y2="16.3804" gradientUnits="userSpaceOnUse">
<stop offset="0.19" stop-color="#EAF0F0"/>
<stop offset="0.46" stop-color="#E4EAEA"/>
<stop offset="1" stop-color="#B5B5B5"/>
</linearGradient>
<radialGradient id="paint34_radial_602_87" cx="0" cy="0" r="1" gradientUnits="userSpaceOnUse" gradientTransform="translate(21.9111 10.8744) scale(5.86737 6.51552)">
<stop stop-color="white"/>
<stop offset="1" stop-color="#494949" stop-opacity="0"/>
</radialGradient>
<linearGradient id="paint35_linear_602_87" x1="21.3361" y1="14.241" x2="21.5309" y2="19.0401" gradientUnits="userSpaceOnUse">
<stop stop-color="#5E5E5E"/>
<stop offset="1"/>
</linearGradient>
<linearGradient id="paint36_linear_602_87" x1="7.86994" y1="18.0615" x2="23.8511" y2="18.0615" gradientUnits="userSpaceOnUse">
<stop stop-color="#5E5E5E"/>
<stop offset="1"/>
</linearGradient>
<linearGradient id="paint37_linear_602_87" x1="17.8055" y1="15.3788" x2="22.2906" y2="15.3788" gradientUnits="userSpaceOnUse">
<stop stop-color="#5E5E5E"/>
<stop offset="1"/>
</linearGradient>
<linearGradient id="paint38_linear_602_87" x1="20.2965" y1="16.54" x2="20.5908" y2="16.54" gradientUnits="userSpaceOnUse">
<stop stop-color="#5E5E5E"/>
<stop offset="1"/>
</linearGradient>
<linearGradient id="paint39_linear_602_87" x1="19.0581" y1="16.1692" x2="19.2643" y2="16.1692" gradientUnits="userSpaceOnUse">
<stop stop-color="#5E5E5E"/>
<stop offset="1"/>
</linearGradient>
<linearGradient id="paint40_linear_602_87" x1="7.58423" y1="16.919" x2="12.0646" y2="16.919" gradientUnits="userSpaceOnUse">
<stop stop-color="#5E5E5E"/>
<stop offset="1"/>
</linearGradient>
<linearGradient id="paint41_linear_602_87" x1="10.5405" y1="6.11111" x2="8.69639" y2="7.77166" gradientUnits="userSpaceOnUse">
<stop stop-color="#5E5E5E"/>
<stop offset="1"/>
</linearGradient>
<linearGradient id="paint42_linear_602_87" x1="15.9932" y1="18.3571" x2="5.14998" y2="23.277" gradientUnits="userSpaceOnUse">
<stop stop-color="#F2445E"/>
<stop offset="0.42" stop-color="#F51F36"/>
<stop offset="0.62" stop-color="#D51F36"/>
<stop offset="0.81" stop-color="#B71D37"/>
<stop offset="1" stop-color="#A51B38"/>
</linearGradient>
<linearGradient id="paint43_linear_602_87" x1="19.7757" y1="22.7166" x2="6.56317" y2="23.8213" gradientUnits="userSpaceOnUse">
<stop stop-color="#F2445E"/>
<stop offset="0.42" stop-color="#F51F36"/>
<stop offset="0.62" stop-color="#D51F36"/>
<stop offset="0.81" stop-color="#B71D37"/>
<stop offset="1" stop-color="#A51B38"/>
</linearGradient>
<linearGradient id="paint44_linear_602_87" x1="2.20327" y1="16.2892" x2="12.0676" y2="16.2892" gradientUnits="userSpaceOnUse">
<stop stop-color="#F2445E"/>
<stop offset="0.42" stop-color="#F51F36"/>
<stop offset="0.62" stop-color="#D51F36"/>
<stop offset="0.81" stop-color="#B71D37"/>
<stop offset="1" stop-color="#A51B38"/>
</linearGradient>
</defs>
</svg>
