<svg width="248" height="185" viewBox="0 0 248 185" fill="none" xmlns="http://www.w3.org/2000/svg">
<g opacity="0.5" clip-path="url(#clip0_12130_38596)">
<path d="M102.222 127.985C102.222 134.336 97.2003 139.484 91.0055 139.484C84.8107 139.484 79.7891 134.336 79.7891 127.985C79.7891 127.841 79.7913 127.698 79.7973 127.556C79.911 121.207 85.0258 116.156 91.2193 116.275C97.4128 116.393 102.34 121.636 102.224 127.985H102.222Z" fill="#D51F36"/>
<path d="M87.0562 133.092L83.8257 128.862L84.5907 128.298L87.2227 131.744L97.5846 123.42L98.1904 124.147L87.0562 133.092Z" fill="white"/>
<path d="M248 183.842H0V184.502H248V183.842Z" fill="#E6E6E6"/>
<path d="M163.288 65.146C163.52 65.2501 163.743 65.3723 163.955 65.5115L185.171 56.6194L185.928 51.1312L194.406 51.0801L193.905 63.6684L165.902 70.9416C165.843 71.1326 165.772 71.3199 165.69 71.5025C165.285 72.3508 164.634 73.0628 163.818 73.5489C163.003 74.035 162.059 74.2737 161.106 74.2349C160.152 74.196 159.232 73.8815 158.46 73.3307C157.688 72.78 157.099 72.0175 156.767 71.1392C156.435 70.2608 156.375 69.3057 156.594 68.3938C156.813 67.4819 157.301 66.6538 157.998 66.0136C158.695 65.3734 159.568 64.9496 160.509 64.7954C161.45 64.6412 162.417 64.7635 163.287 65.147L163.288 65.146Z" fill="#A0616A"/>
<path d="M197.488 179.214H191.688L188.93 157.248H197.489L197.488 179.214Z" fill="#A0616A"/>
<path d="M187.547 177.585H198.732V184.498H180.505C180.505 182.664 181.247 180.905 182.568 179.608C183.889 178.312 185.68 177.583 187.547 177.583V177.585Z" fill="#11504F"/>
<path d="M220.042 177.602L214.271 178.159L209.333 156.565L217.851 155.743L220.042 177.602Z" fill="#A0616A"/>
<path d="M209.983 176.942L221.111 175.865L221.801 182.746L203.667 184.5C203.484 182.675 204.046 180.854 205.231 179.436C206.415 178.019 208.125 177.122 209.983 176.942Z" fill="#11504F"/>
<path d="M199.103 27.8305C205.52 27.8305 210.721 22.7225 210.721 16.4216C210.721 10.1206 205.52 5.0127 199.103 5.0127C192.687 5.0127 187.485 10.1206 187.485 16.4216C187.485 22.7225 192.687 27.8305 199.103 27.8305Z" fill="#A0616A"/>
<path d="M190.393 174.769C189.894 174.77 189.412 174.598 189.029 174.284C188.647 173.97 188.391 173.533 188.304 173.051C185.305 156.691 175.491 103.187 175.256 101.704C175.251 101.67 175.248 101.636 175.249 101.601V97.6113C175.248 97.466 175.294 97.3243 175.381 97.2062L176.677 95.4247C176.738 95.339 176.819 95.2682 176.913 95.2179C177.007 95.1675 177.111 95.139 177.218 95.1344C184.609 94.7943 208.809 93.797 209.978 95.2314C211.152 96.6714 210.735 101.041 210.64 101.902L210.645 101.992L221.518 170.275C221.603 170.82 221.466 171.375 221.137 171.822C220.808 172.268 220.313 172.569 219.76 172.66L212.969 173.759C212.463 173.838 211.945 173.737 211.509 173.474C211.073 173.21 210.747 172.801 210.592 172.322C208.491 165.731 201.449 143.56 199.008 134.981C198.995 134.924 198.96 134.874 198.912 134.842C198.863 134.809 198.803 134.795 198.745 134.804C198.686 134.812 198.633 134.842 198.596 134.887C198.559 134.932 198.54 134.989 198.544 135.047C198.666 143.225 198.96 164.09 199.064 171.296L199.075 172.072C199.079 172.598 198.883 173.106 198.525 173.496C198.166 173.886 197.672 174.13 197.139 174.18L190.591 174.762C190.525 174.768 190.459 174.77 190.393 174.769Z" fill="#11504F"/>
<path d="M191.729 32.3195C189.702 33.5032 188.489 35.6779 187.792 37.8948C186.504 41.9923 185.728 46.2287 185.482 50.5104L184.746 63.3303L175.638 97.3191C183.532 103.878 188.085 102.387 198.712 97.0222C209.339 91.6571 210.553 98.8109 210.553 98.8109L212.678 69.891L215.714 38.289C215.032 37.4832 214.261 36.755 213.414 36.1179C210.608 33.9747 207.343 32.4848 203.865 31.7606C200.388 31.0364 196.788 31.0968 193.338 31.9371L191.729 32.3195Z" fill="#D51F36"/>
<path d="M188.771 72.0097C189.016 72.0997 189.253 72.2084 189.48 72.335L210.459 62.0227L210.807 56.4365L219.461 55.8506L219.924 68.5847L191.89 77.6899C191.661 78.6546 191.139 79.5281 190.392 80.1941C189.645 80.8601 188.71 81.2871 187.71 81.4182C186.71 81.5494 185.694 81.3785 184.795 80.9283C183.897 80.4781 183.159 79.7699 182.681 78.898C182.202 78.0261 182.005 77.0317 182.116 76.0472C182.227 75.0627 182.641 74.1347 183.302 73.3867C183.963 72.6387 184.841 72.1062 185.818 71.8599C186.795 71.6136 187.825 71.6653 188.771 72.008L188.771 72.0097Z" fill="#A0616A"/>
<path d="M215.562 38.4295C220.723 40.2182 221.633 59.5994 221.633 59.5994C215.561 56.3199 208.274 61.6864 208.274 61.6864C208.274 61.6864 206.757 56.6175 204.935 50.0587C204.385 48.2138 204.319 46.2621 204.744 44.3854C205.168 42.5088 206.069 40.7681 207.363 39.3255C207.363 39.3255 210.401 36.6398 215.562 38.4295Z" fill="#D51F36"/>
<path d="M209.518 19.4397C208.07 18.3026 206.096 20.3687 206.096 20.3687L204.938 10.1366C204.938 10.1366 197.7 10.9881 193.067 9.85221C188.434 8.71637 187.711 13.976 187.711 13.976C187.473 11.8519 187.424 9.71129 187.567 7.57888C187.856 5.02019 191.619 2.4615 198.278 0.755588C204.937 -0.950318 208.411 6.44172 208.411 6.44172C213.046 8.7144 210.967 20.5782 209.518 19.4397Z" fill="#11504F"/>
<path d="M54.1308 15.5273C53.8543 15.5278 53.5893 15.636 53.3939 15.8282C53.1986 16.0204 53.0889 16.2808 53.0889 16.5524C53.0889 16.8239 53.1986 17.0844 53.3939 17.2766C53.5893 17.4687 53.8543 17.577 54.1308 17.5774H130.342C130.619 17.577 130.884 17.4687 131.079 17.2766C131.275 17.0844 131.384 16.8239 131.384 16.5524C131.384 16.2808 131.275 16.0204 131.079 15.8282C130.884 15.636 130.619 15.5278 130.342 15.5273H54.1308Z" fill="#CCCCCC"/>
<path d="M54.1305 21.6777C53.8539 21.6775 53.5886 21.7852 53.3927 21.9769C53.1969 22.1687 53.0865 22.429 53.0859 22.7006C53.0854 22.9722 53.1946 23.233 53.3896 23.4256C53.5846 23.6182 53.8495 23.7269 54.1261 23.7278H102.308C102.445 23.7278 102.581 23.7013 102.707 23.6498C102.834 23.5983 102.949 23.5228 103.046 23.4276C103.143 23.3324 103.22 23.2194 103.272 23.095C103.325 22.9707 103.352 22.8374 103.352 22.7028C103.352 22.5682 103.325 22.4349 103.272 22.3105C103.22 22.1861 103.143 22.0731 103.046 21.978C102.949 21.8828 102.834 21.8073 102.707 21.7558C102.581 21.7042 102.445 21.6777 102.308 21.6777H54.1305Z" fill="#CCCCCC"/>
<path d="M129.386 7.6919C129.386 10.1774 127.421 12.1924 124.996 12.1924C122.571 12.1924 120.606 10.1775 120.606 7.6919C120.606 7.63556 120.607 7.57961 120.609 7.52375C120.654 5.03868 122.656 3.06181 125.08 3.10822C127.504 3.15463 129.432 5.20683 129.387 7.6919H129.386Z" fill="#D51F36"/>
<path d="M123.451 9.69103L122.187 8.03538L122.486 7.81467L123.516 9.16349L127.572 5.90527L127.809 6.18985L123.451 9.69103Z" fill="white"/>
<path d="M54.1308 53.1357C53.8543 53.1362 53.5893 53.2444 53.3939 53.4366C53.1986 53.6288 53.0889 53.8892 53.0889 54.1608C53.0889 54.4323 53.1986 54.6928 53.3939 54.885C53.5893 55.0771 53.8543 55.1854 54.1308 55.1858H130.342C130.619 55.1854 130.884 55.0771 131.079 54.885C131.275 54.6928 131.384 54.4323 131.384 54.1608C131.384 53.8892 131.275 53.6288 131.079 53.4366C130.884 53.2444 130.619 53.1362 130.342 53.1357H54.1308Z" fill="#CCCCCC"/>
<path d="M54.1305 59.2871C53.8539 59.2869 53.5886 59.3945 53.3927 59.5863C53.1969 59.7781 53.0865 60.0384 53.0859 60.31C53.0854 60.5816 53.1946 60.8423 53.3896 61.0349C53.5846 61.2275 53.8495 61.3362 54.1261 61.3372H102.308C102.585 61.3372 102.85 61.2292 103.046 61.037C103.242 60.8447 103.352 60.584 103.352 60.3122C103.352 60.0403 103.242 59.7796 103.046 59.5873C102.85 59.3951 102.585 59.2871 102.308 59.2871H54.1305Z" fill="#CCCCCC"/>
<path d="M129.051 45.3013C129.051 47.7868 127.086 49.8018 124.661 49.8018C122.236 49.8018 120.271 47.7868 120.271 45.3013C120.271 45.2449 120.272 45.189 120.274 45.1331C120.319 42.648 122.321 40.6712 124.745 40.7176C127.169 40.764 129.097 42.8162 129.052 45.3013H129.051Z" fill="#D51F36"/>
<path d="M123.115 47.2975L121.85 45.6418L122.15 45.4211L123.18 46.7699L127.235 43.5117L127.473 43.7963L123.115 47.2975Z" fill="white"/>
<path d="M54.1308 90.7451C53.8543 90.7456 53.5893 90.8538 53.3939 91.046C53.1986 91.2382 53.0889 91.4986 53.0889 91.7702C53.0889 92.0417 53.1986 92.3022 53.3939 92.4943C53.5893 92.6865 53.8543 92.7947 54.1308 92.7952H130.342C130.619 92.7947 130.884 92.6865 131.079 92.4943C131.275 92.3022 131.384 92.0417 131.384 91.7702C131.384 91.4986 131.275 91.2382 131.079 91.046C130.884 90.8538 130.619 90.7456 130.342 90.7451H54.1308Z" fill="#CCCCCC"/>
<path d="M54.1305 96.8965C53.8539 96.8963 53.5886 97.0039 53.3927 97.1957C53.1969 97.3875 53.0865 97.6478 53.0859 97.9194C53.0854 98.191 53.1946 98.4517 53.3896 98.6443C53.5846 98.8369 53.8495 98.9456 54.1261 98.9466H102.308C102.585 98.9466 102.85 98.8386 103.046 98.6463C103.242 98.4541 103.352 98.1934 103.352 97.9215C103.352 97.6497 103.242 97.3889 103.046 97.1967C102.85 97.0045 102.585 96.8965 102.308 96.8965H54.1305Z" fill="#CCCCCC"/>
<path d="M129.051 82.9097C129.051 85.3952 127.086 87.4102 124.661 87.4102C122.236 87.4102 120.271 85.3952 120.271 82.9097C120.271 82.8533 120.272 82.7974 120.274 82.7415C120.319 80.2564 122.321 78.2796 124.745 78.326C127.169 78.3724 129.097 80.4246 129.052 82.9097H129.051Z" fill="#D51F36"/>
<path d="M123.115 84.9058L121.85 83.2502L122.15 83.0295L123.18 84.3783L127.235 81.1201L127.473 81.4047L123.115 84.9058Z" fill="white"/>
</g>
<defs>
<clipPath id="clip0_12130_38596">
<rect width="248" height="184" fill="white" transform="translate(0 0.5)"/>
</clipPath>
</defs>
</svg>
