<svg width="221" height="170" viewBox="0 0 221 170" fill="none" xmlns="http://www.w3.org/2000/svg">
<g opacity="0.5" clip-path="url(#clip0_12215_47647)">
<path d="M128.195 169.506C128.163 169.453 127.396 168.169 127.13 165.504C126.886 163.059 127.043 158.938 129.175 153.188C133.215 142.297 128.244 133.509 128.194 133.422L128.439 133.279C129.396 135.115 130.087 137.078 130.492 139.11C131.493 143.84 131.129 148.758 129.441 153.288C125.408 164.16 128.407 169.307 128.437 169.358L128.195 169.506Z" fill="#F2F2F2"/>
<path d="M126.615 132.783C127.633 132.783 128.458 131.956 128.458 130.936C128.458 129.916 127.633 129.089 126.615 129.089C125.598 129.089 124.773 129.916 124.773 130.936C124.773 131.956 125.598 132.783 126.615 132.783Z" fill="#F2F2F2"/>
<path d="M132.426 139.601C133.444 139.601 134.269 138.774 134.269 137.754C134.269 136.734 133.444 135.907 132.426 135.907C131.409 135.907 130.584 136.734 130.584 137.754C130.584 138.774 131.409 139.601 132.426 139.601Z" fill="#F2F2F2"/>
<path d="M128.458 144.147C129.475 144.147 130.3 143.32 130.3 142.3C130.3 141.28 129.475 140.453 128.458 140.453C127.44 140.453 126.615 141.28 126.615 142.3C126.615 143.32 127.44 144.147 128.458 144.147Z" fill="#F2F2F2"/>
<path d="M133.277 147.982C134.294 147.982 135.119 147.155 135.119 146.136C135.119 145.116 134.294 144.289 133.277 144.289C132.259 144.289 131.434 145.116 131.434 146.136C131.434 147.155 132.259 147.982 133.277 147.982Z" fill="#F2F2F2"/>
<path d="M127.04 153.948C128.058 153.948 128.883 153.122 128.883 152.102C128.883 151.082 128.058 150.255 127.04 150.255C126.023 150.255 125.198 151.082 125.198 152.102C125.198 153.122 126.023 153.948 127.04 153.948Z" fill="#F2F2F2"/>
<path d="M129.308 169.573C129.308 169.573 127.466 165.028 132.993 161.618L129.308 169.573Z" fill="#F2F2F2"/>
<path d="M127.043 169.492C127.043 169.492 126.204 164.658 119.714 164.699L127.043 169.492Z" fill="#F2F2F2"/>
<path d="M31.5558 35.1594C30.0826 35.1594 28.6425 34.7216 27.4176 33.9012C26.1927 33.0809 25.2379 31.9149 24.6742 30.5507C24.1104 29.1865 23.9629 27.6853 24.2503 26.2371C24.5377 24.7889 25.2471 23.4586 26.2888 22.4145C27.3305 21.3704 28.6578 20.6593 30.1027 20.3712C31.5476 20.0832 33.0452 20.231 34.4063 20.7961C35.7674 21.3612 36.9307 22.3181 37.7491 23.5458C38.5676 24.7736 39.0045 26.217 39.0045 27.6936C39.0045 29.6737 38.2197 31.5726 36.8228 32.9727C35.4259 34.3729 33.5313 35.1594 31.5558 35.1594ZM31.5558 20.4854C30.1334 20.4854 28.7429 20.9082 27.5602 21.7003C26.3775 22.4924 25.4557 23.6182 24.9114 24.9353C24.3671 26.2525 24.2246 27.7019 24.5021 29.1002C24.7796 30.4985 25.4646 31.7829 26.4704 32.791C27.4762 33.7992 28.7577 34.4857 30.1528 34.7639C31.5478 35.042 32.9939 34.8992 34.308 34.3537C35.6222 33.8081 36.7454 32.8841 37.5356 31.6987C38.3259 30.5133 38.7477 29.1196 38.7477 27.6939C38.7477 26.7473 38.5617 25.8099 38.2002 24.9353C37.8388 24.0608 37.3091 23.2661 36.6412 22.5967C35.9734 21.9274 35.1806 21.3964 34.308 21.0342C33.4355 20.6719 32.5003 20.4854 31.5558 20.4854Z" fill="#3F3D56"/>
<path d="M107.062 35.1594C105.589 35.1594 104.149 34.7216 102.924 33.9012C101.699 33.0809 100.745 31.9149 100.181 30.5507C99.617 29.1865 99.4695 27.6853 99.7569 26.2371C100.044 24.7889 100.754 23.4586 101.795 22.4145C102.837 21.3704 104.164 20.6593 105.609 20.3712C107.054 20.0832 108.552 20.231 109.913 20.7961C111.274 21.3612 112.437 22.3181 113.256 23.5458C114.074 24.7736 114.511 26.217 114.511 27.6936C114.511 29.6737 113.726 31.5726 112.329 32.9727C110.933 34.3729 109.038 35.1594 107.062 35.1594ZM107.062 20.4854C105.64 20.4854 104.25 20.9082 103.067 21.7003C101.884 22.4924 100.962 23.6182 100.418 24.9353C99.8737 26.2525 99.7313 27.7019 100.009 29.1002C100.286 30.4985 100.971 31.7829 101.977 32.791C102.983 33.7992 104.264 34.4857 105.659 34.7639C107.054 35.042 108.5 34.8992 109.815 34.3537C111.129 33.8081 112.252 32.8841 113.042 31.6987C113.832 30.5133 114.254 29.1196 114.254 27.6939C114.254 26.7473 114.068 25.8099 113.707 24.9353C113.345 24.0608 112.816 23.2661 112.148 22.5967C111.48 21.9274 110.687 21.3964 109.815 21.0342C108.942 20.6719 108.007 20.4854 107.062 20.4854Z" fill="#3F3D56"/>
<path d="M134.334 17.8318H4.57651C2.05049 17.8362 0.00345832 20.3709 0 23.4992V85.5047C0.00345832 88.6327 2.05049 91.1663 4.57651 91.1721H134.334C136.86 91.1677 138.907 88.633 138.911 85.5047V23.4989C138.907 20.3709 136.86 17.8373 134.334 17.8315V17.8318ZM138.373 85.5047C138.37 88.265 136.564 90.5019 134.335 90.5051H4.57651C2.34733 90.5016 0.541802 88.265 0.538344 85.5047V23.4989C0.540938 20.7386 2.34733 18.5017 4.57651 18.4985H134.334C136.563 18.502 138.369 20.7386 138.372 23.4989L138.373 85.5047Z" fill="#3F3D56"/>
<path d="M32.5657 42.7708H9.51025V58.9468H32.5657V42.7708Z" fill="#F2F2F2"/>
<path d="M64.8435 42.7708H41.7881V58.9468H64.8435V42.7708Z" fill="#F2F2F2"/>
<path d="M97.1211 42.7708H74.0657V58.9468H97.1211V42.7708Z" fill="#F2F2F2"/>
<path d="M129.399 42.7708H106.343V58.9468H129.399V42.7708Z" fill="#F2F2F2"/>
<path d="M32.5657 66.457H9.51025V82.6331H32.5657V66.457Z" fill="#F2F2F2"/>
<path d="M64.8435 66.457H41.7881V82.6331H64.8435V66.457Z" fill="#F2F2F2"/>
<path d="M97.1211 66.457H74.0657V82.6331H97.1211V66.457Z" fill="#F2F2F2"/>
<path d="M129.399 66.457H106.343V82.6331H129.399V66.457Z" fill="#F2F2F2"/>
<path d="M49.4682 82.5389L44.0256 75.0052L45.5081 73.9295L49.6742 79.6959L65.6162 63.2795L66.9275 64.5592L49.4682 82.5389Z" fill="#D51F36"/>
<path d="M82.0338 58.8526L76.5913 51.3189L78.0738 50.2432L82.2399 56.0097L98.1819 39.5933L99.4932 40.8729L82.0338 58.8526Z" fill="#D51F36"/>
<path d="M31.654 0H31.26V27.7275H31.654V0Z" fill="#11504F"/>
<path d="M107.449 0H107.055V27.7275H107.449V0Z" fill="#11504F"/>
<path d="M220.578 169.999H111.28C111.226 170.003 111.172 169.995 111.121 169.977C111.07 169.958 111.023 169.93 110.983 169.893C110.944 169.856 110.912 169.811 110.89 169.761C110.869 169.711 110.858 169.657 110.858 169.603C110.858 169.548 110.869 169.495 110.89 169.445C110.912 169.395 110.944 169.35 110.983 169.313C111.023 169.276 111.07 169.247 111.121 169.229C111.172 169.21 111.226 169.203 111.28 169.206H220.578C220.632 169.203 220.686 169.21 220.737 169.229C220.788 169.247 220.835 169.276 220.875 169.313C220.914 169.35 220.946 169.395 220.967 169.445C220.989 169.495 221 169.548 221 169.603C221 169.657 220.989 169.711 220.967 169.761C220.946 169.811 220.914 169.856 220.875 169.893C220.835 169.93 220.788 169.958 220.737 169.977C220.686 169.995 220.632 170.003 220.578 169.999Z" fill="#3F3D56"/>
<path d="M17.4787 58.8526L12.0361 51.3189L13.5186 50.2432L17.6847 56.0097L33.6267 39.5933L34.938 40.8729L17.4787 58.8526Z" fill="#D51F36"/>
<path d="M182.516 80.2453C178.828 80.2453 175.838 77.2486 175.838 73.552C175.838 69.8553 178.828 66.8586 182.516 66.8586C186.204 66.8586 189.194 69.8553 189.194 73.552C189.194 77.2486 186.204 80.2453 182.516 80.2453Z" fill="#FFB8B8"/>
<path d="M184.927 113.158C185.011 113.158 185.096 113.154 185.18 113.146C185.6 113.111 186.008 112.988 186.377 112.783C186.746 112.579 187.068 112.299 187.322 111.962C187.575 111.624 187.755 111.237 187.848 110.825C187.942 110.413 187.948 109.986 187.865 109.572C187.846 109.476 187.821 109.381 187.792 109.287L197.648 97.6033C197.969 97.2197 198.158 96.7424 198.187 96.2424C198.217 95.7425 198.084 95.2464 197.81 94.8279L197.792 94.806L188.92 86.0381C188.436 85.56 187.782 85.2943 187.102 85.2994C186.422 85.3044 185.772 85.5798 185.295 86.065C184.818 86.5503 184.552 87.2056 184.557 87.8869C184.561 88.5683 184.835 89.22 185.319 89.6988C185.33 89.7098 185.341 89.7207 185.353 89.7315L191.778 95.8541L184.744 107.17C184.611 107.177 184.478 107.193 184.347 107.219C183.62 107.364 182.972 107.776 182.53 108.373C182.088 108.971 181.883 109.711 181.955 110.451C182.028 111.191 182.372 111.878 182.921 112.378C183.47 112.879 184.185 113.156 184.927 113.158Z" fill="#FFB8B8"/>
<path d="M171.517 166.706H168.184L166.598 153.819L171.518 153.82L171.517 166.706Z" fill="#FFB8B8"/>
<path d="M172.368 165.615L165.803 165.615C165.254 165.615 164.71 165.724 164.202 165.934C163.694 166.145 163.233 166.454 162.845 166.843C162.456 167.233 162.148 167.695 161.938 168.204C161.728 168.712 161.62 169.257 161.62 169.808V169.945L172.367 169.945L172.368 165.615Z" fill="#11504F"/>
<path d="M204.649 162.087L201.785 163.796L193.844 153.537L198.071 151.014L204.649 162.087Z" fill="#FFB8B8"/>
<path d="M204.822 160.714L199.182 164.08C198.229 164.649 197.54 165.574 197.267 166.652C196.994 167.73 197.16 168.872 197.728 169.828L197.797 169.945L207.032 164.434L204.822 160.714Z" fill="#11504F"/>
<path d="M167.397 162.155H171.13C171.432 162.155 171.724 162.043 171.949 161.841C172.173 161.638 172.315 161.359 172.347 161.058L176.11 125.604C176.119 125.515 176.158 125.431 176.219 125.366C176.281 125.301 176.362 125.258 176.451 125.244C176.539 125.23 176.63 125.245 176.708 125.287C176.787 125.33 176.85 125.397 176.887 125.479L183.675 140.546L195.694 160.189C195.85 160.441 196.091 160.628 196.373 160.716C196.655 160.804 196.959 160.788 197.23 160.67L202.031 158.553C202.19 158.482 202.332 158.379 202.448 158.25C202.564 158.121 202.651 157.968 202.704 157.803C202.757 157.637 202.774 157.462 202.754 157.289C202.734 157.117 202.678 156.95 202.589 156.801L191.54 138.258L188.152 122.635C189.218 115.86 184.649 105.788 184.603 105.686L184.58 105.637L171.995 100.707L171.932 100.784C166.969 117.109 163.945 134.677 166.178 161.031C166.205 161.337 166.346 161.621 166.571 161.829C166.797 162.037 167.091 162.153 167.397 162.155Z" fill="#11504F"/>
<path d="M185.087 107.288L185.145 107.165C185.173 107.106 187.972 101.19 190.129 94.8675C190.543 93.6448 190.7 92.3492 190.589 91.0627C190.478 89.7762 190.102 88.5268 189.484 87.3937C188.858 86.2489 188.001 85.2468 186.969 84.4511C185.936 83.6553 184.75 83.0831 183.486 82.7707C181.29 82.2433 178.979 82.5239 176.973 83.5615C174.966 84.5991 173.399 86.3246 172.555 88.4236C170.844 92.7123 171.389 97.29 171.903 100.89L171.913 100.962L171.978 100.993L185.087 107.288Z" fill="#D51F36"/>
<path d="M174.419 69.7711H185.023V65.1383C182.695 64.2115 180.418 63.4233 179.041 65.1383C177.815 65.1383 176.64 65.6264 175.773 66.4952C174.906 67.364 174.419 68.5424 174.419 69.7711Z" fill="#11504F"/>
<path d="M185.61 64.3208C191.949 64.3208 193.723 72.285 193.723 76.778C193.723 79.2837 192.593 80.1799 190.816 80.4831L190.189 77.1292L188.719 80.6274C188.22 80.6299 187.696 80.6202 187.152 80.6101L186.654 79.5818L185.543 80.5917C181.093 80.5983 177.497 81.2485 177.497 76.778C177.497 72.285 179.053 64.3208 185.61 64.3208Z" fill="#11504F"/>
<path d="M157.433 73.2343C157.393 73.3082 157.356 73.3843 157.321 73.4625C157.151 73.8488 157.064 74.2669 157.065 74.6893C157.067 75.1117 157.158 75.529 157.332 75.9138C157.506 76.2985 157.759 76.6421 158.075 76.922C158.39 77.2019 158.762 77.4118 159.164 77.5379C159.257 77.5669 159.352 77.591 159.449 77.61L164.953 91.881C165.135 92.3474 165.462 92.7426 165.886 93.0079C166.31 93.2733 166.807 93.3946 167.305 93.3538L167.333 93.3486L179.263 89.7488C179.915 89.5522 180.461 89.1044 180.783 88.5039C181.105 87.9033 181.176 87.1992 180.979 86.5464C180.783 85.8936 180.337 85.3457 179.737 85.0231C179.138 84.7005 178.436 84.6297 177.784 84.8263C177.77 84.8308 177.755 84.8354 177.74 84.8402L169.299 87.5566L162.763 75.944C162.821 75.8234 162.87 75.699 162.911 75.5715C163.132 74.8617 163.083 74.0948 162.771 73.4196C162.46 72.7445 161.91 72.2093 161.227 71.918C160.545 71.6268 159.778 71.6001 159.077 71.8434C158.376 72.0866 157.79 72.5823 157.433 73.2343Z" fill="#FFB8B8"/>
<path d="M0.288132 170.259H55.6212C55.6977 170.259 55.771 170.228 55.825 170.174C55.8791 170.12 55.9094 170.047 55.9094 169.97C55.9094 169.893 55.8791 169.82 55.825 169.766C55.771 169.712 55.6977 169.681 55.6212 169.681H0.288132C0.2117 169.681 0.138401 169.712 0.0843544 169.766C0.0303078 169.82 -6.10352e-05 169.893 -6.10352e-05 169.97C-6.10352e-05 170.047 0.0303078 170.12 0.0843544 170.174C0.138401 170.228 0.2117 170.259 0.288132 170.259Z" fill="#CCCCCC"/>
</g>
<defs>
<clipPath id="clip0_12215_47647">
<rect width="221" height="170" fill="white"/>
</clipPath>
</defs>
</svg>
