<svg width="178" height="155" viewBox="0 0 178 155" fill="none" xmlns="http://www.w3.org/2000/svg">
<path d="M52.5518 153.913V145.365H54.9695V151.996H59.0479V153.913H52.5518Z" fill="#878787"/>
<path d="M41.9271 153.913L45.7003 145.365H48.0814L51.8667 153.913H49.3513L46.3963 146.55H47.3487L44.3937 153.913H41.9271ZM43.9907 152.252L44.6135 150.469H48.7896L49.4123 152.252H43.9907Z" fill="#878787"/>
<path d="M38.3419 154.084C37.6662 154.084 37.0394 153.978 36.4614 153.766C35.8916 153.547 35.395 153.237 34.9717 152.838C34.5566 152.439 34.2309 151.971 33.9949 151.434C33.7588 150.889 33.6407 150.29 33.6407 149.639C33.6407 148.988 33.7588 148.394 33.9949 147.856C34.2309 147.311 34.5566 146.839 34.9717 146.44C35.395 146.041 35.8916 145.736 36.4614 145.524C37.0394 145.304 37.6662 145.194 38.3419 145.194C39.1315 145.194 39.8357 145.333 40.4544 145.61C41.0812 145.886 41.6022 146.285 42.0174 146.806L40.4788 148.198C40.202 147.873 39.8967 147.624 39.563 147.453C39.2374 147.282 38.871 147.197 38.464 147.197C38.114 147.197 37.7924 147.254 37.4994 147.368C37.2063 147.482 36.9539 147.649 36.7423 147.869C36.5388 148.08 36.376 148.337 36.2539 148.638C36.1399 148.939 36.0829 149.273 36.0829 149.639C36.0829 150.005 36.1399 150.339 36.2539 150.64C36.376 150.942 36.5388 151.202 36.7423 151.422C36.9539 151.633 37.2063 151.796 37.4994 151.91C37.7924 152.024 38.114 152.081 38.464 152.081C38.871 152.081 39.2374 151.996 39.563 151.825C39.8967 151.654 40.202 151.406 40.4788 151.08L42.0174 152.472C41.6022 152.985 41.0812 153.384 40.4544 153.669C39.8357 153.945 39.1315 154.084 38.3419 154.084Z" fill="#878787"/>
<path d="M29.9425 153.913V145.365H32.3602V153.913H29.9425Z" fill="#878787"/>
<path d="M19.8546 153.913V145.365H23.8964C24.8407 145.365 25.671 145.54 26.3874 145.89C27.1038 146.24 27.6614 146.733 28.0603 147.368C28.4673 148.003 28.6708 148.76 28.6708 149.639C28.6708 150.51 28.4673 151.267 28.0603 151.91C27.6614 152.545 27.1038 153.038 26.3874 153.388C25.671 153.738 24.8407 153.913 23.8964 153.913H19.8546ZM22.2724 151.983H23.7987C24.2871 151.983 24.7104 151.894 25.0686 151.715C25.4349 151.528 25.7199 151.259 25.9234 150.909C26.1269 150.551 26.2286 150.127 26.2286 149.639C26.2286 149.142 26.1269 148.719 25.9234 148.369C25.7199 148.019 25.4349 147.754 25.0686 147.575C24.7104 147.388 24.2871 147.295 23.7987 147.295H22.2724V151.983Z" fill="#878787"/>
<path d="M13.8725 148.674H17.841V150.482H13.8725V148.674ZM14.0435 152.045H18.5126V153.913H11.6501V145.365H18.3539V147.233H14.0435V152.045Z" fill="#878787"/>
<path d="M0 153.913V145.365H1.99036L5.53149 151.178H4.48136L7.92481 145.365H9.91517L9.93959 153.913H7.71722L7.6928 148.748H8.07133L5.49486 153.07H4.42031L1.77057 148.748H2.23458V153.913H0Z" fill="#878787"/>
<path d="M173.556 112.6C173.942 112.762 174.36 112.764 174.759 112.871C175.801 113.154 176.796 113.602 177.707 114.201C177.796 114.258 177.806 114.305 177.767 114.389C177.206 115.574 176.646 116.758 176.087 117.942C176.014 118.098 175.945 118.068 175.825 117.99C175.196 117.556 174.494 117.25 173.757 117.091C172.768 116.909 171.844 117.009 171.066 117.737C170.662 118.133 170.376 118.644 170.242 119.206C170.132 119.62 170.073 120.047 170.065 120.476C170.065 120.69 170.125 120.73 170.316 120.728C172.055 120.728 173.793 120.728 175.533 120.718C175.805 120.718 175.881 120.783 175.877 121.073C175.861 122.353 175.862 123.631 175.877 124.911C175.877 125.177 175.796 125.229 175.564 125.227C173.869 125.219 172.174 125.227 170.479 125.227C170.072 125.227 170.072 125.227 170.072 125.642C170.072 130.913 170.072 136.184 170.072 141.455C170.072 141.718 170.019 141.801 169.759 141.792C168.337 141.777 166.915 141.777 165.492 141.792C165.243 141.792 165.162 141.737 165.162 141.462C165.162 136.163 165.162 130.865 165.177 125.573C165.177 125.282 165.096 125.227 164.847 125.227C163.802 125.243 162.756 125.227 161.714 125.238C161.549 125.238 161.492 125.205 161.492 125.015C161.5 123.662 161.5 122.309 161.492 120.958C161.492 120.773 161.543 120.73 161.713 120.731C162.776 120.731 163.838 120.731 164.901 120.74C165.111 120.74 165.187 120.7 165.182 120.46C165.161 119.447 165.319 118.438 165.647 117.484C165.972 116.482 166.507 115.568 167.211 114.809C168.365 113.586 169.76 112.968 171.345 112.716C171.465 112.697 171.604 112.716 171.704 112.61L173.556 112.6Z" fill="#878787"/>
<path d="M124.199 112.6C125.971 112.634 127.716 112.841 129.394 113.473C130.719 113.948 131.923 114.724 132.918 115.745C133.561 116.422 134.093 117.201 134.495 118.054C134.572 118.225 134.511 118.245 134.4 118.304C133.494 118.782 132.588 119.262 131.682 119.745L130.544 120.348C130.451 120.398 130.368 120.464 130.282 120.317C129.773 119.446 129.007 118.871 128.16 118.403C127.329 117.944 126.427 117.638 125.494 117.501C124.867 117.397 124.231 117.364 123.597 117.403C122.417 117.49 121.26 117.678 120.25 118.389C119.341 119.028 118.895 119.911 118.976 121.043C119.04 121.925 119.558 122.504 120.274 122.922C121.021 123.353 121.841 123.565 122.668 123.735C123.765 123.961 124.884 124.053 125.987 124.236C127.906 124.555 129.803 124.969 131.538 125.929C133.193 126.839 134.387 128.149 134.953 130.028C135.169 130.78 135.293 131.556 135.322 132.339C135.404 133.602 135.215 134.868 134.769 136.047C134.189 137.549 133.188 138.695 131.885 139.573C130.674 140.362 129.333 140.918 127.93 141.215C127.322 141.356 126.705 141.442 126.092 141.534C125.637 141.602 125.167 141.553 124.708 141.606C124.047 141.683 123.4 141.606 122.751 141.582C122.074 141.547 121.4 141.462 120.734 141.329C119.833 141.168 118.951 140.914 118.099 140.571C117.114 140.173 116.198 139.613 115.387 138.912C114.338 138.02 113.599 136.9 112.963 135.689C112.834 135.441 112.748 135.168 112.632 134.908C112.569 134.761 112.593 134.683 112.751 134.602C113.345 134.302 113.928 133.981 114.513 133.665C115.261 133.26 116.002 132.857 116.755 132.447C116.889 132.373 116.977 132.343 117.05 132.529C117.74 134.303 119.035 135.41 120.724 136.087C121.713 136.474 122.759 136.682 123.817 136.702C125.014 136.738 126.197 136.664 127.342 136.268C128.107 136.034 128.794 135.587 129.328 134.975C129.801 134.426 130.07 133.721 130.085 132.987C130.099 132.273 129.958 131.637 129.515 131.073C129.197 130.679 128.803 130.358 128.356 130.132C127.411 129.645 126.391 129.33 125.342 129.2C124.483 129.085 123.631 128.93 122.773 128.819C121.776 128.693 120.791 128.482 119.828 128.188C118.698 127.847 117.596 127.408 116.61 126.699C115.531 125.944 114.703 124.866 114.236 123.611C114.04 123.055 113.909 122.477 113.847 121.889C113.77 121.208 113.757 120.522 113.809 119.839C113.854 119.242 113.986 118.656 114.202 118.1C114.453 117.437 114.794 116.814 115.215 116.25C115.78 115.509 116.476 114.885 117.265 114.409C118.873 113.405 120.638 112.916 122.493 112.72C123.059 112.648 123.629 112.608 124.199 112.6Z" fill="#878787"/>
<path d="M149.742 141.632C148.706 141.671 147.671 141.535 146.675 141.23C145.524 140.899 144.445 140.333 143.499 139.563C142.521 138.758 141.713 137.746 141.126 136.591C140.777 135.914 140.503 135.197 140.309 134.453C140.161 133.912 140.049 133.361 139.972 132.804C139.883 131.993 139.865 131.175 139.917 130.361C140.002 128.456 140.571 126.611 141.563 125.022C141.975 124.348 142.469 123.735 143.032 123.198C144.356 121.952 145.989 121.137 147.738 120.847C148.532 120.698 149.34 120.641 150.146 120.676C152.289 120.786 154.262 121.433 155.965 122.858C157.593 124.222 158.748 126.12 159.25 128.256C159.496 129.246 159.612 130.267 159.595 131.291C159.591 133.023 159.208 134.73 158.476 136.278C157.612 138.108 156.209 139.589 154.48 140.496C153.475 141.025 152.394 141.373 151.282 141.524C150.773 141.604 150.258 141.641 149.742 141.632ZM144.577 131.154C144.57 131.62 144.61 132.085 144.697 132.542C144.974 133.994 145.586 135.236 146.743 136.118C147.791 136.916 148.985 137.146 150.243 137.036C151.715 136.906 152.922 136.235 153.794 134.943C155.309 132.686 155.203 129.309 153.557 127.156C151.673 124.696 148.099 124.518 146.093 126.8C145.024 128.021 144.603 129.513 144.587 131.154H144.577Z" fill="#878787"/>
<path d="M31.4813 112.6C31.8428 112.752 32.2412 112.781 32.5959 112.972C33.007 113.176 33.3583 113.485 33.6155 113.866C33.8727 114.248 34.027 114.69 34.0635 115.15C34.1677 116.037 33.9828 116.839 33.4011 117.514C32.9846 117.989 32.4184 118.305 31.7974 118.411C31.3666 118.51 30.9196 118.514 30.487 118.423C30.0544 118.333 29.6464 118.149 29.2908 117.886C28.7616 117.485 28.4016 116.899 28.2822 116.244C28.1712 115.777 28.1712 115.291 28.2822 114.824C28.5444 113.811 29.1395 113.068 30.1919 112.769C30.4088 112.706 30.6441 112.713 30.8475 112.6H31.4813Z" fill="#D51F36"/>
<path d="M59.5781 112.6C59.8941 112.752 60.2505 112.769 60.5683 112.929C60.9935 113.128 61.3595 113.436 61.6299 113.821C61.9003 114.206 62.0658 114.655 62.1098 115.125C62.2124 115.79 62.0943 116.472 61.7736 117.063C61.5817 117.413 61.3141 117.715 60.9906 117.948C60.6671 118.18 60.2959 118.337 59.9042 118.406C58.8132 118.637 57.8146 118.428 57.0144 117.6C56.5964 117.178 56.345 116.619 56.3067 116.025C56.2613 115.381 56.2714 114.753 56.5706 114.155C56.969 113.357 57.6179 112.914 58.4618 112.715C58.5862 112.686 58.7291 112.715 58.83 112.605L59.5781 112.6Z" fill="#D51F36"/>
<path d="M0 126.93C0 122.306 0 117.683 0 113.059C0 112.797 0.0655719 112.735 0.324461 112.736C2.62589 112.746 4.92731 112.736 7.22873 112.736C7.90117 112.736 8.57361 112.681 9.24605 112.755C10.4718 112.88 11.6613 113.245 12.7478 113.829C13.4704 114.22 14.1297 114.72 14.7029 115.31C15.8203 116.435 16.5436 117.894 16.7639 119.468C16.9504 120.831 16.7249 122.218 16.1167 123.451C16.0327 123.63 16.0041 123.701 16.2529 123.721C18.043 123.844 19.7457 124.544 21.1079 125.717C22.6397 126.997 23.6673 128.783 24.0061 130.755C24.4718 133.382 23.9086 135.791 22.2376 137.893C20.9925 139.493 19.2065 140.579 17.2178 140.944C16.8483 141.021 16.4734 141.068 16.0965 141.085C11.4819 141.24 6.86562 141.107 2.251 141.15C1.59705 141.15 0.943092 141.14 0.289144 141.15C0.0672391 141.15 0.0100965 141.093 0.0100965 140.868C0.00673425 136.228 0.0033622 131.582 0 126.93ZM10.6716 129.009C9.02414 129.009 7.37668 129.009 5.7292 129.009C5.53588 129.009 5.47199 129.046 5.47367 129.255C5.48264 131.325 5.48264 133.393 5.47367 135.461C5.47367 135.674 5.53922 135.709 5.73087 135.708C7.46912 135.708 9.2057 135.696 10.9423 135.708C12.4721 135.718 14.0002 135.696 15.53 135.731C17.1842 135.769 18.6854 134.244 18.7426 132.541C18.7652 132.085 18.6949 131.629 18.5359 131.2C18.3768 130.772 18.1325 130.381 17.8177 130.051C17.503 129.721 17.1245 129.459 16.7054 129.281C16.2863 129.103 15.8354 129.012 15.3804 129.015C13.8052 129.002 12.2384 129.009 10.6716 129.009ZM5.4787 121.399C5.4787 122.441 5.4787 123.485 5.4787 124.529C5.4787 124.687 5.4972 124.772 5.6922 124.768C6.82022 124.753 7.94824 124.779 9.07626 124.741C10.875 124.682 12.3746 122.914 12.1745 121.128C11.9678 119.285 10.6061 118.051 8.75518 118.037C7.74652 118.037 6.74963 118.037 5.74769 118.037C5.5426 118.037 5.47368 118.081 5.47704 118.301C5.48544 119.331 5.4787 120.364 5.4787 121.399Z" fill="#D51F36"/>
<path d="M105.34 138.381C105.897 138.667 106.428 139.001 106.927 139.379C108.223 140.351 109.092 141.792 109.348 143.396C109.647 145.056 109.5 146.766 108.922 148.349C108.267 150.143 107.088 151.504 105.481 152.508C104.249 153.252 102.881 153.738 101.458 153.939C100.437 154.088 99.4013 154.122 98.3719 154.042C96.377 153.948 94.448 153.296 92.8024 152.159C91.5901 151.319 90.6246 150.168 90.0067 148.825C89.6376 148.048 89.4012 147.213 89.3074 146.357C89.2687 145.987 89.1998 145.622 89.1897 145.25C89.1897 145.095 89.2368 145.053 89.3881 145.053C90.9089 145.053 92.4309 145.053 93.9539 145.053C94.1725 145.053 94.1742 145.169 94.1792 145.323C94.1988 145.815 94.3145 146.297 94.5199 146.744C94.7253 147.19 95.0162 147.592 95.3761 147.925C96.0759 148.595 96.9502 149.052 97.8978 149.243C99.1442 149.543 100.451 149.467 101.655 149.026C102.889 148.56 103.849 147.778 104.281 146.493C104.479 145.909 104.545 145.288 104.474 144.675C104.419 144.026 104.187 143.405 103.802 142.881C103.344 142.291 102.741 141.831 102.052 141.547C101.131 141.167 100.141 140.984 99.1452 141.01C98.1039 141.015 97.0666 140.881 96.0604 140.612C94.7256 140.278 93.4842 139.643 92.4309 138.754C91.4927 137.948 90.7411 136.946 90.2286 135.817C89.8563 134.992 89.5875 134.124 89.4284 133.232C89.2474 132.152 89.1909 131.054 89.2603 129.961C89.3276 128.473 89.7299 127.02 90.4371 125.71C90.771 125.1 91.1653 124.524 91.6138 123.993C92.4613 122.98 93.5194 122.165 94.7138 121.607C95.7239 121.135 96.8019 120.827 97.9079 120.693C98.8474 120.571 99.7977 120.556 100.741 120.649C101.816 120.728 102.859 121.05 103.792 121.593C103.96 121.69 104.034 121.685 104.158 121.522C104.733 120.779 105.335 120.057 105.91 119.31C106.018 119.172 106.053 119.222 106.144 119.292C107.272 120.148 108.398 121.006 109.533 121.853C109.679 121.962 109.654 122.038 109.565 122.151C108.946 122.936 108.334 123.725 107.715 124.515C107.462 124.832 107.445 124.831 107.697 125.145C108.603 126.264 109.199 127.604 109.425 129.029C109.605 130.108 109.617 131.208 109.462 132.291C109.338 133.226 109.076 134.136 108.685 134.993C108.151 136.192 107.282 137.21 106.184 137.923C105.912 138.093 105.63 138.246 105.34 138.381ZM94.1842 130.841C94.1842 130.993 94.1842 131.146 94.1842 131.298C94.3339 134.157 96.2234 136.211 98.9199 136.425C100.877 136.579 102.514 135.919 103.642 134.272C104.787 132.592 104.906 130.726 104.33 128.821C103.753 126.916 102.445 125.643 100.463 125.258C98.4811 124.873 96.7832 125.408 95.4585 126.962C94.5121 128.07 94.1742 129.405 94.1842 130.841Z" fill="#D51F36"/>
<path d="M66.0714 130.845C66.0714 127.517 66.0714 124.189 66.0714 120.86C66.0714 120.598 66.1387 120.534 66.3959 120.538C67.6853 120.551 68.9747 120.55 70.2624 120.538C70.4776 120.538 70.5347 120.607 70.5532 120.81C70.6322 121.662 70.7314 122.514 70.8172 123.366C70.8323 123.535 70.8642 123.508 70.9853 123.439C71.2542 123.289 71.4324 123.039 71.6577 122.844C72.8345 121.814 74.1794 121.075 75.7125 120.766C77.5546 120.371 79.4752 120.606 81.1694 121.433C82.5716 122.119 83.7369 123.212 84.5148 124.57C85.1703 125.703 85.6055 126.951 85.7974 128.247C85.9182 128.998 85.9778 129.758 85.9756 130.52C85.9756 133.957 85.9756 137.393 85.9756 140.829C85.9756 141.052 85.942 141.133 85.6898 141.131C84.2329 141.118 82.7759 141.118 81.319 141.131C81.0651 141.131 80.9828 141.077 80.9828 140.811C80.9828 137.347 81.0029 133.887 80.9828 130.42C80.9828 129.25 80.739 128.117 80.0531 127.127C79.7319 126.64 79.3151 126.224 78.8283 125.905C78.3415 125.586 77.795 125.369 77.2221 125.269C76.0218 125.045 74.8686 125.139 73.7944 125.725C72.4798 126.44 71.6846 127.583 71.2559 128.995C71.0805 129.622 70.999 130.273 71.0138 130.925C71.0138 134.216 71.0138 137.511 71.0138 140.802C71.0138 141.062 70.95 141.13 70.6894 141.128C69.2403 141.115 67.79 141.115 66.3387 141.128C66.1202 141.128 66.0731 141.062 66.0748 140.856C66.0759 137.52 66.0748 134.183 66.0714 130.845Z" fill="#D51F36"/>
<path d="M43.0767 126.905C43.0767 131.529 43.0767 136.152 43.0767 140.776C43.0767 141.164 43.1356 141.129 42.7136 141.131C41.2712 141.131 39.8305 141.131 38.3881 141.131C38.1881 141.131 38.1343 141.08 38.1343 140.876C38.1343 132.087 38.1343 123.297 38.1343 114.508C38.1227 114.431 38.1419 114.352 38.1879 114.289C38.2338 114.225 38.3028 114.183 38.3797 114.17C39.8574 113.688 41.3351 113.205 42.8078 112.705C43.0599 112.62 43.0818 112.689 43.0818 112.916C43.0762 117.575 43.0745 122.239 43.0767 126.905Z" fill="#D51F36"/>
<path d="M52.3728 126.878C52.3728 131.518 52.3728 136.16 52.3728 140.801C52.3728 141.056 52.3156 141.139 52.0534 141.139C50.5964 141.125 49.1395 141.125 47.6825 141.139C47.4774 141.139 47.4321 141.08 47.4321 140.882C47.4321 132.094 47.4321 123.306 47.4321 114.518C47.421 114.44 47.4411 114.361 47.488 114.297C47.5349 114.234 47.6049 114.192 47.6825 114.18C49.1585 113.698 50.6362 113.216 52.1089 112.716C52.3678 112.629 52.3812 112.716 52.3812 112.929C52.3734 117.58 52.3706 122.229 52.3728 126.878Z" fill="#D51F36"/>
<path d="M61.7048 130.816C61.7048 134.146 61.7048 137.475 61.7048 140.803C61.7048 141.058 61.6493 141.141 61.3854 141.132C59.9161 141.119 58.4468 141.122 56.9792 141.132C56.7859 141.132 56.7203 141.097 56.7203 140.886C56.7271 134.714 56.7271 128.543 56.7203 122.371C56.7085 122.303 56.7237 122.233 56.7627 122.176C56.8017 122.119 56.8613 122.08 56.9288 122.067C58.425 121.583 59.9195 121.094 61.4123 120.601C61.7031 120.507 61.7048 120.507 61.7048 120.807V130.819V130.816Z" fill="#D51F36"/>
<path d="M33.6468 130.816C33.6468 134.151 33.6468 137.488 33.6468 140.825C33.6468 141.08 33.5711 141.132 33.3341 141.13C31.8827 141.122 30.4325 141.122 28.9834 141.13C28.7531 141.13 28.6657 141.093 28.6657 140.83C28.6735 134.688 28.6735 128.546 28.6657 122.403C28.6535 122.321 28.6739 122.238 28.7224 122.171C28.7708 122.104 28.8434 122.06 28.9245 122.046C30.4106 121.567 31.8939 121.078 33.3744 120.58C33.598 120.506 33.6434 120.543 33.6417 120.775C33.6428 124.124 33.6445 127.471 33.6468 130.816Z" fill="#D51F36"/>
<path d="M88.8862 19.9098C68.0848 -0.0417929 35.6065 20.242 46.6939 46.1033H79.5475L81.2895 41.4156C81.6168 40.535 82.8677 40.5507 83.1727 41.4392L87.7828 54.8689C88.1066 55.8122 89.4604 55.7522 89.6995 54.784L94.6133 34.8877C94.8454 33.9482 96.1436 33.8533 96.5098 34.7491L101.152 46.1033H131.046C142.289 20.2648 109.659 -0.0140295 88.8862 19.9098Z" fill="#D51F36"/>
<path d="M54.6841 54.6894L88.8853 88.8945L122.839 54.6894H99.4263L97.0201 50.725C96.5766 49.9945 95.4805 50.1207 95.2148 50.933L89.7564 67.6192C89.4642 68.5125 88.2129 68.5459 87.8735 67.6695L82.1568 52.9095C81.8316 52.0697 80.649 52.0541 80.3017 52.885L79.5475 54.6894H54.6841Z" fill="#878787"/>
<path d="M44.4475 54.6894V80.228C44.4475 85.0144 48.4167 88.8945 53.313 88.8945H84.7201L50.0327 54.6894H44.4475Z" fill="#D51F36"/>
<path d="M124.476 88.8945C129.373 88.8945 133.342 85.0144 133.342 80.228V54.6894H127.001L93.0899 88.8945H124.476Z" fill="#878787"/>
</svg>
